<svg width="328" height="98" viewBox="0 0 328 98" fill="none" xmlns="http://www.w3.org/2000/svg">
<path d="M326.75 27.5H310.75V43.5H326.75V27.5Z" stroke="#C4C4C4"/>
<path d="M295.75 27.5H279.75V43.5H295.75V27.5Z" stroke="#C4C4C4"/>
<path d="M264.75 27.5H248.75V43.5H264.75V27.5Z" stroke="#C4C4C4"/>
<path d="M233.75 27.5H217.75V43.5H233.75V27.5Z" stroke="#C4C4C4"/>
<path d="M202.75 27.5H186.75V43.5H202.75V27.5Z" stroke="#C4C4C4"/>
<path d="M171.75 27.5H155.75V43.5H171.75V27.5Z" stroke="#C4C4C4"/>
<path d="M140.75 27.5H124.75V43.5H140.75V27.5Z" stroke="#C4C4C4"/>
<path d="M109.75 27.5H93.75V43.5H109.75V27.5Z" stroke="#C4C4C4"/>
<path d="M78.75 27.5H62.75V43.5H78.75V27.5Z" stroke="#C4C4C4"/>
<path d="M47.75 27.5H31.75V43.5H47.75V27.5Z" stroke="#C4C4C4"/>
<path d="M16.75 27.5H0.75V43.5H16.75V27.5Z" stroke="#C4C4C4"/>
<path d="M326.75 54.5H310.75V70.5H326.75V54.5Z" stroke="#C4C4C4"/>
<path d="M295.75 54.5H279.75V70.5H295.75V54.5Z" stroke="#C4C4C4"/>
<path d="M264.75 54.5H248.75V70.5H264.75V54.5Z" stroke="#C4C4C4"/>
<path d="M233.75 54.5H217.75V70.5H233.75V54.5Z" stroke="#C4C4C4"/>
<path d="M202.75 54.5H186.75V70.5H202.75V54.5Z" stroke="#C4C4C4"/>
<path d="M171.75 54.5H155.75V70.5H171.75V54.5Z" stroke="#C4C4C4"/>
<path d="M140.75 54.5H124.75V70.5H140.75V54.5Z" stroke="#C4C4C4"/>
<path d="M109.75 54.5H93.75V70.5H109.75V54.5Z" stroke="#C4C4C4"/>
<path d="M78.75 54.5H62.75V70.5H78.75V54.5Z" stroke="#C4C4C4"/>
<path d="M47.75 54.5H31.75V70.5H47.75V54.5Z" stroke="#C4C4C4"/>
<path d="M16.75 54.5H0.75V70.5H16.75V54.5Z" stroke="#C4C4C4"/>
<path d="M326.75 81.5H310.75V97.5H326.75V81.5Z" stroke="#C4C4C4"/>
<path d="M295.75 81.5H279.75V97.5H295.75V81.5Z" stroke="#C4C4C4"/>
<path d="M264.75 81.5H248.75V97.5H264.75V81.5Z" stroke="#C4C4C4"/>
<path d="M233.75 81.5H217.75V97.5H233.75V81.5Z" stroke="#C4C4C4"/>
<path d="M202.75 81.5H186.75V97.5H202.75V81.5Z" stroke="#C4C4C4"/>
<path d="M171.75 81.5H155.75V97.5H171.75V81.5Z" stroke="#C4C4C4"/>
<path d="M140.75 81.5H124.75V97.5H140.75V81.5Z" stroke="#C4C4C4"/>
<path d="M109.75 81.5H93.75V97.5H109.75V81.5Z" stroke="#C4C4C4"/>
<path d="M78.75 81.5H62.75V97.5H78.75V81.5Z" stroke="#C4C4C4"/>
<path d="M47.75 81.5H31.75V97.5H47.75V81.5Z" stroke="#C4C4C4"/>
<path d="M16.75 81.5H0.75V97.5H16.75V81.5Z" stroke="#C4C4C4"/>
</svg>
