<svg width="23" height="23" viewBox="0 0 23 23" fill="none" xmlns="http://www.w3.org/2000/svg">
<path d="M22.1836 1.82422L17.7148 0.792969C17.2422 0.664062 16.7266 0.921875 16.5117 1.39453L14.4492 6.20703C14.2773 6.63672 14.4062 7.10938 14.75 7.41016L17.3711 9.55859C15.8242 12.8242 13.1172 15.5742 9.76562 17.1641L7.61719 14.543C7.31641 14.1992 6.84375 14.0703 6.41406 14.2422L1.60156 16.3047C1.12891 16.5195 0.914062 17.0352 1 17.5078L2.03125 21.9766C2.16016 22.4492 2.54688 22.75 3.0625 22.75C14.0625 22.75 23 13.8555 23 2.8125C23 2.33984 22.6562 1.95312 22.1836 1.82422Z" fill="#222222"/>
</svg>
