<svg width="60" height="61" viewBox="0 0 60 61" fill="none" xmlns="http://www.w3.org/2000/svg">
<path d="M56 31H59.8758L60 30.8667C60 29.5867 59.9006 28.28 59.7267 27L56 31Z" fill="#F55D5B"/>
<path d="M46.4237 7L33 20.6866V25L49 8.68664C48.1593 8.05069 47.2915 7.4977 46.4237 7Z" fill="#F55D5B"/>
<path d="M40.0513 4L33 11.0186V15L43 5.0464C42.0513 4.61253 41.0513 4.28074 40.0513 4Z" fill="#F55D5B"/>
<path d="M36 3.3481C35.0204 3.12658 34.0408 3 33.0408 3L33 3.06329V8L36 3.3481Z" fill="#F55D5B"/>
<path d="M42.5391 31L57 16.728C56.4763 15.8091 55.8943 14.8902 55.2251 14L38 31H42.5391Z" fill="#F55D5B"/>
<path d="M53 12.1667C52.6817 11.8056 52.3634 11.4444 52.0186 11.0833C51.6737 10.7222 51.3024 10.3611 50.931 10L33 28.8056V31H35.0159L53 12.1667Z" fill="#F55D5B"/>
<path d="M51.9376 31L59 23.9262C58.7206 22.9338 58.3649 21.9669 57.9838 21L48 31H51.9376Z" fill="#F55D5B"/>
<path d="M29.5 7C14.8703 7 3 19.0943 3 34C3 48.9057 14.8703 61 29.5 61C44.1297 61 56 48.9057 56 34H29.5V7Z" fill="#F55D5B"/>
</svg>
