<svg width="845" height="499" viewBox="0 0 845 499" fill="none" xmlns="http://www.w3.org/2000/svg">
<mask id="mask0" mask-type="alpha" maskUnits="userSpaceOnUse" x="0" y="0" width="845" height="499">
<path d="M8 0.5H837C841.142 0.5 844.5 3.85787 844.5 8V498.5H0.5V7.99999C0.5 3.85785 3.85786 0.5 8 0.5Z" fill="white" stroke="#E4E4E4"/>
</mask>
<g mask="url(#mask0)">
<path d="M36.9586 451.129C36.0598 451.129 35.358 450.767 34.8531 450.044C34.3518 449.331 34.1012 448.357 34.1012 447.122C34.1012 445.897 34.3518 444.927 34.8531 444.211C35.3652 443.484 36.067 443.121 36.9586 443.121C37.8502 443.121 38.5502 443.482 39.0587 444.206C39.5564 444.918 39.8053 445.889 39.8053 447.117C39.8053 448.352 39.5564 449.326 39.0587 450.039C38.5538 450.765 37.8538 451.129 36.9586 451.129ZM36.9586 450.286C37.5566 450.286 38.0203 449.999 38.3497 449.426C38.672 448.871 38.8331 448.103 38.8331 447.122C38.8331 446.155 38.6702 445.391 38.3443 444.829C38.0113 444.256 37.5494 443.969 36.9586 443.969C36.3678 443.969 35.9041 444.257 35.5675 444.834C35.238 445.396 35.0733 446.157 35.0733 447.117C35.0733 448.098 35.2362 448.868 35.5621 449.426C35.8951 449.999 36.3606 450.286 36.9586 450.286Z" fill="#747D88"/>
<path d="M31.346 379.275H31.3245L29.2728 380.752V379.732L31.3353 378.25H32.2806V386H31.346V379.275ZM36.9588 386.129C36.0601 386.129 35.3582 385.767 34.8533 385.044C34.352 384.331 34.1014 383.357 34.1014 382.122C34.1014 380.897 34.352 379.927 34.8533 379.211C35.3654 378.484 36.0672 378.121 36.9588 378.121C37.8504 378.121 38.5505 378.482 39.0589 379.206C39.5566 379.918 39.8055 380.889 39.8055 382.117C39.8055 383.352 39.5566 384.326 39.0589 385.039C38.554 385.765 37.854 386.129 36.9588 386.129ZM36.9588 385.286C37.5568 385.286 38.0205 384.999 38.3499 384.426C38.6722 383.871 38.8333 383.103 38.8333 382.122C38.8333 381.155 38.6704 380.391 38.3446 379.829C38.0116 379.256 37.5496 378.969 36.9588 378.969C36.368 378.969 35.9043 379.257 35.5677 379.834C35.2383 380.396 35.0736 381.157 35.0736 382.117C35.0736 383.098 35.2365 383.868 35.5623 384.426C35.8953 384.999 36.3608 385.286 36.9588 385.286Z" fill="#747D88"/>
<path d="M27.9675 315.484C27.9675 314.807 28.2109 314.243 28.6979 313.792C29.1849 313.344 29.7936 313.121 30.5241 313.121C31.2152 313.121 31.8006 313.326 32.2804 313.738C32.7603 314.15 33.0002 314.653 33.0002 315.248C33.0002 315.677 32.8802 316.093 32.6403 316.494C32.4076 316.888 31.9653 317.421 31.3136 318.094L29.3532 320.119V320.141H33.1291V321H28.0158V320.334L30.7443 317.46C31.2635 316.913 31.6091 316.497 31.7809 316.214C31.9492 315.931 32.0334 315.629 32.0334 315.307C32.0334 314.934 31.8848 314.617 31.5876 314.356C31.2868 314.095 30.9233 313.964 30.4972 313.964C30.0425 313.964 29.6629 314.109 29.3586 314.399C29.0542 314.689 28.902 315.051 28.902 315.484V315.489H27.9675V315.484ZM36.9587 321.129C36.0599 321.129 35.3581 320.767 34.8532 320.044C34.3519 319.331 34.1012 318.357 34.1012 317.122C34.1012 315.897 34.3519 314.927 34.8532 314.211C35.3652 313.484 36.0671 313.121 36.9587 313.121C37.8503 313.121 38.5503 313.482 39.0588 314.206C39.5565 314.918 39.8053 315.889 39.8053 317.117C39.8053 318.352 39.5565 319.326 39.0588 320.039C38.5539 320.765 37.8538 321.129 36.9587 321.129ZM36.9587 320.286C37.5566 320.286 38.0204 319.999 38.3498 319.426C38.672 318.871 38.8332 318.103 38.8332 317.122C38.8332 316.155 38.6703 315.391 38.3444 314.829C38.0114 314.256 37.5495 313.969 36.9587 313.969C36.3678 313.969 35.9041 314.257 35.5676 314.834C35.2381 315.396 35.0734 316.157 35.0734 317.117C35.0734 318.098 35.2363 318.868 35.5622 319.426C35.8952 319.999 36.3607 320.286 36.9587 320.286Z" fill="#747D88"/>
<path d="M29.3156 251.606H30.2448C30.6888 251.606 31.0523 251.478 31.3351 251.22C31.618 250.965 31.7594 250.641 31.7594 250.248C31.7594 249.854 31.6323 249.542 31.3781 249.313C31.1095 249.077 30.7354 248.958 30.2555 248.958C29.8115 248.958 29.4499 249.077 29.1706 249.313C28.8913 249.549 28.7301 249.872 28.6872 250.28H27.758C27.8117 249.621 28.0659 249.096 28.5207 248.706C28.979 248.316 29.5716 248.121 30.2985 248.121C30.9967 248.121 31.575 248.309 32.0334 248.685C32.4989 249.061 32.7316 249.539 32.7316 250.119C32.7316 250.602 32.5884 251.008 32.3019 251.338C32.0155 251.667 31.6287 251.875 31.1418 251.961V251.982C31.729 252.018 32.1963 252.204 32.5436 252.541C32.891 252.881 33.0646 253.323 33.0646 253.868C33.0646 254.527 32.7996 255.069 32.2697 255.495C31.7469 255.918 31.1006 256.129 30.3307 256.129C29.5287 256.129 28.8805 255.927 28.3864 255.522C27.8994 255.125 27.638 254.6 27.6022 253.948H28.5314C28.5744 254.353 28.7534 254.675 29.0685 254.915C29.3908 255.166 29.8079 255.291 30.32 255.291C30.832 255.291 31.2546 255.16 31.5876 254.899C31.917 254.638 32.0817 254.305 32.0817 253.9C32.0817 253.445 31.9206 253.085 31.5983 252.82C31.2796 252.555 30.8428 252.423 30.2878 252.423H29.3156V251.606ZM36.9587 256.129C36.0599 256.129 35.3581 255.767 34.8532 255.044C34.3519 254.331 34.1012 253.357 34.1012 252.122C34.1012 250.897 34.3519 249.927 34.8532 249.211C35.3652 248.484 36.0671 248.121 36.9587 248.121C37.8503 248.121 38.5503 248.482 39.0588 249.206C39.5565 249.918 39.8053 250.889 39.8053 252.117C39.8053 253.352 39.5565 254.326 39.0588 255.039C38.5539 255.765 37.8538 256.129 36.9587 256.129ZM36.9587 255.286C37.5566 255.286 38.0204 254.999 38.3498 254.426C38.672 253.871 38.8332 253.103 38.8332 252.122C38.8332 251.155 38.6703 250.391 38.3444 249.829C38.0114 249.256 37.5495 248.969 36.9587 248.969C36.3678 248.969 35.9041 249.257 35.5676 249.834C35.2381 250.396 35.0734 251.157 35.0734 252.117C35.0734 253.098 35.2363 253.868 35.5622 254.426C35.8952 254.999 36.3607 255.286 36.9587 255.286Z" fill="#747D88"/>
<path d="M31.2708 189.389H27.3767V188.513C27.9926 187.371 29.1259 185.616 30.7766 183.25H32.2054V188.54H33.3011V189.389H32.2054V191H31.2708V189.389ZM28.3328 188.54H31.2708V184.055H31.2547C29.8976 185.992 28.9236 187.48 28.3328 188.519V188.54ZM36.9588 191.129C36.06 191.129 35.3582 190.767 34.8533 190.044C34.352 189.331 34.1014 188.357 34.1014 187.122C34.1014 185.897 34.352 184.927 34.8533 184.211C35.3654 183.484 36.0672 183.121 36.9588 183.121C37.8504 183.121 38.5504 183.482 39.0589 184.206C39.5566 184.918 39.8055 185.889 39.8055 187.117C39.8055 188.352 39.5566 189.326 39.0589 190.039C38.554 190.765 37.854 191.129 36.9588 191.129ZM36.9588 190.286C37.5568 190.286 38.0205 189.999 38.3499 189.426C38.6722 188.871 38.8333 188.103 38.8333 187.122C38.8333 186.155 38.6704 185.391 38.3445 184.829C38.0115 184.256 37.5496 183.969 36.9588 183.969C36.368 183.969 35.9043 184.257 35.5677 184.834C35.2382 185.396 35.0735 186.157 35.0735 187.117C35.0735 188.098 35.2364 188.868 35.5623 189.426C35.8953 189.999 36.3608 190.286 36.9588 190.286Z" fill="#747D88"/>
<path d="M30.4759 126.129C29.7347 126.129 29.117 125.919 28.6228 125.5C28.1251 125.082 27.8566 124.543 27.8172 123.884H28.7679C28.8108 124.296 28.9917 124.632 29.3103 124.894C29.629 125.151 30.0211 125.28 30.4866 125.28C31.013 125.28 31.4427 125.116 31.7757 124.786C32.1051 124.457 32.2698 124.031 32.2698 123.508C32.2698 122.985 32.1051 122.557 31.7757 122.224C31.4427 121.888 31.0183 121.719 30.5027 121.719C29.7364 121.719 29.1832 122.009 28.8431 122.589H27.9353L28.3597 118.25H32.7962V119.109H29.1546L28.9183 121.633H28.9397C29.3121 121.136 29.8904 120.887 30.6746 120.887C31.4194 120.887 32.0317 121.13 32.5115 121.617C32.9949 122.108 33.2366 122.729 33.2366 123.481C33.2366 124.258 32.9788 124.894 32.4632 125.388C31.9475 125.882 31.2851 126.129 30.4759 126.129ZM36.9588 126.129C36.06 126.129 35.3582 125.767 34.8533 125.044C34.352 124.331 34.1014 123.357 34.1014 122.122C34.1014 120.897 34.352 119.927 34.8533 119.211C35.3654 118.484 36.0672 118.121 36.9588 118.121C37.8504 118.121 38.5504 118.482 39.0589 119.206C39.5566 119.918 39.8055 120.889 39.8055 122.117C39.8055 123.352 39.5566 124.326 39.0589 125.039C38.554 125.765 37.854 126.129 36.9588 126.129ZM36.9588 125.286C37.5568 125.286 38.0205 124.999 38.3499 124.426C38.6722 123.871 38.8333 123.103 38.8333 122.122C38.8333 121.155 38.6704 120.391 38.3445 119.829C38.0115 119.256 37.5496 118.969 36.9588 118.969C36.368 118.969 35.9043 119.257 35.5677 119.834C35.2382 120.396 35.0735 121.157 35.0735 122.117C35.0735 123.098 35.2364 123.868 35.5623 124.426C35.8953 124.999 36.3608 125.286 36.9588 125.286Z" fill="#747D88"/>
<path d="M30.465 61.1343C29.8849 61.1343 29.3729 60.9821 28.9289 60.6777C28.4849 60.377 28.1429 59.9473 27.903 59.3887C27.6488 58.8014 27.5216 58.0907 27.5216 57.2563C27.5216 55.9494 27.7866 54.9325 28.3166 54.2056C28.8429 53.4787 29.5806 53.1152 30.5295 53.1152C31.1883 53.1152 31.7505 53.2979 32.216 53.6631C32.6815 54.0283 32.9769 54.5153 33.1022 55.124H32.1193C32.0155 54.7731 31.8185 54.492 31.5285 54.2808C31.2384 54.0731 30.9019 53.9692 30.5187 53.9692C29.8706 53.9692 29.3693 54.2467 29.0148 54.8018C28.6603 55.3568 28.4741 56.1499 28.4562 57.1812H28.4723C28.6478 56.8016 28.9325 56.4972 29.3263 56.2681C29.7202 56.0389 30.1571 55.9243 30.6369 55.9243C31.3745 55.9243 31.9886 56.1678 32.4792 56.6548C32.9661 57.1418 33.2096 57.7523 33.2096 58.4863C33.2096 59.2526 32.9518 59.8846 32.4362 60.3823C31.917 60.8836 31.2599 61.1343 30.465 61.1343ZM30.4543 60.2749C30.9484 60.2749 31.3673 60.1048 31.7111 59.7646C32.0548 59.4245 32.2267 59.0091 32.2267 58.5186C32.2267 58.0101 32.062 57.5929 31.7326 57.2671C31.4032 56.9377 30.9824 56.7729 30.4704 56.7729C29.9583 56.7729 29.5322 56.9359 29.1921 57.2617C28.8555 57.5876 28.6872 57.9976 28.6872 58.4917C28.6872 58.9894 28.8573 59.4102 29.1974 59.7539C29.5412 60.1012 29.9601 60.2749 30.4543 60.2749ZM36.9587 61.1289C36.0599 61.1289 35.3581 60.7673 34.8532 60.0439C34.3519 59.3314 34.1012 58.3574 34.1012 57.1221C34.1012 55.8975 34.3519 54.9271 34.8532 54.2109C35.3652 53.484 36.0671 53.1206 36.9587 53.1206C37.8503 53.1206 38.5503 53.4823 39.0588 54.2056C39.5565 54.9181 39.8053 55.8885 39.8053 57.1167C39.8053 58.3521 39.5565 59.326 39.0588 60.0386C38.5539 60.7655 37.8538 61.1289 36.9587 61.1289ZM36.9587 60.2856C37.5566 60.2856 38.0203 59.9992 38.3498 59.4263C38.672 58.8713 38.8332 58.1032 38.8332 57.1221C38.8332 56.1553 38.6702 55.3908 38.3444 54.8286C38.0114 54.2557 37.5495 53.9692 36.9587 53.9692C36.3678 53.9692 35.9041 54.2575 35.5675 54.834C35.2381 55.3962 35.0734 56.1571 35.0734 57.1167C35.0734 58.0978 35.2363 58.8677 35.5622 59.4263C35.8952 59.9992 36.3607 60.2856 36.9587 60.2856Z" fill="#747D88"/>
<path d="M87.8877 480.484C87.8877 479.807 88.1312 479.243 88.6182 478.792C89.1051 478.344 89.7139 478.121 90.4443 478.121C91.1354 478.121 91.7209 478.326 92.2007 478.738C92.6805 479.15 92.9204 479.653 92.9204 480.248C92.9204 480.677 92.8005 481.093 92.5605 481.494C92.3278 481.888 91.8856 482.421 91.2339 483.094L89.2734 485.119V485.141H93.0493V486H87.936V485.334L90.6646 482.46C91.1838 481.913 91.5293 481.497 91.7012 481.214C91.8695 480.931 91.9536 480.629 91.9536 480.307C91.9536 479.934 91.805 479.617 91.5078 479.356C91.207 479.095 90.8436 478.964 90.4175 478.964C89.9627 478.964 89.5832 479.109 89.2788 479.399C88.9744 479.689 88.8223 480.051 88.8223 480.484V480.489H87.8877V480.484ZM96.8789 486.129C95.9801 486.129 95.2783 485.767 94.7734 485.044C94.2721 484.331 94.0215 483.357 94.0215 482.122C94.0215 480.897 94.2721 479.927 94.7734 479.211C95.2855 478.484 95.9873 478.121 96.8789 478.121C97.7705 478.121 98.4705 478.482 98.979 479.206C99.4767 479.918 99.7256 480.889 99.7256 482.117C99.7256 483.352 99.4767 484.326 98.979 485.039C98.4741 485.765 97.7741 486.129 96.8789 486.129ZM96.8789 485.286C97.4769 485.286 97.9406 484.999 98.27 484.426C98.5923 483.871 98.7534 483.103 98.7534 482.122C98.7534 481.155 98.5905 480.391 98.2646 479.829C97.9316 479.256 97.4697 478.969 96.8789 478.969C96.2881 478.969 95.8244 479.257 95.4878 479.834C95.1584 480.396 94.9937 481.157 94.9937 482.117C94.9937 483.098 95.1566 483.868 95.4824 484.426C95.8154 484.999 96.2809 485.286 96.8789 485.286ZM102.707 479.275H102.685L100.633 480.752V479.732L102.696 478.25H103.641V486H102.707V479.275ZM108.072 486.129C107.413 486.129 106.849 485.946 106.38 485.581C105.911 485.216 105.618 484.729 105.5 484.12H106.482C106.586 484.471 106.783 484.754 107.073 484.969C107.363 485.18 107.7 485.286 108.083 485.286C108.728 485.286 109.229 485.005 109.587 484.442C109.941 483.884 110.126 483.089 110.14 482.058H110.124C109.959 482.441 109.682 482.749 109.292 482.981C108.898 483.211 108.454 483.325 107.959 483.325C107.222 483.325 106.608 483.082 106.117 482.595C105.63 482.108 105.387 481.497 105.387 480.763C105.387 479.997 105.646 479.365 106.166 478.867C106.681 478.366 107.336 478.115 108.131 478.115C108.715 478.115 109.229 478.266 109.673 478.566C110.117 478.871 110.457 479.3 110.693 479.855C110.948 480.443 111.075 481.155 111.075 481.993C111.075 483.3 110.812 484.315 110.285 485.039C109.759 485.765 109.021 486.129 108.072 486.129ZM108.126 482.477C108.638 482.477 109.064 482.314 109.404 481.988C109.744 481.662 109.915 481.252 109.915 480.758C109.915 480.26 109.744 479.841 109.404 479.501C109.061 479.157 108.64 478.985 108.142 478.985C107.644 478.985 107.224 479.155 106.88 479.496C106.536 479.832 106.364 480.244 106.364 480.731C106.364 481.236 106.531 481.653 106.864 481.982C107.197 482.312 107.618 482.477 108.126 482.477Z" fill="#747D88"/>
<path d="M192.668 480.484C192.668 479.807 192.911 479.243 193.398 478.792C193.885 478.344 194.494 478.121 195.225 478.121C195.916 478.121 196.501 478.326 196.981 478.738C197.461 479.15 197.701 479.653 197.701 480.248C197.701 480.677 197.581 481.093 197.341 481.494C197.108 481.888 196.666 482.421 196.014 483.094L194.054 485.119V485.141H197.83V486H192.716V485.334L195.445 482.46C195.964 481.913 196.31 481.497 196.481 481.214C196.65 480.931 196.734 480.629 196.734 480.307C196.734 479.934 196.585 479.617 196.288 479.356C195.987 479.095 195.624 478.964 195.198 478.964C194.743 478.964 194.363 479.109 194.059 479.399C193.755 479.689 193.603 480.051 193.603 480.484V480.489H192.668V480.484ZM201.659 486.129C200.76 486.129 200.059 485.767 199.554 485.044C199.052 484.331 198.802 483.357 198.802 482.122C198.802 480.897 199.052 479.927 199.554 479.211C200.066 478.484 200.768 478.121 201.659 478.121C202.551 478.121 203.251 478.482 203.759 479.206C204.257 479.918 204.506 480.889 204.506 482.117C204.506 483.352 204.257 484.326 203.759 485.039C203.254 485.765 202.554 486.129 201.659 486.129ZM201.659 485.286C202.257 485.286 202.721 484.999 203.05 484.426C203.373 483.871 203.534 483.103 203.534 482.122C203.534 481.155 203.371 480.391 203.045 479.829C202.712 479.256 202.25 478.969 201.659 478.969C201.068 478.969 200.605 479.257 200.268 479.834C199.939 480.396 199.774 481.157 199.774 482.117C199.774 483.098 199.937 483.868 200.263 484.426C200.596 484.999 201.061 485.286 201.659 485.286ZM205.462 480.484C205.462 479.807 205.705 479.243 206.192 478.792C206.679 478.344 207.288 478.121 208.019 478.121C208.71 478.121 209.295 478.326 209.775 478.738C210.255 479.15 210.495 479.653 210.495 480.248C210.495 480.677 210.375 481.093 210.135 481.494C209.902 481.888 209.46 482.421 208.808 483.094L206.848 485.119V485.141H210.624V486H205.51V485.334L208.239 482.46C208.758 481.913 209.104 481.497 209.275 481.214C209.444 480.931 209.528 480.629 209.528 480.307C209.528 479.934 209.379 479.617 209.082 479.356C208.781 479.095 208.418 478.964 207.992 478.964C207.537 478.964 207.157 479.109 206.853 479.399C206.549 479.689 206.396 480.051 206.396 480.484V480.489H205.462V480.484ZM214.453 486.129C213.554 486.129 212.853 485.767 212.348 485.044C211.846 484.331 211.596 483.357 211.596 482.122C211.596 480.897 211.846 479.927 212.348 479.211C212.86 478.484 213.562 478.121 214.453 478.121C215.345 478.121 216.045 478.482 216.553 479.206C217.051 479.918 217.3 480.889 217.3 482.117C217.3 483.352 217.051 484.326 216.553 485.039C216.048 485.765 215.348 486.129 214.453 486.129ZM214.453 485.286C215.051 485.286 215.515 484.999 215.844 484.426C216.167 483.871 216.328 483.103 216.328 482.122C216.328 481.155 216.165 480.391 215.839 479.829C215.506 479.256 215.044 478.969 214.453 478.969C213.862 478.969 213.399 479.257 213.062 479.834C212.733 480.396 212.568 481.157 212.568 482.117C212.568 483.098 212.731 483.868 213.057 484.426C213.39 484.999 213.855 485.286 214.453 485.286Z" fill="#747D88"/>
<path d="M298.565 480.484C298.565 479.807 298.808 479.243 299.295 478.792C299.782 478.344 300.391 478.121 301.122 478.121C301.813 478.121 302.398 478.326 302.878 478.738C303.358 479.15 303.598 479.653 303.598 480.248C303.598 480.677 303.478 481.093 303.238 481.494C303.005 481.888 302.563 482.421 301.911 483.094L299.951 485.119V485.141H303.727V486H298.613V485.334L301.342 482.46C301.861 481.913 302.207 481.497 302.378 481.214C302.547 480.931 302.631 480.629 302.631 480.307C302.631 479.934 302.482 479.617 302.185 479.356C301.884 479.095 301.521 478.964 301.095 478.964C300.64 478.964 300.26 479.109 299.956 479.399C299.652 479.689 299.5 480.051 299.5 480.484V480.489H298.565V480.484ZM307.556 486.129C306.657 486.129 305.956 485.767 305.451 485.044C304.949 484.331 304.699 483.357 304.699 482.122C304.699 480.897 304.949 479.927 305.451 479.211C305.963 478.484 306.665 478.121 307.556 478.121C308.448 478.121 309.148 478.482 309.656 479.206C310.154 479.918 310.403 480.889 310.403 482.117C310.403 483.352 310.154 484.326 309.656 485.039C309.151 485.765 308.451 486.129 307.556 486.129ZM307.556 485.286C308.154 485.286 308.618 484.999 308.947 484.426C309.27 483.871 309.431 483.103 309.431 482.122C309.431 481.155 309.268 480.391 308.942 479.829C308.609 479.256 308.147 478.969 307.556 478.969C306.965 478.969 306.502 479.257 306.165 479.834C305.836 480.396 305.671 481.157 305.671 482.117C305.671 483.098 305.834 483.868 306.16 484.426C306.493 484.999 306.958 485.286 307.556 485.286ZM311.359 480.484C311.359 479.807 311.602 479.243 312.089 478.792C312.576 478.344 313.185 478.121 313.916 478.121C314.607 478.121 315.192 478.326 315.672 478.738C316.152 479.15 316.392 479.653 316.392 480.248C316.392 480.677 316.272 481.093 316.032 481.494C315.799 481.888 315.357 482.421 314.705 483.094L312.745 485.119V485.141H316.521V486H311.407V485.334L314.136 482.46C314.655 481.913 315 481.497 315.172 481.214C315.341 480.931 315.425 480.629 315.425 480.307C315.425 479.934 315.276 479.617 314.979 479.356C314.678 479.095 314.315 478.964 313.889 478.964C313.434 478.964 313.054 479.109 312.75 479.399C312.446 479.689 312.293 480.051 312.293 480.484V480.489H311.359V480.484ZM319.614 479.275H319.593L317.541 480.752V479.732L319.604 478.25H320.549V486H319.614V479.275Z" fill="#747D88"/>
<path d="M402.888 480.484C402.888 479.807 403.132 479.243 403.619 478.792C404.106 478.344 404.714 478.121 405.445 478.121C406.136 478.121 406.721 478.326 407.201 478.738C407.681 479.15 407.921 479.653 407.921 480.248C407.921 480.677 407.801 481.093 407.561 481.494C407.328 481.888 406.886 482.421 406.234 483.094L404.274 485.119V485.141H408.05V486H402.937V485.334L405.665 482.46C406.184 481.913 406.53 481.497 406.702 481.214C406.87 480.931 406.954 480.629 406.954 480.307C406.954 479.934 406.806 479.617 406.508 479.356C406.208 479.095 405.844 478.964 405.418 478.964C404.963 478.964 404.584 479.109 404.279 479.399C403.975 479.689 403.823 480.051 403.823 480.484V480.489H402.888V480.484ZM411.879 486.129C410.981 486.129 410.279 485.767 409.774 485.044C409.273 484.331 409.022 483.357 409.022 482.122C409.022 480.897 409.273 479.927 409.774 479.211C410.286 478.484 410.988 478.121 411.879 478.121C412.771 478.121 413.471 478.482 413.979 479.206C414.477 479.918 414.726 480.889 414.726 482.117C414.726 483.352 414.477 484.326 413.979 485.039C413.475 485.765 412.775 486.129 411.879 486.129ZM411.879 485.286C412.477 485.286 412.941 484.999 413.271 484.426C413.593 483.871 413.754 483.103 413.754 482.122C413.754 481.155 413.591 480.391 413.265 479.829C412.932 479.256 412.47 478.969 411.879 478.969C411.289 478.969 410.825 479.257 410.488 479.834C410.159 480.396 409.994 481.157 409.994 482.117C409.994 483.098 410.157 483.868 410.483 484.426C410.816 484.999 411.281 485.286 411.879 485.286ZM415.682 480.484C415.682 479.807 415.926 479.243 416.413 478.792C416.9 478.344 417.508 478.121 418.239 478.121C418.93 478.121 419.515 478.326 419.995 478.738C420.475 479.15 420.715 479.653 420.715 480.248C420.715 480.677 420.595 481.093 420.355 481.494C420.122 481.888 419.68 482.421 419.028 483.094L417.068 485.119V485.141H420.844V486H415.73V485.334L418.459 482.46C418.978 481.913 419.324 481.497 419.496 481.214C419.664 480.931 419.748 480.629 419.748 480.307C419.748 479.934 419.599 479.617 419.302 479.356C419.001 479.095 418.638 478.964 418.212 478.964C417.757 478.964 417.378 479.109 417.073 479.399C416.769 479.689 416.617 480.051 416.617 480.484V480.489H415.682V480.484ZM421.913 480.484C421.913 479.807 422.156 479.243 422.643 478.792C423.13 478.344 423.739 478.121 424.469 478.121C425.16 478.121 425.746 478.326 426.226 478.738C426.705 479.15 426.945 479.653 426.945 480.248C426.945 480.677 426.825 481.093 426.585 481.494C426.353 481.888 425.91 482.421 425.259 483.094L423.298 485.119V485.141H427.074V486H421.961V485.334L424.689 482.46C425.209 481.913 425.554 481.497 425.726 481.214C425.894 480.931 425.979 480.629 425.979 480.307C425.979 479.934 425.83 479.617 425.533 479.356C425.232 479.095 424.868 478.964 424.442 478.964C423.988 478.964 423.608 479.109 423.304 479.399C422.999 479.689 422.847 480.051 422.847 480.484V480.489H421.913V480.484Z" fill="#747D88"/>
<path d="M508.749 480.484C508.749 479.807 508.992 479.243 509.479 478.792C509.966 478.344 510.575 478.121 511.305 478.121C511.996 478.121 512.582 478.326 513.062 478.738C513.541 479.15 513.781 479.653 513.781 480.248C513.781 480.677 513.661 481.093 513.421 481.494C513.189 481.888 512.746 482.421 512.095 483.094L510.134 485.119V485.141H513.91V486H508.797V485.334L511.525 482.46C512.045 481.913 512.39 481.497 512.562 481.214C512.73 480.931 512.814 480.629 512.814 480.307C512.814 479.934 512.666 479.617 512.369 479.356C512.068 479.095 511.704 478.964 511.278 478.964C510.824 478.964 510.444 479.109 510.14 479.399C509.835 479.689 509.683 480.051 509.683 480.484V480.489H508.749V480.484ZM517.74 486.129C516.841 486.129 516.139 485.767 515.634 485.044C515.133 484.331 514.882 483.357 514.882 482.122C514.882 480.897 515.133 479.927 515.634 479.211C516.146 478.484 516.848 478.121 517.74 478.121C518.631 478.121 519.331 478.482 519.84 479.206C520.338 479.918 520.586 480.889 520.586 482.117C520.586 483.352 520.338 484.326 519.84 485.039C519.335 485.765 518.635 486.129 517.74 486.129ZM517.74 485.286C518.338 485.286 518.801 484.999 519.131 484.426C519.453 483.871 519.614 483.103 519.614 482.122C519.614 481.155 519.451 480.391 519.125 479.829C518.792 479.256 518.331 478.969 517.74 478.969C517.149 478.969 516.685 479.257 516.349 479.834C516.019 480.396 515.854 481.157 515.854 482.117C515.854 483.098 516.017 483.868 516.343 484.426C516.676 484.999 517.142 485.286 517.74 485.286ZM521.542 480.484C521.542 479.807 521.786 479.243 522.273 478.792C522.76 478.344 523.369 478.121 524.099 478.121C524.79 478.121 525.376 478.326 525.855 478.738C526.335 479.15 526.575 479.653 526.575 480.248C526.575 480.677 526.455 481.093 526.215 481.494C525.983 481.888 525.54 482.421 524.889 483.094L522.928 485.119V485.141H526.704V486H521.591V485.334L524.319 482.46C524.839 481.913 525.184 481.497 525.356 481.214C525.524 480.931 525.608 480.629 525.608 480.307C525.608 479.934 525.46 479.617 525.163 479.356C524.862 479.095 524.498 478.964 524.072 478.964C523.618 478.964 523.238 479.109 522.934 479.399C522.629 479.689 522.477 480.051 522.477 480.484V480.489H521.542V480.484ZM529.4 481.606H530.33C530.774 481.606 531.137 481.478 531.42 481.22C531.703 480.965 531.844 480.641 531.844 480.248C531.844 479.854 531.717 479.542 531.463 479.313C531.194 479.077 530.82 478.958 530.34 478.958C529.896 478.958 529.535 479.077 529.255 479.313C528.976 479.549 528.815 479.872 528.772 480.28H527.843C527.896 479.621 528.151 479.096 528.605 478.706C529.064 478.316 529.656 478.121 530.383 478.121C531.082 478.121 531.66 478.309 532.118 478.685C532.584 479.061 532.816 479.539 532.816 480.119C532.816 480.602 532.673 481.008 532.387 481.338C532.1 481.667 531.714 481.875 531.227 481.961V481.982C531.814 482.018 532.281 482.204 532.628 482.541C532.976 482.881 533.149 483.323 533.149 483.868C533.149 484.527 532.884 485.069 532.354 485.495C531.832 485.918 531.185 486.129 530.416 486.129C529.613 486.129 528.965 485.927 528.471 485.522C527.984 485.125 527.723 484.6 527.687 483.948H528.616C528.659 484.353 528.838 484.675 529.153 484.915C529.476 485.166 529.893 485.291 530.405 485.291C530.917 485.291 531.339 485.16 531.672 484.899C532.002 484.638 532.167 484.305 532.167 483.9C532.167 483.445 532.005 483.085 531.683 482.82C531.364 482.555 530.928 482.423 530.373 482.423H529.4V481.606Z" fill="#747D88"/>
<path d="M614.808 480.484C614.808 479.807 615.051 479.243 615.538 478.792C616.025 478.344 616.634 478.121 617.364 478.121C618.055 478.121 618.641 478.326 619.121 478.738C619.6 479.15 619.84 479.653 619.84 480.248C619.84 480.677 619.72 481.093 619.48 481.494C619.248 481.888 618.806 482.421 618.154 483.094L616.193 485.119V485.141H619.969V486H614.856V485.334L617.584 482.46C618.104 481.913 618.449 481.497 618.621 481.214C618.789 480.931 618.874 480.629 618.874 480.307C618.874 479.934 618.725 479.617 618.428 479.356C618.127 479.095 617.764 478.964 617.337 478.964C616.883 478.964 616.503 479.109 616.199 479.399C615.894 479.689 615.742 480.051 615.742 480.484V480.489H614.808V480.484ZM623.799 486.129C622.9 486.129 622.198 485.767 621.693 485.044C621.192 484.331 620.941 483.357 620.941 482.122C620.941 480.897 621.192 479.927 621.693 479.211C622.205 478.484 622.907 478.121 623.799 478.121C624.69 478.121 625.39 478.482 625.899 479.206C626.397 479.918 626.646 480.889 626.646 482.117C626.646 483.352 626.397 484.326 625.899 485.039C625.394 485.765 624.694 486.129 623.799 486.129ZM623.799 485.286C624.397 485.286 624.861 484.999 625.19 484.426C625.512 483.871 625.673 483.103 625.673 482.122C625.673 481.155 625.51 480.391 625.185 479.829C624.852 479.256 624.39 478.969 623.799 478.969C623.208 478.969 622.744 479.257 622.408 479.834C622.078 480.396 621.914 481.157 621.914 482.117C621.914 483.098 622.076 483.868 622.402 484.426C622.735 484.999 623.201 485.286 623.799 485.286ZM627.602 480.484C627.602 479.807 627.845 479.243 628.332 478.792C628.819 478.344 629.428 478.121 630.158 478.121C630.849 478.121 631.435 478.326 631.915 478.738C632.394 479.15 632.634 479.653 632.634 480.248C632.634 480.677 632.514 481.093 632.274 481.494C632.042 481.888 631.599 482.421 630.948 483.094L628.987 485.119V485.141H632.763V486H627.65V485.334L630.378 482.46C630.898 481.913 631.243 481.497 631.415 481.214C631.583 480.931 631.667 480.629 631.667 480.307C631.667 479.934 631.519 479.617 631.222 479.356C630.921 479.095 630.557 478.964 630.131 478.964C629.677 478.964 629.297 479.109 628.993 479.399C628.688 479.689 628.536 480.051 628.536 480.484V480.489H627.602V480.484ZM637.296 484.389H633.402V483.513C634.018 482.371 635.152 480.616 636.802 478.25H638.231V483.54H639.327V484.389H638.231V486H637.296V484.389ZM634.358 483.54H637.296V479.055H637.28C635.923 480.992 634.949 482.48 634.358 483.519V483.54Z" fill="#747D88"/>
<path d="M720.786 480.484C720.786 479.807 721.03 479.243 721.517 478.792C722.004 478.344 722.612 478.121 723.343 478.121C724.034 478.121 724.619 478.326 725.099 478.738C725.579 479.15 725.819 479.653 725.819 480.248C725.819 480.677 725.699 481.093 725.459 481.494C725.226 481.888 724.784 482.421 724.132 483.094L722.172 485.119V485.141H725.948V486H720.834V485.334L723.563 482.46C724.082 481.913 724.428 481.497 724.6 481.214C724.768 480.931 724.852 480.629 724.852 480.307C724.852 479.934 724.703 479.617 724.406 479.356C724.105 479.095 723.742 478.964 723.316 478.964C722.861 478.964 722.482 479.109 722.177 479.399C721.873 479.689 721.721 480.051 721.721 480.484V480.489H720.786V480.484ZM729.777 486.129C728.879 486.129 728.177 485.767 727.672 485.044C727.171 484.331 726.92 483.357 726.92 482.122C726.92 480.897 727.171 479.927 727.672 479.211C728.184 478.484 728.886 478.121 729.777 478.121C730.669 478.121 731.369 478.482 731.877 479.206C732.375 479.918 732.624 480.889 732.624 482.117C732.624 483.352 732.375 484.326 731.877 485.039C731.373 485.765 730.673 486.129 729.777 486.129ZM729.777 485.286C730.375 485.286 730.839 484.999 731.168 484.426C731.491 483.871 731.652 483.103 731.652 482.122C731.652 481.155 731.489 480.391 731.163 479.829C730.83 479.256 730.368 478.969 729.777 478.969C729.187 478.969 728.723 479.257 728.386 479.834C728.057 480.396 727.892 481.157 727.892 482.117C727.892 483.098 728.055 483.868 728.381 484.426C728.714 484.999 729.179 485.286 729.777 485.286ZM733.58 480.484C733.58 479.807 733.824 479.243 734.311 478.792C734.798 478.344 735.406 478.121 736.137 478.121C736.828 478.121 737.413 478.326 737.893 478.738C738.373 479.15 738.613 479.653 738.613 480.248C738.613 480.677 738.493 481.093 738.253 481.494C738.02 481.888 737.578 482.421 736.926 483.094L734.966 485.119V485.141H738.742V486H733.628V485.334L736.357 482.46C736.876 481.913 737.222 481.497 737.394 481.214C737.562 480.931 737.646 480.629 737.646 480.307C737.646 479.934 737.497 479.617 737.2 479.356C736.899 479.095 736.536 478.964 736.11 478.964C735.655 478.964 735.276 479.109 734.971 479.399C734.667 479.689 734.515 480.051 734.515 480.484V480.489H733.58V480.484ZM742.523 486.129C741.782 486.129 741.164 485.919 740.67 485.5C740.172 485.082 739.904 484.543 739.864 483.884H740.815C740.858 484.296 741.039 484.632 741.357 484.894C741.676 485.151 742.068 485.28 742.534 485.28C743.06 485.28 743.49 485.116 743.823 484.786C744.152 484.457 744.317 484.031 744.317 483.508C744.317 482.985 744.152 482.557 743.823 482.224C743.49 481.888 743.065 481.719 742.55 481.719C741.784 481.719 741.23 482.009 740.89 482.589H739.982L740.407 478.25H744.843V479.109H741.202L740.965 481.633H740.987C741.359 481.136 741.938 480.887 742.722 480.887C743.466 480.887 744.079 481.13 744.559 481.617C745.042 482.108 745.284 482.729 745.284 483.481C745.284 484.258 745.026 484.894 744.51 485.388C743.995 485.882 743.332 486.129 742.523 486.129Z" fill="#747D88"/>
<path d="M88 448H838V449H88V448Z" fill="#525252"/>
<path d="M88 383H838V384H88V383Z" fill="#525252"/>
<path d="M88 318H838V319H88V318Z" fill="#525252"/>
<path d="M88 253H838V254H88V253Z" fill="#525252"/>
<path d="M88 188H838V189H88V188Z" fill="#525252"/>
<path d="M88 123H838V124H88V123Z" fill="#525252"/>
<path d="M88 58H838V59H88V58Z" fill="#525252"/>
<path d="M195.844 219.958L87.8438 340.567V449H838.634V60.9798L723.345 295.606L617.739 157.904L511.476 359.025L405.976 295.606L300.923 389.575L195.844 219.958Z" fill="url(#paint0_linear)" fill-opacity="0.3"/>
<g filter="url(#filter0_d)">
<path d="M90.8438 337.567L195.844 219.958L300.923 389.575L405.976 295.606L511.476 359.025L617.739 157.904L723.345 295.606L838.634 60.9798" stroke="#088CCE"/>
</g>
<circle cx="88" cy="339.135" r="3.5" fill="white" stroke="#088CCE"/>
<circle cx="196.049" cy="220.254" r="3.5" fill="white" stroke="#088CCE"/>
<circle cx="301.138" cy="388.731" r="3.5" fill="white" stroke="#088CCE"/>
<circle cx="406.214" cy="296.226" r="3.5" fill="white" stroke="#088CCE"/>
<circle cx="511.771" cy="358.563" r="3.5" fill="white" stroke="#088CCE"/>
<circle cx="618.067" cy="157.865" r="3.5" fill="white" stroke="#088CCE"/>
<circle cx="723.676" cy="295.278" r="3.5" fill="white" stroke="#088CCE"/>
<circle cx="839.037" cy="62.4648" r="3.5" fill="white" stroke="#088CCE"/>
<path d="M195.844 309.958L87.8438 380.567V449H838.634V150.98L723.345 265.606L617.739 237.904L511.476 279.025L405.976 225.606L300.923 339.575L195.844 309.958Z" fill="url(#paint1_linear)" fill-opacity="0.3"/>
<g filter="url(#filter1_d)">
<path d="M90.8438 377.567L195.844 309.958L300.923 339.575L405.976 225.606L511.476 279.025L617.739 237.904L723.345 265.606L838.634 150.98" stroke="#FFD500"/>
</g>
<circle cx="88" cy="379.135" r="3.5" fill="white" stroke="#FFD500"/>
<circle cx="196.049" cy="310.254" r="3.5" fill="white" stroke="#FFD500"/>
<circle cx="301.138" cy="338.731" r="3.5" fill="white" stroke="#FFD500"/>
<circle cx="406.214" cy="226.226" r="3.5" fill="white" stroke="#FFD500"/>
<circle cx="511.771" cy="278.563" r="3.5" fill="white" stroke="#FFD500"/>
<circle cx="618.067" cy="237.865" r="3.5" fill="white" stroke="#FFD500"/>
<circle cx="723.676" cy="265.278" r="3.5" fill="white" stroke="#FFD500"/>
<circle cx="839.037" cy="152.465" r="3.5" fill="white" stroke="#FFD500"/>
<path d="M195.844 279.958L87.8438 300.567V449H838.634V200.98L723.345 225.606L617.739 277.903L511.476 209.025L405.976 265.606L300.923 299.575L195.844 279.958Z" fill="url(#paint2_linear)" fill-opacity="0.3"/>
<g filter="url(#filter2_d)">
<path d="M90.8438 297.567L195.844 279.958L300.923 299.575L405.976 265.606L511.476 209.025L617.739 277.903L723.345 225.606L838.634 200.98" stroke="#DC1C1C"/>
</g>
<circle cx="88" cy="299.135" r="3.5" fill="white" stroke="#DC1C1C"/>
<circle cx="196.049" cy="280.254" r="3.5" fill="white" stroke="#DC1C1C"/>
<circle cx="301.138" cy="298.731" r="3.5" fill="white" stroke="#DC1C1C"/>
<circle cx="406.214" cy="266.226" r="3.5" fill="white" stroke="#DC1C1C"/>
<circle cx="511.771" cy="208.563" r="3.5" fill="white" stroke="#DC1C1C"/>
<circle cx="618.067" cy="277.865" r="3.5" fill="white" stroke="#DC1C1C"/>
<circle cx="723.676" cy="225.278" r="3.5" fill="white" stroke="#DC1C1C"/>
<circle cx="839.037" cy="202.465" r="3.5" fill="white" stroke="#DC1C1C"/>
</g>
<defs>
<filter id="filter0_d" x="85.4707" y="60.7592" width="758.612" height="339.586" filterUnits="userSpaceOnUse" color-interpolation-filters="sRGB">
<feFlood flood-opacity="0" result="BackgroundImageFix"/>
<feColorMatrix in="SourceAlpha" type="matrix" values="0 0 0 0 0 0 0 0 0 0 0 0 0 0 0 0 0 0 127 0"/>
<feOffset dy="5"/>
<feGaussianBlur stdDeviation="2.5"/>
<feColorMatrix type="matrix" values="0 0 0 0 0.0313726 0 0 0 0 0.54902 0 0 0 0 0.807843 0 0 0 1 0"/>
<feBlend mode="normal" in2="BackgroundImageFix" result="effect1_dropShadow"/>
<feBlend mode="normal" in="SourceGraphic" in2="effect1_dropShadow" result="shape"/>
</filter>
<filter id="filter1_d" x="85.5732" y="150.625" width="758.414" height="237.362" filterUnits="userSpaceOnUse" color-interpolation-filters="sRGB">
<feFlood flood-opacity="0" result="BackgroundImageFix"/>
<feColorMatrix in="SourceAlpha" type="matrix" values="0 0 0 0 0 0 0 0 0 0 0 0 0 0 0 0 0 0 127 0"/>
<feOffset dy="5"/>
<feGaussianBlur stdDeviation="2.5"/>
<feColorMatrix type="matrix" values="0 0 0 0 1 0 0 0 0 0.835294 0 0 0 0 0 0 0 0 1 0"/>
<feBlend mode="normal" in2="BackgroundImageFix" result="effect1_dropShadow"/>
<feBlend mode="normal" in="SourceGraphic" in2="effect1_dropShadow" result="shape"/>
</filter>
<filter id="filter2_d" x="85.7612" y="200.491" width="757.978" height="109.599" filterUnits="userSpaceOnUse" color-interpolation-filters="sRGB">
<feFlood flood-opacity="0" result="BackgroundImageFix"/>
<feColorMatrix in="SourceAlpha" type="matrix" values="0 0 0 0 0 0 0 0 0 0 0 0 0 0 0 0 0 0 127 0"/>
<feOffset dy="5"/>
<feGaussianBlur stdDeviation="2.5"/>
<feColorMatrix type="matrix" values="0 0 0 0 0.862745 0 0 0 0 0.109804 0 0 0 0 0.109804 0 0 0 1 0"/>
<feBlend mode="normal" in2="BackgroundImageFix" result="effect1_dropShadow"/>
<feBlend mode="normal" in="SourceGraphic" in2="effect1_dropShadow" result="shape"/>
</filter>
<linearGradient id="paint0_linear" x1="1572.31" y1="-64.312" x2="1572.31" y2="561" gradientUnits="userSpaceOnUse">
<stop stop-color="#088CCE"/>
<stop offset="1" stop-color="#007AFF" stop-opacity="0"/>
</linearGradient>
<linearGradient id="paint1_linear" x1="1572.31" y1="-64.312" x2="1572.31" y2="561" gradientUnits="userSpaceOnUse">
<stop stop-color="#FFD500"/>
<stop offset="1" stop-color="#007AFF" stop-opacity="0"/>
</linearGradient>
<linearGradient id="paint2_linear" x1="1572.31" y1="-64.312" x2="1572.31" y2="561" gradientUnits="userSpaceOnUse">
<stop stop-color="#DC1C1C"/>
<stop offset="1" stop-color="#DC1C1C" stop-opacity="0"/>
</linearGradient>
</defs>
</svg>
