<svg width="107" height="307" viewBox="0 0 107 307" fill="none" xmlns="http://www.w3.org/2000/svg">
<path d="M100.597 3.84234C100.597 3.0317 100.921 2.38311 101.407 1.89672C101.893 1.41033 102.704 1.08612 103.352 1.08612C104.162 1.08612 104.811 1.41033 105.297 1.89672C105.783 2.38311 106.107 3.0317 106.107 3.84234C106.107 4.65298 105.783 5.30139 105.297 5.78778C104.811 6.27417 104 6.59838 103.352 6.59838C101.893 6.59838 100.597 5.30148 100.597 3.84234Z" fill="#FFEF9F"/>
<path d="M50.5968 3.70947C50.5968 2.89883 50.9209 2.2503 51.4072 1.76391C51.8934 1.27752 52.7037 0.953245 53.352 0.953245C54.1624 0.953245 54.8107 1.27752 55.2969 1.76391C55.7831 2.2503 56.1073 2.89883 56.1073 3.70947C56.1073 4.52011 55.7831 5.16852 55.2969 5.6549C54.8107 6.14129 54.0003 6.46557 53.352 6.46557C51.8934 6.46557 50.5968 5.16861 50.5968 3.70947Z" fill="#FFEF9F"/>
<path d="M25.5968 3.64307C25.5968 2.83243 25.921 2.18384 26.4072 1.69745C26.8934 1.21106 27.7038 0.88684 28.3521 0.88684C29.1625 0.88684 29.8108 1.21106 30.297 1.69745C30.7832 2.18384 31.1073 2.83243 31.1073 3.64307C31.1073 4.4537 30.7832 5.10211 30.297 5.5885C29.8108 6.07489 29.0004 6.39917 28.3521 6.39917C26.8934 6.39917 25.5968 5.1022 25.5968 3.64307Z" fill="#FFEF9F"/>
<path d="M0.597093 3.57666C0.597093 2.76602 0.921238 2.11743 1.40746 1.63104C1.89367 1.14465 2.70405 0.820434 3.35234 0.820434C4.16271 0.820434 4.81104 1.14465 5.29726 1.63104C5.78348 2.11743 6.10762 2.76602 6.10762 3.57666C6.10762 4.3873 5.78348 5.03571 5.29726 5.52209C4.81104 6.00848 4.00063 6.33276 3.35234 6.33276C1.89369 6.33276 0.597093 5.0358 0.597093 3.57666Z" fill="#FFEF9F"/>
<path d="M75.5965 3.77594C75.5965 2.9653 75.9206 2.31671 76.4068 1.83032C76.8931 1.34393 77.7034 1.01971 78.3517 1.01971C79.1621 1.01971 79.8104 1.34393 80.2966 1.83032C80.7828 2.31671 81.107 2.9653 81.107 3.77594C81.107 4.58657 80.7828 5.23498 80.2966 5.72137C79.8104 6.20776 79 6.53198 78.3517 6.53198C76.8931 6.53198 75.5965 5.23507 75.5965 3.77594Z" fill="#FFEF9F"/>
<path d="M0.597093 3.57666C0.597093 2.76602 0.921238 2.11743 1.40746 1.63104C1.89367 1.14465 2.70405 0.820434 3.35234 0.820434C4.16271 0.820434 4.81104 1.14465 5.29726 1.63104C5.78348 2.11743 6.10762 2.76602 6.10762 3.57666C6.10762 4.3873 5.78348 5.03571 5.29726 5.52209C4.81104 6.00848 4.00063 6.33276 3.35234 6.33276C1.89369 6.33276 0.597093 5.0358 0.597093 3.57666Z" fill="#FFEF9F"/>
<path d="M100.53 28.8423C100.53 28.0316 100.855 27.3831 101.341 26.8967C101.827 26.4103 102.637 26.0861 103.286 26.0861C104.096 26.0861 104.744 26.4103 105.231 26.8967C105.717 27.3831 106.041 28.0316 106.041 28.8423C106.041 29.6529 105.717 30.3013 105.231 30.7877C104.744 31.2741 103.934 31.5983 103.286 31.5983C101.827 31.5983 100.53 30.3014 100.53 28.8423Z" fill="#FFEF9F"/>
<path d="M50.5304 28.7094C50.5304 27.8988 50.8545 27.2502 51.3407 26.7638C51.827 26.2774 52.6373 25.9532 53.2856 25.9532C54.096 25.9532 54.7443 26.2774 55.2305 26.7638C55.7167 27.2502 56.0409 27.8988 56.0409 28.7094C56.0409 29.52 55.7167 30.1685 55.2305 30.6548C54.7443 31.1412 53.9339 31.4655 53.2856 31.4655C51.827 31.4655 50.5304 30.1685 50.5304 28.7094Z" fill="#FFEF9F"/>
<path d="M25.5304 28.643C25.5304 27.8324 25.8546 27.1838 26.3408 26.6974C26.827 26.211 27.6374 25.8868 28.2857 25.8868C29.0961 25.8868 29.7444 26.211 30.2306 26.6974C30.7168 27.1838 31.0409 27.8324 31.0409 28.643C31.0409 29.4536 30.7168 30.102 30.2306 30.5884C29.7444 31.0748 28.934 31.399 28.2857 31.399C26.827 31.399 25.5304 30.1021 25.5304 28.643Z" fill="#FFEF9F"/>
<path d="M0.530687 28.5766C0.530687 27.766 0.854833 27.1174 1.34105 26.631C1.82727 26.1446 2.63764 25.8204 3.28594 25.8204C4.0963 25.8204 4.74463 26.1446 5.23085 26.631C5.71707 27.1174 6.04122 27.766 6.04122 28.5766C6.04122 29.3872 5.71707 30.0356 5.23085 30.522C4.74463 31.0084 3.93423 31.3326 3.28594 31.3326C1.82728 31.3326 0.530688 30.0357 0.530687 28.5766Z" fill="#FFEF9F"/>
<path d="M75.5301 28.7759C75.5301 27.9652 75.8542 27.3166 76.3404 26.8303C76.8267 26.3439 77.637 26.0196 78.2853 26.0196C79.0957 26.0196 79.744 26.3439 80.2302 26.8303C80.7164 27.3166 81.0406 27.9652 81.0406 28.7759C81.0406 29.5865 80.7164 30.2349 80.2302 30.7213C79.744 31.2077 78.9336 31.5319 78.2853 31.5319C76.8267 31.5319 75.5301 30.235 75.5301 28.7759Z" fill="#FFEF9F"/>
<path d="M0.530687 28.5766C0.530687 27.766 0.854833 27.1174 1.34105 26.631C1.82727 26.1446 2.63764 25.8204 3.28594 25.8204C4.0963 25.8204 4.74463 26.1446 5.23085 26.631C5.71707 27.1174 6.04122 27.766 6.04122 28.5766C6.04122 29.3872 5.71707 30.0356 5.23085 30.522C4.74463 31.0084 3.93423 31.3326 3.28594 31.3326C1.82728 31.3326 0.530688 30.0357 0.530687 28.5766Z" fill="#FFEF9F"/>
<path d="M100.464 53.8422C100.464 53.0316 100.788 52.383 101.274 51.8966C101.761 51.4102 102.571 51.0859 103.219 51.0859C104.03 51.0859 104.678 51.4102 105.164 51.8966C105.65 52.383 105.974 53.0316 105.974 53.8422C105.974 54.6529 105.65 55.3013 105.164 55.7877C104.678 56.274 103.868 56.5983 103.219 56.5983C101.761 56.5983 100.464 55.3014 100.464 53.8422Z" fill="#FFEF9F"/>
<path d="M50.4639 53.7093C50.4639 52.8987 50.7881 52.2501 51.2743 51.7637C51.7606 51.2773 52.5709 50.9531 53.2192 50.9531C54.0295 50.9531 54.6779 51.2773 55.1641 51.7637C55.6503 52.2501 55.9744 52.8987 55.9744 53.7093C55.9744 54.52 55.6503 55.1684 55.1641 55.6548C54.6779 56.1412 53.8675 56.4654 53.2192 56.4654C51.7605 56.4654 50.4639 55.1685 50.4639 53.7093Z" fill="#FFEF9F"/>
<path d="M25.464 53.6429C25.464 52.8323 25.7882 52.1837 26.2744 51.6973C26.7606 51.2109 27.571 50.8867 28.2193 50.8867C29.0297 50.8867 29.678 51.2109 30.1642 51.6973C30.6504 52.1837 30.9745 52.8323 30.9745 53.6429C30.9745 54.4536 30.6504 55.102 30.1642 55.5884C29.678 56.0748 28.8676 56.399 28.2193 56.399C26.7606 56.399 25.464 55.1021 25.464 53.6429Z" fill="#FFEF9F"/>
<path d="M0.464282 53.5765C0.464282 52.7659 0.788428 52.1173 1.27465 51.6309C1.76086 51.1445 2.57124 50.8203 3.21953 50.8203C4.0299 50.8203 4.6782 51.1445 5.16442 51.6309C5.65063 52.1173 5.97478 52.7659 5.97478 53.5765C5.97478 54.3872 5.65064 55.0356 5.16442 55.522C4.6782 56.0084 3.86782 56.3326 3.21953 56.3326C1.76088 56.3326 0.464282 55.0357 0.464282 53.5765Z" fill="#FFEF9F"/>
<path d="M75.4637 53.7758C75.4637 52.9652 75.7878 52.3165 76.274 51.8301C76.7602 51.3437 77.5706 51.0195 78.2189 51.0195C79.0293 51.0195 79.6776 51.3437 80.1638 51.8301C80.65 52.3165 80.9742 52.9652 80.9742 53.7758C80.9742 54.5865 80.65 55.2348 80.1638 55.7212C79.6776 56.2076 78.8672 56.5319 78.2189 56.5319C76.7603 56.5319 75.4637 55.235 75.4637 53.7758Z" fill="#FFEF9F"/>
<path d="M0.464282 53.5765C0.464282 52.7659 0.788428 52.1173 1.27465 51.6309C1.76086 51.1445 2.57124 50.8203 3.21953 50.8203C4.0299 50.8203 4.6782 51.1445 5.16442 51.6309C5.65063 52.1173 5.97478 52.7659 5.97478 53.5765C5.97478 54.3872 5.65064 55.0356 5.16442 55.522C4.6782 56.0084 3.86782 56.3326 3.21953 56.3326C1.76088 56.3326 0.464282 55.0357 0.464282 53.5765Z" fill="#FFEF9F"/>
<path d="M100.398 78.8421C100.398 78.0315 100.722 77.3829 101.208 76.8965C101.694 76.4101 102.505 76.0859 103.153 76.0859C103.963 76.0859 104.611 76.4101 105.098 76.8965C105.584 77.3829 105.908 78.0315 105.908 78.8421C105.908 79.6528 105.584 80.3012 105.098 80.7875C104.611 81.2739 103.801 81.5982 103.153 81.5982C101.694 81.5982 100.398 80.3013 100.398 78.8421Z" fill="#FFEF9F"/>
<path d="M50.3975 78.7093C50.3975 77.8986 50.7217 77.25 51.2079 76.7637C51.6942 76.2773 52.5045 75.953 53.1528 75.953C53.9631 75.953 54.6115 76.2773 55.0977 76.7637C55.5839 77.25 55.908 77.8986 55.908 78.7093C55.908 79.5199 55.5839 80.1683 55.0977 80.6547C54.6115 81.1411 53.8011 81.4653 53.1528 81.4653C51.6941 81.4653 50.3975 80.1684 50.3975 78.7093Z" fill="#FFEF9F"/>
<path d="M25.3976 78.6429C25.3976 77.8322 25.7218 77.1836 26.208 76.6972C26.6942 76.2109 27.5046 75.8866 28.1529 75.8866C28.9632 75.8866 29.6115 76.2109 30.0978 76.6972C30.584 77.1836 30.9081 77.8322 30.9081 78.6429C30.9081 79.4535 30.584 80.1019 30.0978 80.5883C29.6115 81.0747 28.8012 81.3989 28.1529 81.3989C26.6942 81.3989 25.3976 80.102 25.3976 78.6429Z" fill="#FFEF9F"/>
<path d="M0.397877 78.5765C0.397877 77.7658 0.722022 77.1172 1.20824 76.6308C1.69446 76.1445 2.50483 75.8202 3.15313 75.8202C3.96349 75.8202 4.61179 76.1445 5.09801 76.6308C5.58423 77.1172 5.90838 77.7658 5.90838 78.5765C5.90838 79.3871 5.58423 80.0355 5.09801 80.5219C4.61179 81.0083 3.80142 81.3325 3.15313 81.3325C1.69447 81.3325 0.397877 80.0356 0.397877 78.5765Z" fill="#FFEF9F"/>
<path d="M75.3973 78.7757C75.3973 77.9651 75.7213 77.3165 76.2076 76.8301C76.6938 76.3437 77.5042 76.0195 78.1525 76.0195C78.9629 76.0195 79.6112 76.3437 80.0974 76.8301C80.5836 77.3165 80.9078 77.9651 80.9078 78.7757C80.9078 79.5863 80.5836 80.2348 80.0974 80.7211C79.6112 81.2075 78.8008 81.5318 78.1525 81.5318C76.6939 81.5318 75.3973 80.2348 75.3973 78.7757Z" fill="#FFEF9F"/>
<path d="M0.397877 78.5765C0.397877 77.7658 0.722022 77.1172 1.20824 76.6308C1.69446 76.1445 2.50483 75.8202 3.15313 75.8202C3.96349 75.8202 4.61179 76.1445 5.09801 76.6308C5.58423 77.1172 5.90838 77.7658 5.90838 78.5765C5.90838 79.3871 5.58423 80.0355 5.09801 80.5219C4.61179 81.0083 3.80142 81.3325 3.15313 81.3325C1.69447 81.3325 0.397877 80.0356 0.397877 78.5765Z" fill="#FFEF9F"/>
<path d="M100.331 103.842C100.331 103.031 100.655 102.383 101.142 101.896C101.628 101.41 102.438 101.086 103.086 101.086C103.897 101.086 104.545 101.41 105.031 101.896C105.518 102.383 105.842 103.031 105.842 103.842C105.842 104.653 105.518 105.301 105.031 105.787C104.545 106.274 103.735 106.598 103.086 106.598C101.628 106.598 100.331 105.301 100.331 103.842Z" fill="#FFEF9F"/>
<path d="M50.3311 103.709C50.3311 102.899 50.6553 102.25 51.1415 101.764C51.6277 101.277 52.4381 100.953 53.0864 100.953C53.8967 100.953 54.545 101.277 55.0312 101.764C55.5175 102.25 55.8416 102.899 55.8416 103.709C55.8416 104.52 55.5175 105.168 55.0312 105.655C54.545 106.141 53.7346 106.465 53.0864 106.465C51.6277 106.465 50.3311 105.168 50.3311 103.709Z" fill="#FFEF9F"/>
<path d="M25.3312 103.643C25.3312 102.832 25.6553 102.184 26.1415 101.697C26.6277 101.211 27.4382 100.887 28.0865 100.887C28.8968 100.887 29.5451 101.211 30.0314 101.697C30.5176 102.184 30.8417 102.832 30.8417 103.643C30.8417 104.453 30.5176 105.102 30.0314 105.588C29.5451 106.075 28.7348 106.399 28.0865 106.399C26.6278 106.399 25.3312 105.102 25.3312 103.643Z" fill="#FFEF9F"/>
<path d="M0.331472 103.576C0.331472 102.766 0.655617 102.117 1.14184 101.631C1.62805 101.144 2.43843 100.82 3.08672 100.82C3.89708 100.82 4.54539 101.144 5.03161 101.631C5.51782 102.117 5.84197 102.766 5.84197 103.576C5.84197 104.387 5.51782 105.035 5.03161 105.522C4.54539 106.008 3.73501 106.332 3.08672 106.332C1.62807 106.332 0.331472 105.036 0.331472 103.576Z" fill="#FFEF9F"/>
<path d="M75.3308 103.776C75.3308 102.965 75.6549 102.316 76.1412 101.83C76.6274 101.344 77.4378 101.019 78.086 101.019C78.8964 101.019 79.5447 101.344 80.0309 101.83C80.5172 102.316 80.8414 102.965 80.8414 103.776C80.8414 104.586 80.5172 105.235 80.0309 105.721C79.5447 106.207 78.7343 106.532 78.086 106.532C76.6274 106.532 75.3308 105.235 75.3308 103.776Z" fill="#FFEF9F"/>
<path d="M0.331472 103.576C0.331472 102.766 0.655617 102.117 1.14184 101.631C1.62805 101.144 2.43843 100.82 3.08672 100.82C3.89708 100.82 4.54539 101.144 5.03161 101.631C5.51782 102.117 5.84197 102.766 5.84197 103.576C5.84197 104.387 5.51782 105.035 5.03161 105.522C4.54539 106.008 3.73501 106.332 3.08672 106.332C1.62807 106.332 0.331472 105.036 0.331472 103.576Z" fill="#FFEF9F"/>
<path d="M100.265 128.842C100.265 128.031 100.589 127.383 101.075 126.896C101.561 126.41 102.372 126.086 103.02 126.086C103.83 126.086 104.479 126.41 104.965 126.896C105.451 127.383 105.775 128.031 105.775 128.842C105.775 129.653 105.451 130.301 104.965 130.787C104.479 131.274 103.668 131.598 103.02 131.598C101.561 131.598 100.265 130.301 100.265 128.842Z" fill="#FFEF9F"/>
<path d="M50.2647 128.709C50.2647 127.898 50.5888 127.25 51.0751 126.764C51.5613 126.277 52.3717 125.953 53.0199 125.953C53.8303 125.953 54.4786 126.277 54.9648 126.764C55.4511 127.25 55.7752 127.898 55.7752 128.709C55.7752 129.52 55.4511 130.168 54.9648 130.655C54.4786 131.141 53.6682 131.465 53.0199 131.465C51.5613 131.465 50.2647 130.168 50.2647 128.709Z" fill="#FFEF9F"/>
<path d="M25.2648 128.643C25.2648 127.832 25.5889 127.183 26.0751 126.697C26.5613 126.211 27.3718 125.886 28.0201 125.886C28.8304 125.886 29.4787 126.211 29.965 126.697C30.4512 127.183 30.7753 127.832 30.7753 128.643C30.7753 129.453 30.4512 130.102 29.965 130.588C29.4787 131.074 28.6684 131.399 28.0201 131.399C26.5614 131.399 25.2648 130.102 25.2648 128.643Z" fill="#FFEF9F"/>
<path d="M0.265067 128.576C0.265067 127.766 0.589212 127.117 1.07543 126.631C1.56165 126.144 2.37202 125.82 3.02032 125.82C3.83068 125.82 4.47898 126.144 4.9652 126.631C5.45142 127.117 5.77556 127.766 5.77556 128.576C5.77556 129.387 5.45142 130.035 4.9652 130.522C4.47898 131.008 3.66861 131.332 3.02032 131.332C1.56166 131.332 0.265067 130.035 0.265067 128.576Z" fill="#FFEF9F"/>
<path d="M75.2644 128.776C75.2644 127.965 75.5885 127.316 76.0748 126.83C76.561 126.344 77.3714 126.019 78.0196 126.019C78.83 126.019 79.4783 126.344 79.9645 126.83C80.4508 127.316 80.775 127.965 80.775 128.776C80.775 129.586 80.4508 130.235 79.9645 130.721C79.4783 131.207 78.6679 131.532 78.0196 131.532C76.561 131.532 75.2644 130.235 75.2644 128.776Z" fill="#FFEF9F"/>
<path d="M0.265067 128.576C0.265067 127.766 0.589212 127.117 1.07543 126.631C1.56165 126.144 2.37202 125.82 3.02032 125.82C3.83068 125.82 4.47898 126.144 4.9652 126.631C5.45142 127.117 5.77556 127.766 5.77556 128.576C5.77556 129.387 5.45142 130.035 4.9652 130.522C4.47898 131.008 3.66861 131.332 3.02032 131.332C1.56166 131.332 0.265067 130.035 0.265067 128.576Z" fill="#FFEF9F"/>
<path d="M100.198 153.842C100.198 153.031 100.522 152.383 101.009 151.896C101.495 151.41 102.305 151.086 102.954 151.086C103.764 151.086 104.412 151.41 104.898 151.896C105.385 152.383 105.709 153.031 105.709 153.842C105.709 154.652 105.385 155.301 104.898 155.787C104.412 156.274 103.602 156.598 102.954 156.598C101.495 156.598 100.198 155.301 100.198 153.842Z" fill="#FFEF9F"/>
<path d="M50.1983 153.709C50.1983 152.898 50.5224 152.25 51.0087 151.763C51.4949 151.277 52.3053 150.953 52.9535 150.953C53.7639 150.953 54.4122 151.277 54.8984 151.763C55.3846 152.25 55.7088 152.898 55.7088 153.709C55.7088 154.52 55.3846 155.168 54.8984 155.654C54.4122 156.141 53.6018 156.465 52.9535 156.465C51.4949 156.465 50.1983 155.168 50.1983 153.709Z" fill="#FFEF9F"/>
<path d="M25.1984 153.643C25.1984 152.832 25.5225 152.183 26.0087 151.697C26.4949 151.211 27.3053 150.886 27.9536 150.886C28.764 150.886 29.4123 151.211 29.8985 151.697C30.3847 152.183 30.7089 152.832 30.7089 153.643C30.7089 154.453 30.3847 155.102 29.8985 155.588C29.4123 156.074 28.6019 156.399 27.9536 156.399C26.495 156.399 25.1984 155.102 25.1984 153.643Z" fill="#FFEF9F"/>
<path d="M0.198631 153.576C0.198631 152.766 0.522776 152.117 1.00899 151.631C1.49521 151.144 2.30559 150.82 2.95388 150.82C3.76424 150.82 4.41258 151.144 4.8988 151.631C5.38501 152.117 5.70916 152.766 5.70916 153.576C5.70916 154.387 5.38501 155.035 4.8988 155.522C4.41258 156.008 3.60217 156.332 2.95388 156.332C1.49523 156.332 0.198631 155.035 0.198631 153.576Z" fill="#FFEF9F"/>
<path d="M75.198 153.775C75.198 152.965 75.5221 152.316 76.0084 151.83C76.4946 151.343 77.3049 151.019 77.9532 151.019C78.7636 151.019 79.4119 151.343 79.8981 151.83C80.3843 152.316 80.7085 152.965 80.7085 153.775C80.7085 154.586 80.3843 155.234 79.8981 155.721C79.4119 156.207 78.6015 156.532 77.9532 156.532C76.4946 156.532 75.198 155.235 75.198 153.775Z" fill="#FFEF9F"/>
<path d="M0.198631 153.576C0.198631 152.766 0.522776 152.117 1.00899 151.631C1.49521 151.144 2.30559 150.82 2.95388 150.82C3.76424 150.82 4.41258 151.144 4.8988 151.631C5.38501 152.117 5.70916 152.766 5.70916 153.576C5.70916 154.387 5.38501 155.035 4.8988 155.522C4.41258 156.008 3.60217 156.332 2.95388 156.332C1.49523 156.332 0.198631 155.035 0.198631 153.576Z" fill="#FFEF9F"/>
<path d="M100.132 178.842C100.132 178.031 100.456 177.383 100.942 176.896C101.429 176.41 102.239 176.086 102.887 176.086C103.698 176.086 104.346 176.41 104.832 176.896C105.318 177.383 105.642 178.031 105.642 178.842C105.642 179.652 105.318 180.301 104.832 180.787C104.346 181.274 103.535 181.598 102.887 181.598C101.428 181.598 100.132 180.301 100.132 178.842Z" fill="#FFEF9F"/>
<path d="M50.1319 178.709C50.1319 177.898 50.456 177.25 50.9423 176.763C51.4285 176.277 52.2388 175.953 52.8871 175.953C53.6975 175.953 54.3458 176.277 54.832 176.763C55.3182 177.25 55.6424 177.898 55.6424 178.709C55.6424 179.52 55.3182 180.168 54.832 180.654C54.3458 181.141 53.5354 181.465 52.8871 181.465C51.4285 181.465 50.1319 180.168 50.1319 178.709Z" fill="#FFEF9F"/>
<path d="M25.132 178.643C25.132 177.832 25.4561 177.183 25.9423 176.697C26.4285 176.211 27.2389 175.886 27.8872 175.886C28.6976 175.886 29.3459 176.211 29.8321 176.697C30.3183 177.183 30.6425 177.832 30.6425 178.643C30.6425 179.453 30.3183 180.102 29.8321 180.588C29.3459 181.074 28.5355 181.399 27.8872 181.399C26.4285 181.399 25.132 180.102 25.132 178.643Z" fill="#FFEF9F"/>
<path d="M0.132226 178.576C0.132226 177.765 0.456371 177.117 0.94259 176.63C1.42881 176.144 2.23918 175.82 2.88747 175.82C3.69784 175.82 4.34617 176.144 4.83239 176.63C5.31861 177.117 5.64275 177.765 5.64275 178.576C5.64275 179.387 5.31861 180.035 4.83239 180.522C4.34617 181.008 3.53577 181.332 2.88748 181.332C1.42882 181.332 0.132226 180.035 0.132226 178.576Z" fill="#FFEF9F"/>
<path d="M75.1316 178.775C75.1316 177.965 75.4557 177.316 75.9419 176.83C76.4282 176.343 77.2385 176.019 77.8868 176.019C78.6972 176.019 79.3455 176.343 79.8317 176.83C80.3179 177.316 80.6421 177.965 80.6421 178.775C80.6421 179.586 80.3179 180.234 79.8317 180.721C79.3455 181.207 78.5351 181.531 77.8868 181.531C76.4282 181.531 75.1316 180.234 75.1316 178.775Z" fill="#FFEF9F"/>
<path d="M0.132226 178.576C0.132226 177.765 0.456371 177.117 0.94259 176.63C1.42881 176.144 2.23918 175.82 2.88747 175.82C3.69784 175.82 4.34617 176.144 4.83239 176.63C5.31861 177.117 5.64275 177.765 5.64275 178.576C5.64275 179.387 5.31861 180.035 4.83239 180.522C4.34617 181.008 3.53577 181.332 2.88748 181.332C1.42882 181.332 0.132226 180.035 0.132226 178.576Z" fill="#FFEF9F"/>
<path d="M100.065 203.842C100.065 203.031 100.39 202.382 100.876 201.896C101.362 201.41 102.172 201.085 102.821 201.085C103.631 201.085 104.279 201.41 104.766 201.896C105.252 202.382 105.576 203.031 105.576 203.842C105.576 204.652 105.252 205.301 104.766 205.787C104.279 206.273 103.469 206.598 102.821 206.598C101.362 206.598 100.065 205.301 100.065 203.842Z" fill="#FFEF9F"/>
<path d="M50.0654 203.709C50.0654 202.898 50.3896 202.25 50.8758 201.763C51.362 201.277 52.1724 200.953 52.8207 200.953C53.631 200.953 54.2793 201.277 54.7656 201.763C55.2518 202.25 55.5759 202.898 55.5759 203.709C55.5759 204.519 55.2518 205.168 54.7656 205.654C54.2793 206.141 53.469 206.465 52.8207 206.465C51.362 206.465 50.0654 205.168 50.0654 203.709Z" fill="#FFEF9F"/>
<path d="M25.0655 203.642C25.0655 202.832 25.3897 202.183 25.8759 201.697C26.3621 201.21 27.1724 200.886 27.8207 200.886C28.6311 200.886 29.2795 201.21 29.7657 201.697C30.2519 202.183 30.576 202.832 30.576 203.642C30.576 204.453 30.2519 205.101 29.7657 205.588C29.2795 206.074 28.469 206.398 27.8207 206.398C26.3621 206.398 25.0655 205.102 25.0655 203.642Z" fill="#FFEF9F"/>
<path d="M0.0657903 203.576C0.0657903 202.765 0.389936 202.117 0.876154 201.63C1.36237 201.144 2.17275 200.82 2.82104 200.82C3.6314 200.82 4.27971 201.144 4.76592 201.63C5.25214 202.117 5.57629 202.765 5.57629 203.576C5.57629 204.387 5.25214 205.035 4.76592 205.521C4.27971 206.008 3.46933 206.332 2.82104 206.332C1.36238 206.332 0.0657904 205.035 0.0657903 203.576Z" fill="#FFEF9F"/>
<path d="M75.0651 203.775C75.0651 202.965 75.3893 202.316 75.8755 201.83C76.3617 201.343 77.1721 201.019 77.8204 201.019C78.6307 201.019 79.2791 201.343 79.7653 201.83C80.2515 202.316 80.5756 202.965 80.5756 203.775C80.5756 204.586 80.2515 205.234 79.7653 205.721C79.2791 206.207 78.4687 206.531 77.8204 206.531C76.3617 206.531 75.0651 205.234 75.0651 203.775Z" fill="#FFEF9F"/>
<path d="M0.0657903 203.576C0.0657903 202.765 0.389936 202.117 0.876154 201.63C1.36237 201.144 2.17275 200.82 2.82104 200.82C3.6314 200.82 4.27971 201.144 4.76592 201.63C5.25214 202.117 5.57629 202.765 5.57629 203.576C5.57629 204.387 5.25214 205.035 4.76592 205.521C4.27971 206.008 3.46933 206.332 2.82104 206.332C1.36238 206.332 0.0657904 205.035 0.0657903 203.576Z" fill="#FFEF9F"/>
<path d="M99.9991 228.842C99.9991 228.031 100.323 227.382 100.809 226.896C101.296 226.41 102.106 226.085 102.754 226.085C103.565 226.085 104.213 226.41 104.699 226.896C105.185 227.382 105.51 228.031 105.51 228.842C105.51 229.652 105.185 230.301 104.699 230.787C104.213 231.273 103.403 231.598 102.754 231.598C101.296 231.598 99.9991 230.301 99.9991 228.842Z" fill="#FFEF9F"/>
<path d="M49.999 228.709C49.999 227.898 50.3232 227.25 50.8094 226.763C51.2956 226.277 52.106 225.952 52.7543 225.952C53.5646 225.952 54.2129 226.277 54.6992 226.763C55.1854 227.25 55.5095 227.898 55.5095 228.709C55.5095 229.519 55.1854 230.168 54.6992 230.654C54.2129 231.141 53.4026 231.465 52.7543 231.465C51.2956 231.465 49.999 230.168 49.999 228.709Z" fill="#FFEF9F"/>
<path d="M24.9991 228.642C24.9991 227.832 25.3233 227.183 25.8095 226.697C26.2957 226.21 27.106 225.886 27.7543 225.886C28.5647 225.886 29.2131 226.21 29.6993 226.697C30.1855 227.183 30.5096 227.832 30.5096 228.642C30.5096 229.453 30.1855 230.101 29.6993 230.588C29.2131 231.074 28.4026 231.398 27.7543 231.398C26.2957 231.398 24.9991 230.101 24.9991 228.642Z" fill="#FFEF9F"/>
<path d="M-0.000614855 228.576C-0.00061489 227.765 0.32353 227.117 0.809749 226.63C1.29597 226.144 2.10634 225.82 2.75463 225.82C3.565 225.82 4.2133 226.144 4.69952 226.63C5.18574 227.117 5.50988 227.765 5.50988 228.576C5.50988 229.387 5.18574 230.035 4.69952 230.521C4.2133 231.008 3.40293 231.332 2.75463 231.332C1.29598 231.332 -0.000614791 230.035 -0.000614855 228.576Z" fill="#FFEF9F"/>
<path d="M74.9987 228.775C74.9987 227.965 75.3229 227.316 75.8091 226.83C76.2953 226.343 77.1057 226.019 77.754 226.019C78.5643 226.019 79.2127 226.343 79.6989 226.83C80.1851 227.316 80.5092 227.965 80.5092 228.775C80.5092 229.586 80.1851 230.234 79.6989 230.721C79.2127 231.207 78.4023 231.531 77.754 231.531C76.2953 231.531 74.9987 230.234 74.9987 228.775Z" fill="#FFEF9F"/>
<path d="M-0.000614855 228.576C-0.00061489 227.765 0.32353 227.117 0.809749 226.63C1.29597 226.144 2.10634 225.82 2.75463 225.82C3.565 225.82 4.2133 226.144 4.69952 226.63C5.18574 227.117 5.50988 227.765 5.50988 228.576C5.50988 229.387 5.18574 230.035 4.69952 230.521C4.2133 231.008 3.40293 231.332 2.75463 231.332C1.29598 231.332 -0.000614791 230.035 -0.000614855 228.576Z" fill="#FFEF9F"/>
<path d="M100.065 253.842C100.065 253.031 100.39 252.382 100.876 251.896C101.362 251.41 102.172 251.085 102.821 251.085C103.631 251.085 104.279 251.41 104.766 251.896C105.252 252.382 105.576 253.031 105.576 253.842C105.576 254.652 105.252 255.301 104.766 255.787C104.279 256.273 103.469 256.598 102.821 256.598C101.362 256.598 100.065 255.301 100.065 253.842Z" fill="#FFEF9F"/>
<path d="M50.0654 253.709C50.0654 252.898 50.3896 252.25 50.8758 251.763C51.362 251.277 52.1724 250.953 52.8207 250.953C53.631 250.953 54.2793 251.277 54.7656 251.763C55.2518 252.25 55.5759 252.898 55.5759 253.709C55.5759 254.519 55.2518 255.168 54.7656 255.654C54.2793 256.141 53.469 256.465 52.8207 256.465C51.362 256.465 50.0654 255.168 50.0654 253.709Z" fill="#FFEF9F"/>
<path d="M25.0655 253.642C25.0655 252.832 25.3897 252.183 25.8759 251.697C26.3621 251.21 27.1724 250.886 27.8207 250.886C28.6311 250.886 29.2795 251.21 29.7657 251.697C30.2519 252.183 30.576 252.832 30.576 253.642C30.576 254.453 30.2519 255.101 29.7657 255.588C29.2795 256.074 28.469 256.398 27.8207 256.398C26.3621 256.398 25.0655 255.102 25.0655 253.642Z" fill="#FFEF9F"/>
<path d="M0.0657925 253.576C0.0657925 252.765 0.389938 252.117 0.876156 251.63C1.36237 251.144 2.17275 250.82 2.82104 250.82C3.63141 250.82 4.27971 251.144 4.76593 251.63C5.25215 252.117 5.57629 252.765 5.57629 253.576C5.57629 254.387 5.25215 255.035 4.76593 255.521C4.27971 256.008 3.46933 256.332 2.82104 256.332C1.36239 256.332 0.0657926 255.035 0.0657925 253.576Z" fill="#FFEF9F"/>
<path d="M75.0651 253.775C75.0651 252.965 75.3893 252.316 75.8755 251.83C76.3617 251.343 77.1721 251.019 77.8204 251.019C78.6307 251.019 79.2791 251.343 79.7653 251.83C80.2515 252.316 80.5756 252.965 80.5756 253.775C80.5756 254.586 80.2515 255.234 79.7653 255.721C79.2791 256.207 78.4687 256.531 77.8204 256.531C76.3617 256.531 75.0651 255.234 75.0651 253.775Z" fill="#FFEF9F"/>
<path d="M0.0657925 253.576C0.0657925 252.765 0.389938 252.117 0.876156 251.63C1.36237 251.144 2.17275 250.82 2.82104 250.82C3.63141 250.82 4.27971 251.144 4.76593 251.63C5.25215 252.117 5.57629 252.765 5.57629 253.576C5.57629 254.387 5.25215 255.035 4.76593 255.521C4.27971 256.008 3.46933 256.332 2.82104 256.332C1.36239 256.332 0.0657926 255.035 0.0657925 253.576Z" fill="#FFEF9F"/>
<path d="M99.9991 278.842C99.9991 278.031 100.323 277.382 100.809 276.896C101.296 276.41 102.106 276.085 102.754 276.085C103.565 276.085 104.213 276.41 104.699 276.896C105.185 277.382 105.51 278.031 105.51 278.842C105.51 279.652 105.185 280.301 104.699 280.787C104.213 281.273 103.403 281.598 102.754 281.598C101.296 281.598 99.9991 280.301 99.9991 278.842Z" fill="#FFEF9F"/>
<path d="M49.999 278.709C49.999 277.898 50.3232 277.25 50.8094 276.763C51.2956 276.277 52.106 275.952 52.7543 275.952C53.5646 275.952 54.2129 276.277 54.6992 276.763C55.1854 277.25 55.5095 277.898 55.5095 278.709C55.5095 279.519 55.1854 280.168 54.6992 280.654C54.2129 281.141 53.4026 281.465 52.7543 281.465C51.2956 281.465 49.999 280.168 49.999 278.709Z" fill="#FFEF9F"/>
<path d="M24.9991 278.642C24.9991 277.832 25.3233 277.183 25.8095 276.697C26.2957 276.21 27.106 275.886 27.7543 275.886C28.5647 275.886 29.2131 276.21 29.6993 276.697C30.1855 277.183 30.5096 277.832 30.5096 278.642C30.5096 279.453 30.1855 280.101 29.6993 280.588C29.2131 281.074 28.4026 281.398 27.7543 281.398C26.2957 281.398 24.9991 280.101 24.9991 278.642Z" fill="#FFEF9F"/>
<path d="M-0.000612669 278.576C-0.000612705 277.765 0.323533 277.117 0.809751 276.63C1.29597 276.144 2.10634 275.82 2.75464 275.82C3.565 275.82 4.2133 276.144 4.69952 276.63C5.18574 277.117 5.50989 277.765 5.50989 278.576C5.50989 279.387 5.18574 280.035 4.69952 280.521C4.2133 281.008 3.40293 281.332 2.75464 281.332C1.29598 281.332 -0.000612605 280.035 -0.000612669 278.576Z" fill="#FFEF9F"/>
<path d="M74.9987 278.775C74.9987 277.965 75.3229 277.316 75.8091 276.83C76.2953 276.343 77.1057 276.019 77.754 276.019C78.5643 276.019 79.2127 276.343 79.6989 276.83C80.1851 277.316 80.5092 277.965 80.5092 278.775C80.5092 279.586 80.1851 280.234 79.6989 280.721C79.2127 281.207 78.4023 281.531 77.754 281.531C76.2953 281.531 74.9987 280.234 74.9987 278.775Z" fill="#FFEF9F"/>
<path d="M-0.000612669 278.576C-0.000612705 277.765 0.323533 277.117 0.809751 276.63C1.29597 276.144 2.10634 275.82 2.75464 275.82C3.565 275.82 4.2133 276.144 4.69952 276.63C5.18574 277.117 5.50989 277.765 5.50989 278.576C5.50989 279.387 5.18574 280.035 4.69952 280.521C4.2133 281.008 3.40293 281.332 2.75464 281.332C1.29598 281.332 -0.000612605 280.035 -0.000612669 278.576Z" fill="#FFEF9F"/>
<path d="M100.065 303.842C100.065 303.031 100.39 302.382 100.876 301.896C101.362 301.41 102.172 301.085 102.821 301.085C103.631 301.085 104.279 301.41 104.766 301.896C105.252 302.382 105.576 303.031 105.576 303.842C105.576 304.652 105.252 305.301 104.766 305.787C104.279 306.273 103.469 306.598 102.821 306.598C101.362 306.598 100.065 305.301 100.065 303.842Z" fill="#FFEF9F"/>
<path d="M50.0654 303.709C50.0654 302.898 50.3896 302.25 50.8758 301.763C51.362 301.277 52.1724 300.953 52.8207 300.953C53.631 300.953 54.2793 301.277 54.7656 301.763C55.2518 302.25 55.5759 302.898 55.5759 303.709C55.5759 304.519 55.2518 305.168 54.7656 305.654C54.2793 306.141 53.469 306.465 52.8207 306.465C51.362 306.465 50.0654 305.168 50.0654 303.709Z" fill="#FFEF9F"/>
<path d="M25.0655 303.642C25.0655 302.832 25.3897 302.183 25.8759 301.697C26.3621 301.21 27.1724 300.886 27.8207 300.886C28.6311 300.886 29.2795 301.21 29.7657 301.697C30.2519 302.183 30.576 302.832 30.576 303.642C30.576 304.453 30.2519 305.101 29.7657 305.588C29.2795 306.074 28.469 306.398 27.8207 306.398C26.3621 306.398 25.0655 305.102 25.0655 303.642Z" fill="#FFEF9F"/>
<path d="M0.0657947 303.576C0.0657946 302.765 0.38994 302.117 0.876158 301.63C1.36238 301.144 2.17275 300.82 2.82104 300.82C3.63141 300.82 4.27971 301.144 4.76593 301.63C5.25215 302.117 5.57629 302.765 5.57629 303.576C5.57629 304.387 5.25215 305.035 4.76593 305.521C4.27971 306.008 3.46934 306.332 2.82104 306.332C1.36239 306.332 0.0657947 305.035 0.0657947 303.576Z" fill="#FFEF9F"/>
<path d="M75.0651 303.775C75.0651 302.965 75.3893 302.316 75.8755 301.83C76.3617 301.343 77.1721 301.019 77.8204 301.019C78.6307 301.019 79.2791 301.343 79.7653 301.83C80.2515 302.316 80.5756 302.965 80.5756 303.775C80.5756 304.586 80.2515 305.234 79.7653 305.721C79.2791 306.207 78.4687 306.531 77.8204 306.531C76.3617 306.531 75.0651 305.234 75.0651 303.775Z" fill="#FFEF9F"/>
<path d="M0.0657947 303.576C0.0657946 302.765 0.38994 302.117 0.876158 301.63C1.36238 301.144 2.17275 300.82 2.82104 300.82C3.63141 300.82 4.27971 301.144 4.76593 301.63C5.25215 302.117 5.57629 302.765 5.57629 303.576C5.57629 304.387 5.25215 305.035 4.76593 305.521C4.27971 306.008 3.46934 306.332 2.82104 306.332C1.36239 306.332 0.0657947 305.035 0.0657947 303.576Z" fill="#FFEF9F"/>
</svg>
