<svg width="41" height="223" viewBox="0 0 41 223" fill="none" xmlns="http://www.w3.org/2000/svg">
<path d="M36.7172 2.10504C36.7172 1.51443 36.9524 1.0419 37.3053 0.687529C37.6581 0.333159 38.2462 0.0968916 38.7166 0.0968916C39.3047 0.0968916 39.7751 0.333159 40.128 0.687529C40.4808 1.0419 40.716 1.51443 40.716 2.10504C40.716 2.69565 40.4808 3.16809 40.128 3.52246C39.7751 3.87683 39.1871 4.1131 38.7166 4.1131C37.6581 4.1131 36.7172 3.16815 36.7172 2.10504Z" fill="#FFEF9F"/>
<path d="M18.5753 2.05666C18.5753 1.46605 18.8106 0.993484 19.1634 0.639114C19.5162 0.284743 20.1043 0.0485068 20.5748 0.0485068C21.1628 0.0485068 21.6333 0.284743 21.9861 0.639113C22.339 0.993484 22.5742 1.46605 22.5742 2.05665C22.5742 2.64726 22.339 3.1197 21.9861 3.47407C21.6333 3.82844 21.0452 4.06473 20.5748 4.06473C19.5162 4.06473 18.5753 3.11977 18.5753 2.05666Z" fill="#FFEF9F"/>
<path d="M0.433617 2.00829C0.433617 1.41768 0.668841 0.945099 1.02168 0.590729C1.37452 0.236359 1.96259 0.000121985 2.43303 0.000121964C3.0211 0.000121938 3.49158 0.236358 3.84441 0.590729C4.19725 0.945099 4.43248 1.41768 4.43248 2.00829C4.43248 2.59889 4.19725 3.07132 3.84441 3.42569C3.49158 3.78006 2.90348 4.01634 2.43303 4.01634C1.37452 4.01634 0.433617 3.0714 0.433617 2.00829Z" fill="#FFEF9F"/>
<path d="M0.433617 2.00829C0.433617 1.41768 0.668841 0.945099 1.02168 0.590729C1.37452 0.236359 1.96259 0.000121985 2.43303 0.000121964C3.0211 0.000121938 3.49158 0.236358 3.84441 0.590729C4.19725 0.945099 4.43248 1.41768 4.43248 2.00829C4.43248 2.59889 4.19725 3.07132 3.84441 3.42569C3.49158 3.78006 2.90348 4.01634 2.43303 4.01634C1.37452 4.01634 0.433617 3.0714 0.433617 2.00829Z" fill="#FFEF9F"/>
<path d="M36.669 20.3197C36.669 19.7291 36.9042 19.2565 37.2571 18.9021C37.6099 18.5478 38.198 18.3115 38.6684 18.3115C39.2565 18.3115 39.7269 18.5478 40.0798 18.9021C40.4326 19.2565 40.6678 19.7291 40.6678 20.3197C40.6678 20.9103 40.4326 21.3827 40.0798 21.7371C39.7269 22.0915 39.1389 22.3277 38.6684 22.3277C37.6099 22.3277 36.669 21.3828 36.669 20.3197Z" fill="#FFEF9F"/>
<path d="M18.5272 20.2713C18.5272 19.6807 18.7624 19.2081 19.1152 18.8537C19.468 18.4994 20.0561 18.2631 20.5266 18.2631C21.1146 18.2631 21.5851 18.4994 21.9379 18.8537C22.2908 19.2081 22.526 19.6807 22.526 20.2713C22.526 20.8619 22.2908 21.3343 21.9379 21.6887C21.5851 22.0431 20.997 22.2793 20.5266 22.2793C19.4681 22.2793 18.5272 21.3344 18.5272 20.2713Z" fill="#FFEF9F"/>
<path d="M0.385428 20.2229C0.385428 19.6323 0.620652 19.1597 0.973489 18.8054C1.32633 18.451 1.9144 18.2148 2.38485 18.2148C2.97291 18.2148 3.44339 18.451 3.79622 18.8054C4.14906 19.1597 4.38429 19.6323 4.38429 20.2229C4.38429 20.8135 4.14906 21.286 3.79622 21.6403C3.44339 21.9947 2.8553 22.2309 2.38485 22.2309C1.32634 22.2309 0.385428 21.286 0.385428 20.2229Z" fill="#FFEF9F"/>
<path d="M0.385428 20.2229C0.385428 19.6323 0.620652 19.1597 0.973489 18.8054C1.32633 18.451 1.9144 18.2148 2.38485 18.2148C2.97291 18.2148 3.44339 18.451 3.79622 18.8054C4.14906 19.1597 4.38429 19.6323 4.38429 20.2229C4.38429 20.8135 4.14906 21.286 3.79622 21.6403C3.44339 21.9947 2.8553 22.2309 2.38485 22.2309C1.32634 22.2309 0.385428 21.286 0.385428 20.2229Z" fill="#FFEF9F"/>
<path d="M36.6208 38.5343C36.6208 37.9437 36.856 37.4711 37.2089 37.1168C37.5617 36.7624 38.1497 36.5262 38.6202 36.5262C39.2083 36.5262 39.6788 36.7624 40.0316 37.1168C40.3844 37.4711 40.6196 37.9437 40.6196 38.5343C40.6196 39.1249 40.3844 39.5973 40.0316 39.9517C39.6788 40.3061 39.0906 40.5423 38.6202 40.5423C37.5617 40.5423 36.6208 39.5974 36.6208 38.5343Z" fill="#FFEF9F"/>
<path d="M18.479 38.4859C18.479 37.8953 18.7142 37.4227 19.067 37.0684C19.4199 36.714 20.0079 36.4777 20.4784 36.4777C21.0664 36.4777 21.5369 36.714 21.8897 37.0684C22.2426 37.4227 22.4778 37.8953 22.4778 38.4859C22.4778 39.0765 22.2426 39.549 21.8897 39.9033C21.5369 40.2577 20.9488 40.4939 20.4784 40.4939C19.4199 40.4939 18.479 39.549 18.479 38.4859Z" fill="#FFEF9F"/>
<path d="M0.337239 38.4375C0.337239 37.8469 0.572464 37.3744 0.925301 37.02C1.27814 36.6656 1.86621 36.4294 2.33666 36.4294C2.92472 36.4294 3.39518 36.6656 3.74801 37.02C4.10085 37.3744 4.33608 37.8469 4.33608 38.4375C4.33608 39.0282 4.10085 39.5006 3.74801 39.855C3.39518 40.2093 2.80711 40.4456 2.33666 40.4456C1.27815 40.4456 0.337239 39.5007 0.337239 38.4375Z" fill="#FFEF9F"/>
<path d="M0.337239 38.4375C0.337239 37.8469 0.572464 37.3744 0.925301 37.02C1.27814 36.6656 1.86621 36.4294 2.33666 36.4294C2.92472 36.4294 3.39518 36.6656 3.74801 37.02C4.10085 37.3744 4.33608 37.8469 4.33608 38.4375C4.33608 39.0282 4.10085 39.5006 3.74801 39.855C3.39518 40.2093 2.80711 40.4456 2.33666 40.4456C1.27815 40.4456 0.337239 39.5007 0.337239 38.4375Z" fill="#FFEF9F"/>
<path d="M36.5726 56.7489C36.5726 56.1583 36.8079 55.6858 37.1607 55.3314C37.5135 54.977 38.1016 54.7408 38.572 54.7408C39.1601 54.7408 39.6306 54.977 39.9834 55.3314C40.3362 55.6858 40.5714 56.1583 40.5714 56.7489C40.5714 57.3395 40.3362 57.812 39.9834 58.1663C39.6306 58.5207 39.0424 58.757 38.572 58.757C37.5135 58.757 36.5726 57.812 36.5726 56.7489Z" fill="#FFEF9F"/>
<path d="M18.4308 56.7005C18.4308 56.1099 18.666 55.6374 19.0188 55.283C19.3717 54.9286 19.9597 54.6924 20.4302 54.6924C21.0183 54.6924 21.4887 54.9286 21.8415 55.283C22.1944 55.6374 22.4296 56.1099 22.4296 56.7005C22.4296 57.2912 22.1944 57.7636 21.8415 58.1179C21.4887 58.4723 20.9006 58.7086 20.4302 58.7086C19.3717 58.7086 18.4308 57.7637 18.4308 56.7005Z" fill="#FFEF9F"/>
<path d="M0.289051 56.6522C0.289051 56.0616 0.524275 55.589 0.877112 55.2346C1.22995 54.8802 1.81802 54.644 2.28847 54.644C2.87653 54.644 3.34699 54.8802 3.69983 55.2346C4.05266 55.589 4.28789 56.0616 4.28789 56.6522C4.28789 57.2428 4.05266 57.7152 3.69983 58.0696C3.34699 58.4239 2.75892 58.6602 2.28847 58.6602C1.22996 58.6602 0.289051 57.7153 0.289051 56.6522Z" fill="#FFEF9F"/>
<path d="M0.289051 56.6522C0.289051 56.0616 0.524275 55.589 0.877112 55.2346C1.22995 54.8802 1.81802 54.644 2.28847 54.644C2.87653 54.644 3.34699 54.8802 3.69983 55.2346C4.05266 55.589 4.28789 56.0616 4.28789 56.6522C4.28789 57.2428 4.05266 57.7152 3.69983 58.0696C3.34699 58.4239 2.75892 58.6602 2.28847 58.6602C1.22996 58.6602 0.289051 57.7153 0.289051 56.6522Z" fill="#FFEF9F"/>
<path d="M36.5244 74.9635C36.5244 74.3729 36.7596 73.9004 37.1125 73.546C37.4653 73.1916 38.0534 72.9554 38.5238 72.9554C39.1119 72.9554 39.5823 73.1916 39.9352 73.546C40.288 73.9004 40.5232 74.3729 40.5232 74.9635C40.5232 75.5542 40.288 76.0266 39.9352 76.381C39.5823 76.7353 38.9943 76.9716 38.5238 76.9716C37.4653 76.9716 36.5244 76.0267 36.5244 74.9635Z" fill="#FFEF9F"/>
<path d="M18.3826 74.9152C18.3826 74.3246 18.6178 73.852 18.9706 73.4976C19.3234 73.1432 19.9116 72.907 20.382 72.907C20.9701 72.907 21.4405 73.1432 21.7934 73.4976C22.1462 73.852 22.3814 74.3246 22.3814 74.9152C22.3814 75.5058 22.1462 75.9782 21.7934 76.3326C21.4405 76.6869 20.8525 76.9232 20.382 76.9232C19.3235 76.9232 18.3826 75.9783 18.3826 74.9152Z" fill="#FFEF9F"/>
<path d="M0.240862 74.8668C0.240862 74.2762 0.476086 73.8036 0.828924 73.4492C1.18176 73.0949 1.76983 72.8586 2.24028 72.8586C2.82834 72.8586 3.2988 73.0949 3.65164 73.4492C4.00447 73.8036 4.2397 74.2762 4.2397 74.8668C4.2397 75.4574 4.00447 75.9298 3.65164 76.2842C3.2988 76.6386 2.71073 76.8748 2.24028 76.8748C1.18177 76.8748 0.240862 75.9299 0.240862 74.8668Z" fill="#FFEF9F"/>
<path d="M0.240862 74.8668C0.240862 74.2762 0.476086 73.8036 0.828924 73.4492C1.18176 73.0949 1.76983 72.8586 2.24028 72.8586C2.82834 72.8586 3.2988 73.0949 3.65164 73.4492C4.00447 73.8036 4.2397 74.2762 4.2397 74.8668C4.2397 75.4574 4.00447 75.9298 3.65164 76.2842C3.2988 76.6386 2.71073 76.8748 2.24028 76.8748C1.18177 76.8748 0.240862 75.9299 0.240862 74.8668Z" fill="#FFEF9F"/>
<path d="M36.4762 93.1782C36.4762 92.5876 36.7114 92.115 37.0643 91.7606C37.4171 91.4062 38.0052 91.17 38.4756 91.17C39.0637 91.17 39.5341 91.4062 39.887 91.7606C40.2398 92.115 40.475 92.5876 40.475 93.1782C40.475 93.7688 40.2398 94.2412 39.887 94.5956C39.5341 94.9499 38.9461 95.1862 38.4756 95.1862C37.4171 95.1862 36.4762 94.2413 36.4762 93.1782Z" fill="#FFEF9F"/>
<path d="M18.3344 93.1298C18.3344 92.5392 18.5696 92.0666 18.9224 91.7122C19.2753 91.3578 19.8634 91.1216 20.3338 91.1216C20.9219 91.1216 21.3923 91.3578 21.7452 91.7122C22.098 92.0666 22.3332 92.5392 22.3332 93.1298C22.3332 93.7204 22.098 94.1928 21.7452 94.5472C21.3923 94.9015 20.8043 95.1378 20.3338 95.1378C19.2753 95.1378 18.3344 94.1929 18.3344 93.1298Z" fill="#FFEF9F"/>
<path d="M0.192673 93.0814C0.192673 92.4908 0.427898 92.0182 0.780735 91.6638C1.13357 91.3095 1.72164 91.0732 2.19209 91.0732C2.78015 91.0732 3.25061 91.3095 3.60345 91.6638C3.95629 92.0182 4.19151 92.4908 4.19151 93.0814C4.19151 93.672 3.95629 94.1444 3.60345 94.4988C3.25061 94.8532 2.66254 95.0894 2.19209 95.0894C1.13358 95.0894 0.192673 94.1445 0.192673 93.0814Z" fill="#FFEF9F"/>
<path d="M0.192673 93.0814C0.192673 92.4908 0.427898 92.0182 0.780735 91.6638C1.13357 91.3095 1.72164 91.0732 2.19209 91.0732C2.78015 91.0732 3.25061 91.3095 3.60345 91.6638C3.95629 92.0182 4.19151 92.4908 4.19151 93.0814C4.19151 93.672 3.95629 94.1444 3.60345 94.4988C3.25061 94.8532 2.66254 95.0894 2.19209 95.0894C1.13358 95.0894 0.192673 94.1445 0.192673 93.0814Z" fill="#FFEF9F"/>
<path d="M36.428 111.393C36.428 110.802 36.6632 110.33 37.0161 109.975C37.3689 109.621 37.957 109.385 38.4274 109.385C39.0155 109.385 39.486 109.621 39.8388 109.975C40.1916 110.33 40.4269 110.802 40.4269 111.393C40.4269 111.983 40.1916 112.456 39.8388 112.81C39.486 113.165 38.8979 113.401 38.4274 113.401C37.3689 113.401 36.428 112.456 36.428 111.393Z" fill="#FFEF9F"/>
<path d="M18.2862 111.344C18.2862 110.754 18.5214 110.281 18.8742 109.927C19.2271 109.572 19.8151 109.336 20.2856 109.336C20.8736 109.336 21.3441 109.572 21.6969 109.927C22.0498 110.281 22.285 110.754 22.285 111.344C22.285 111.935 22.0498 112.407 21.6969 112.762C21.3441 113.116 20.756 113.352 20.2856 113.352C19.2271 113.352 18.2862 112.407 18.2862 111.344Z" fill="#FFEF9F"/>
<path d="M0.144463 111.296C0.144463 110.705 0.379687 110.233 0.732524 109.878C1.08536 109.524 1.67343 109.288 2.14388 109.288C2.73194 109.288 3.20242 109.524 3.55526 109.878C3.9081 110.233 4.14332 110.705 4.14332 111.296C4.14332 111.887 3.9081 112.359 3.55526 112.713C3.20242 113.068 2.61433 113.304 2.14388 113.304C1.08537 113.304 0.144463 112.359 0.144463 111.296Z" fill="#FFEF9F"/>
<path d="M0.144463 111.296C0.144463 110.705 0.379687 110.233 0.732524 109.878C1.08536 109.524 1.67343 109.288 2.14388 109.288C2.73194 109.288 3.20242 109.524 3.55526 109.878C3.9081 110.233 4.14332 110.705 4.14332 111.296C4.14332 111.887 3.9081 112.359 3.55526 112.713C3.20242 113.068 2.61433 113.304 2.14388 113.304C1.08537 113.304 0.144463 112.359 0.144463 111.296Z" fill="#FFEF9F"/>
<path d="M36.3798 129.607C36.3798 129.017 36.6151 128.544 36.9679 128.19C37.3207 127.835 37.9088 127.599 38.3792 127.599C38.9673 127.599 39.4378 127.835 39.7906 128.19C40.1434 128.544 40.3787 129.017 40.3787 129.607C40.3787 130.198 40.1434 130.67 39.7906 131.025C39.4378 131.379 38.8497 131.615 38.3792 131.615C37.3207 131.615 36.3798 130.67 36.3798 129.607Z" fill="#FFEF9F"/>
<path d="M18.238 129.559C18.238 128.968 18.4732 128.496 18.826 128.141C19.1789 127.787 19.7669 127.551 20.2374 127.551C20.8255 127.551 21.2959 127.787 21.6487 128.141C22.0016 128.496 22.2369 128.968 22.2369 129.559C22.2369 130.15 22.0016 130.622 21.6487 130.976C21.2959 131.331 20.7078 131.567 20.2374 131.567C19.1789 131.567 18.238 130.622 18.238 129.559Z" fill="#FFEF9F"/>
<path d="M0.0962741 129.511C0.096274 128.92 0.331498 128.447 0.684336 128.093C1.03717 127.739 1.62524 127.502 2.09569 127.502C2.68375 127.502 3.15423 127.739 3.50707 128.093C3.85991 128.447 4.09513 128.92 4.09513 129.511C4.09513 130.101 3.85991 130.574 3.50707 130.928C3.15423 131.282 2.56614 131.519 2.09569 131.519C1.03718 131.519 0.0962741 130.574 0.0962741 129.511Z" fill="#FFEF9F"/>
<path d="M0.0962741 129.511C0.096274 128.92 0.331498 128.447 0.684336 128.093C1.03717 127.739 1.62524 127.502 2.09569 127.502C2.68375 127.502 3.15423 127.739 3.50707 128.093C3.85991 128.447 4.09513 128.92 4.09513 129.511C4.09513 130.101 3.85991 130.574 3.50707 130.928C3.15423 131.282 2.56614 131.519 2.09569 131.519C1.03718 131.519 0.0962741 130.574 0.0962741 129.511Z" fill="#FFEF9F"/>
<path d="M36.3316 147.822C36.3316 147.231 36.5668 146.759 36.9197 146.404C37.2725 146.05 37.8606 145.814 38.331 145.814C38.9191 145.814 39.3895 146.05 39.7424 146.404C40.0952 146.759 40.3304 147.231 40.3304 147.822C40.3304 148.413 40.0952 148.885 39.7424 149.239C39.3895 149.594 38.8015 149.83 38.331 149.83C37.2725 149.83 36.3316 148.885 36.3316 147.822Z" fill="#FFEF9F"/>
<path d="M18.1897 147.774C18.1897 147.183 18.425 146.71 18.7778 146.356C19.1307 146.002 19.7187 145.765 20.1892 145.765C20.7772 145.765 21.2477 146.002 21.6006 146.356C21.9534 146.71 22.1886 147.183 22.1886 147.774C22.1886 148.364 21.9534 148.837 21.6006 149.191C21.2477 149.545 20.6596 149.782 20.1892 149.782C19.1306 149.782 18.1897 148.837 18.1897 147.774Z" fill="#FFEF9F"/>
<path d="M0.0480633 147.725C0.0480633 147.135 0.283288 146.662 0.636125 146.308C0.988962 145.953 1.57703 145.717 2.04748 145.717C2.63554 145.717 3.106 145.953 3.45884 146.308C3.81168 146.662 4.0469 147.135 4.0469 147.725C4.0469 148.316 3.81168 148.788 3.45884 149.143C3.106 149.497 2.51793 149.733 2.04748 149.733C0.98897 149.733 0.0480633 148.788 0.0480633 147.725Z" fill="#FFEF9F"/>
<path d="M0.0480633 147.725C0.0480633 147.135 0.283288 146.662 0.636125 146.308C0.988962 145.953 1.57703 145.717 2.04748 145.717C2.63554 145.717 3.106 145.953 3.45884 146.308C3.81168 146.662 4.0469 147.135 4.0469 147.725C4.0469 148.316 3.81168 148.788 3.45884 149.143C3.106 149.497 2.51793 149.733 2.04748 149.733C0.98897 149.733 0.0480633 148.788 0.0480633 147.725Z" fill="#FFEF9F"/>
<path d="M36.2834 166.037C36.2834 165.446 36.5186 164.973 36.8715 164.619C37.2243 164.265 37.8124 164.028 38.2828 164.028C38.8709 164.028 39.3413 164.265 39.6942 164.619C40.047 164.973 40.2822 165.446 40.2822 166.037C40.2822 166.627 40.047 167.1 39.6942 167.454C39.3413 167.808 38.7533 168.045 38.2828 168.045C37.2243 168.045 36.2834 167.1 36.2834 166.037Z" fill="#FFEF9F"/>
<path d="M18.1416 165.988C18.1416 165.398 18.3768 164.925 18.7297 164.571C19.0825 164.216 19.6705 163.98 20.141 163.98C20.729 163.98 21.1995 164.216 21.5524 164.571C21.9052 164.925 22.1404 165.398 22.1404 165.988C22.1404 166.579 21.9052 167.051 21.5524 167.406C21.1995 167.76 20.6114 167.996 20.141 167.996C19.0825 167.996 18.1416 167.051 18.1416 165.988Z" fill="#FFEF9F"/>
<path d="M-0.000125347 165.94C-0.000125373 165.349 0.235099 164.877 0.587936 164.522C0.940773 164.168 1.52884 163.932 1.99929 163.932C2.58735 163.932 3.05781 164.168 3.41065 164.522C3.76349 164.877 3.99871 165.349 3.99871 165.94C3.99871 166.53 3.76349 167.003 3.41065 167.357C3.05781 167.712 2.46974 167.948 1.99929 167.948C0.940782 167.948 -0.000125301 167.003 -0.000125347 165.94Z" fill="#FFEF9F"/>
<path d="M-0.000125347 165.94C-0.000125373 165.349 0.235099 164.877 0.587936 164.522C0.940773 164.168 1.52884 163.932 1.99929 163.932C2.58735 163.932 3.05781 164.168 3.41065 164.522C3.76349 164.877 3.99871 165.349 3.99871 165.94C3.99871 166.53 3.76349 167.003 3.41065 167.357C3.05781 167.712 2.46974 167.948 1.99929 167.948C0.940782 167.948 -0.000125301 167.003 -0.000125347 165.94Z" fill="#FFEF9F"/>
<path d="M36.3316 184.251C36.3316 183.661 36.5668 183.188 36.9197 182.834C37.2725 182.479 37.8606 182.243 38.331 182.243C38.9191 182.243 39.3895 182.479 39.7424 182.834C40.0952 183.188 40.3304 183.661 40.3304 184.251C40.3304 184.842 40.0952 185.314 39.7424 185.669C39.3895 186.023 38.8015 186.259 38.331 186.259C37.2725 186.259 36.3316 185.314 36.3316 184.251Z" fill="#FFEF9F"/>
<path d="M18.1897 184.203C18.1897 183.612 18.425 183.14 18.7778 182.785C19.1307 182.431 19.7187 182.195 20.1892 182.195C20.7772 182.195 21.2477 182.431 21.6006 182.785C21.9534 183.14 22.1886 183.612 22.1886 184.203C22.1886 184.794 21.9534 185.266 21.6006 185.62C21.2477 185.975 20.6596 186.211 20.1892 186.211C19.1306 186.211 18.1897 185.266 18.1897 184.203Z" fill="#FFEF9F"/>
<path d="M0.0480649 184.155C0.0480648 183.564 0.283289 183.091 0.636126 182.737C0.988963 182.383 1.57703 182.146 2.04748 182.146C2.63554 182.146 3.106 182.383 3.45884 182.737C3.81168 183.091 4.0469 183.564 4.0469 184.155C4.0469 184.745 3.81168 185.218 3.45884 185.572C3.106 185.926 2.51793 186.163 2.04748 186.163C0.988972 186.163 0.0480649 185.218 0.0480649 184.155Z" fill="#FFEF9F"/>
<path d="M0.0480649 184.155C0.0480648 183.564 0.283289 183.091 0.636126 182.737C0.988963 182.383 1.57703 182.146 2.04748 182.146C2.63554 182.146 3.106 182.383 3.45884 182.737C3.81168 183.091 4.0469 183.564 4.0469 184.155C4.0469 184.745 3.81168 185.218 3.45884 185.572C3.106 185.926 2.51793 186.163 2.04748 186.163C0.988972 186.163 0.0480649 185.218 0.0480649 184.155Z" fill="#FFEF9F"/>
<path d="M36.2834 202.466C36.2834 201.875 36.5186 201.403 36.8715 201.048C37.2243 200.694 37.8124 200.458 38.2828 200.458C38.8709 200.458 39.3413 200.694 39.6942 201.048C40.047 201.403 40.2822 201.875 40.2822 202.466C40.2822 203.057 40.047 203.529 39.6942 203.883C39.3413 204.238 38.7533 204.474 38.2828 204.474C37.2243 204.474 36.2834 203.529 36.2834 202.466Z" fill="#FFEF9F"/>
<path d="M18.1416 202.418C18.1416 201.827 18.3768 201.354 18.7297 201C19.0825 200.646 19.6705 200.409 20.141 200.409C20.729 200.409 21.1995 200.646 21.5524 201C21.9052 201.354 22.1404 201.827 22.1404 202.418C22.1404 203.008 21.9052 203.481 21.5524 203.835C21.1995 204.189 20.6114 204.426 20.141 204.426C19.0825 204.426 18.1416 203.481 18.1416 202.418Z" fill="#FFEF9F"/>
<path d="M-0.000123755 202.369C-0.000123781 201.779 0.235101 201.306 0.587938 200.952C0.940775 200.597 1.52884 200.361 1.99929 200.361C2.58736 200.361 3.05781 200.597 3.41065 200.952C3.76349 201.306 3.99871 201.779 3.99871 202.369C3.99871 202.96 3.76349 203.432 3.41065 203.787C3.05781 204.141 2.46974 204.377 1.99929 204.377C0.940783 204.377 -0.000123708 203.432 -0.000123755 202.369Z" fill="#FFEF9F"/>
<path d="M-0.000123755 202.369C-0.000123781 201.779 0.235101 201.306 0.587938 200.952C0.940775 200.597 1.52884 200.361 1.99929 200.361C2.58736 200.361 3.05781 200.597 3.41065 200.952C3.76349 201.306 3.99871 201.779 3.99871 202.369C3.99871 202.96 3.76349 203.432 3.41065 203.787C3.05781 204.141 2.46974 204.377 1.99929 204.377C0.940783 204.377 -0.000123708 203.432 -0.000123755 202.369Z" fill="#FFEF9F"/>
<path d="M36.3316 220.681C36.3316 220.09 36.5668 219.617 36.9197 219.263C37.2725 218.909 37.8606 218.673 38.331 218.673C38.9191 218.673 39.3895 218.909 39.7424 219.263C40.0952 219.617 40.3304 220.09 40.3304 220.681C40.3304 221.271 40.0952 221.744 39.7424 222.098C39.3895 222.452 38.8015 222.689 38.331 222.689C37.2725 222.689 36.3316 221.744 36.3316 220.681Z" fill="#FFEF9F"/>
<path d="M18.1897 220.632C18.1897 220.042 18.425 219.569 18.7779 219.215C19.1307 218.86 19.7187 218.624 20.1892 218.624C20.7772 218.624 21.2477 218.86 21.6006 219.215C21.9534 219.569 22.1886 220.042 22.1886 220.632C22.1886 221.223 21.9534 221.695 21.6006 222.05C21.2477 222.404 20.6596 222.64 20.1892 222.64C19.1307 222.64 18.1897 221.695 18.1897 220.632Z" fill="#FFEF9F"/>
<path d="M0.0480665 220.584C0.0480664 219.993 0.283291 219.521 0.636128 219.166C0.988965 218.812 1.57703 218.576 2.04748 218.576C2.63555 218.576 3.106 218.812 3.45884 219.166C3.81168 219.521 4.0469 219.993 4.0469 220.584C4.0469 221.175 3.81168 221.647 3.45884 222.001C3.106 222.356 2.51793 222.592 2.04748 222.592C0.988973 222.592 0.0480665 221.647 0.0480665 220.584Z" fill="#FFEF9F"/>
<path d="M0.0480665 220.584C0.0480664 219.993 0.283291 219.521 0.636128 219.166C0.988965 218.812 1.57703 218.576 2.04748 218.576C2.63555 218.576 3.106 218.812 3.45884 219.166C3.81168 219.521 4.0469 219.993 4.0469 220.584C4.0469 221.175 3.81168 221.647 3.45884 222.001C3.106 222.356 2.51793 222.592 2.04748 222.592C0.988973 222.592 0.0480665 221.647 0.0480665 220.584Z" fill="#FFEF9F"/>
</svg>
