<svg width="151" height="233" viewBox="0 0 151 233" fill="none" xmlns="http://www.w3.org/2000/svg">
<path d="M-150.296 228.89C-150.294 229.7 -150.616 230.35 -151.101 230.838C-151.586 231.325 -152.396 231.652 -153.044 231.653C-153.854 231.656 -154.504 231.333 -154.991 230.848C-155.479 230.363 -155.804 229.715 -155.807 228.904C-155.809 228.094 -155.486 227.445 -155.001 226.957C-154.517 226.469 -153.707 226.143 -153.059 226.141C-151.6 226.137 -150.3 227.431 -150.296 228.89Z" fill="#C4C4C4"/>
<path d="M-125.296 228.89C-125.294 229.7 -125.616 230.35 -126.101 230.838C-126.586 231.325 -127.396 231.652 -128.044 231.653C-128.854 231.656 -129.504 231.333 -129.991 230.848C-130.479 230.363 -130.804 229.715 -130.807 228.904C-130.809 228.094 -130.486 227.445 -130.001 226.957C-129.517 226.469 -128.707 226.143 -128.059 226.141C-126.6 226.137 -125.3 227.431 -125.296 228.89Z" fill="#C4C4C4"/>
<path d="M-100.296 228.89C-100.294 229.7 -100.616 230.35 -101.101 230.838C-101.586 231.325 -102.396 231.652 -103.044 231.653C-103.854 231.656 -104.503 231.333 -104.991 230.848C-105.478 230.363 -105.804 229.715 -105.807 228.904C-105.809 228.094 -105.486 227.445 -105.001 226.957C-104.516 226.469 -103.707 226.143 -103.059 226.141C-101.6 226.137 -100.3 227.431 -100.296 228.89Z" fill="#C4C4C4"/>
<path d="M-50.2958 228.89C-50.2936 229.7 -50.616 230.35 -51.101 230.838C-51.5859 231.325 -52.3954 231.652 -53.0437 231.653C-53.854 231.656 -54.5032 231.333 -54.9907 230.848C-55.4782 230.363 -55.8041 229.715 -55.8062 228.904C-55.8084 228.094 -55.486 227.445 -55.001 226.957C-54.5161 226.469 -53.7066 226.143 -53.0583 226.141C-51.5997 226.137 -50.2996 227.431 -50.2958 228.89Z" fill="#C4C4C4"/>
<path d="M-25.2958 228.89C-25.2936 229.7 -25.616 230.35 -26.1009 230.838C-26.5859 231.325 -27.3954 231.652 -28.0437 231.653C-28.854 231.656 -29.5032 231.333 -29.9907 230.848C-30.4782 230.363 -30.8041 229.715 -30.8062 228.904C-30.8084 228.094 -30.486 227.445 -30.0011 226.957C-29.5161 226.469 -28.7066 226.143 -28.0583 226.141C-26.5997 226.137 -25.2996 227.431 -25.2958 228.89Z" fill="#C4C4C4"/>
<path d="M-0.295922 228.89C-0.293768 229.7 -0.616186 230.35 -1.10111 230.838C-1.58604 231.325 -2.39556 231.652 -3.04384 231.653C-3.8542 231.656 -4.50337 231.333 -4.99089 230.848C-5.4784 230.363 -5.80426 229.715 -5.80642 228.904C-5.80857 228.094 -5.48615 227.445 -5.00122 226.957C-4.5163 226.469 -3.70677 226.143 -3.05848 226.141C-1.59984 226.137 -0.299798 227.431 -0.295922 228.89Z" fill="#C4C4C4"/>
<path d="M-75.2955 228.89C-75.2934 229.7 -75.6158 230.35 -76.1007 230.838C-76.5857 231.325 -77.3952 231.652 -78.0435 231.653C-78.8538 231.656 -79.503 231.333 -79.9905 230.848C-80.478 230.363 -80.8039 229.715 -80.806 228.904C-80.8082 228.094 -80.4858 227.445 -80.0008 226.957C-79.5159 226.469 -78.7064 226.143 -78.0581 226.141C-76.5995 226.137 -75.2994 227.431 -75.2955 228.89Z" fill="#C4C4C4"/>
<path d="M-0.295922 228.89C-0.293768 229.7 -0.616186 230.35 -1.10111 230.838C-1.58604 231.325 -2.39556 231.652 -3.04384 231.653C-3.8542 231.656 -4.50337 231.333 -4.99089 230.848C-5.4784 230.363 -5.80426 229.715 -5.80642 228.904C-5.80857 228.094 -5.48615 227.445 -5.00122 226.957C-4.5163 226.469 -3.70677 226.143 -3.05848 226.141C-1.59984 226.137 -0.299798 227.431 -0.295922 228.89Z" fill="#C4C4C4"/>
<path d="M24.7043 228.89C24.7064 229.7 24.384 230.35 23.8991 230.838C23.4141 231.325 22.6046 231.652 21.9563 231.653C21.146 231.656 20.4968 231.333 20.0093 230.848C19.5218 230.363 19.1959 229.715 19.1938 228.904C19.1916 228.094 19.514 227.445 19.999 226.957C20.4839 226.469 21.2934 226.143 21.9417 226.141C23.4003 226.137 24.7004 227.431 24.7043 228.89Z" fill="#C4C4C4"/>
<path d="M49.7041 228.89C49.7062 229.7 49.3838 230.35 48.8989 230.838C48.414 231.325 47.6045 231.652 46.9562 231.653C46.1458 231.656 45.4966 231.333 45.0091 230.848C44.5216 230.363 44.1957 229.715 44.1936 228.904C44.1914 228.094 44.5139 227.445 44.9988 226.957C45.4837 226.469 46.2932 226.143 46.9415 226.141C48.4002 226.137 49.7002 227.431 49.7041 228.89Z" fill="#C4C4C4"/>
<path d="M99.7042 228.89C99.7063 229.7 99.3839 230.35 98.899 230.838C98.4141 231.325 97.6046 231.652 96.9563 231.653C96.1459 231.656 95.4967 231.333 95.0092 230.848C94.5217 230.363 94.1958 229.715 94.1937 228.904C94.1915 228.094 94.514 227.445 94.9989 226.957C95.4838 226.469 96.2933 226.143 96.9416 226.141C98.4003 226.137 99.7003 227.431 99.7042 228.89Z" fill="#C4C4C4"/>
<path d="M124.704 228.89C124.706 229.7 124.384 230.35 123.899 230.838C123.414 231.325 122.605 231.652 121.956 231.653C121.146 231.656 120.497 231.333 120.009 230.848C119.522 230.363 119.196 229.715 119.194 228.904C119.192 228.094 119.514 227.445 119.999 226.957C120.484 226.469 121.293 226.143 121.942 226.141C123.4 226.137 124.7 227.431 124.704 228.89Z" fill="#C4C4C4"/>
<path d="M149.704 228.89C149.706 229.7 149.384 230.35 148.899 230.838C148.414 231.325 147.604 231.652 146.956 231.653C146.146 231.656 145.497 231.333 145.009 230.848C144.522 230.363 144.196 229.715 144.194 228.904C144.191 228.094 144.514 227.445 144.999 226.957C145.484 226.469 146.293 226.143 146.941 226.141C148.4 226.137 149.7 227.431 149.704 228.89Z" fill="#C4C4C4"/>
<path d="M74.7045 228.89C74.7066 229.7 74.3842 230.35 73.8993 230.838C73.4144 231.325 72.6049 231.652 71.9566 231.653C71.1462 231.656 70.497 231.333 70.0095 230.848C69.522 230.363 69.1961 229.715 69.194 228.904C69.1918 228.094 69.5143 227.445 69.9992 226.957C70.4841 226.469 71.2936 226.143 71.9419 226.141C73.4006 226.137 74.7006 227.431 74.7045 228.89Z" fill="#C4C4C4"/>
<path d="M-150.296 203.89C-150.294 204.7 -150.616 205.35 -151.101 205.838C-151.586 206.325 -152.396 206.652 -153.044 206.653C-153.854 206.656 -154.504 206.333 -154.991 205.848C-155.479 205.363 -155.804 204.715 -155.807 203.904C-155.809 203.094 -155.486 202.445 -155.001 201.957C-154.516 201.469 -153.707 201.143 -153.059 201.141C-151.6 201.137 -150.3 202.431 -150.296 203.89Z" fill="#C4C4C4"/>
<path d="M-125.296 203.89C-125.294 204.7 -125.616 205.35 -126.101 205.838C-126.586 206.325 -127.396 206.652 -128.044 206.653C-128.854 206.656 -129.504 206.333 -129.991 205.848C-130.479 205.363 -130.804 204.715 -130.807 203.904C-130.809 203.094 -130.486 202.445 -130.001 201.957C-129.516 201.469 -128.707 201.143 -128.059 201.141C-126.6 201.137 -125.3 202.431 -125.296 203.89Z" fill="#C4C4C4"/>
<path d="M-100.296 203.89C-100.294 204.7 -100.616 205.35 -101.101 205.838C-101.586 206.325 -102.396 206.652 -103.044 206.653C-103.854 206.656 -104.503 206.333 -104.991 205.848C-105.478 205.363 -105.804 204.715 -105.807 203.904C-105.809 203.094 -105.486 202.445 -105.001 201.957C-104.516 201.469 -103.707 201.143 -103.059 201.141C-101.6 201.137 -100.3 202.431 -100.296 203.89Z" fill="#C4C4C4"/>
<path d="M-50.2958 203.89C-50.2936 204.7 -50.616 205.35 -51.101 205.838C-51.5859 206.325 -52.3954 206.652 -53.0437 206.653C-53.8541 206.656 -54.5032 206.333 -54.9907 205.848C-55.4782 205.363 -55.8041 204.715 -55.8063 203.904C-55.8084 203.094 -55.486 202.445 -55.0011 201.957C-54.5161 201.469 -53.7066 201.143 -53.0583 201.141C-51.5997 201.137 -50.2997 202.431 -50.2958 203.89Z" fill="#C4C4C4"/>
<path d="M-25.2958 203.89C-25.2936 204.7 -25.616 205.35 -26.101 205.838C-26.5859 206.325 -27.3954 206.652 -28.0437 206.653C-28.854 206.656 -29.5032 206.333 -29.9907 205.848C-30.4782 205.363 -30.8041 204.715 -30.8063 203.904C-30.8084 203.094 -30.486 202.445 -30.0011 201.957C-29.5161 201.469 -28.7066 201.143 -28.0583 201.141C-26.5997 201.137 -25.2996 202.431 -25.2958 203.89Z" fill="#C4C4C4"/>
<path d="M-0.295935 203.89C-0.293781 204.7 -0.616199 205.35 -1.10113 205.838C-1.58605 206.325 -2.39557 206.652 -3.04385 206.653C-3.85421 206.656 -4.50339 206.333 -4.9909 205.848C-5.47841 205.363 -5.80428 204.715 -5.80643 203.904C-5.80858 203.094 -5.48616 202.445 -5.00124 201.957C-4.51631 201.469 -3.70678 201.143 -3.0585 201.141C-1.59985 201.137 -0.299811 202.431 -0.295935 203.89Z" fill="#C4C4C4"/>
<path d="M-75.2956 203.89C-75.2934 204.7 -75.6158 205.35 -76.1008 205.838C-76.5857 206.325 -77.3952 206.652 -78.0435 206.653C-78.8538 206.656 -79.503 206.333 -79.9905 205.848C-80.478 205.363 -80.8039 204.715 -80.8061 203.904C-80.8082 203.094 -80.4858 202.445 -80.0009 201.957C-79.5159 201.469 -78.7064 201.143 -78.0581 201.141C-76.5995 201.137 -75.2994 202.431 -75.2956 203.89Z" fill="#C4C4C4"/>
<path d="M-0.295935 203.89C-0.293781 204.7 -0.616199 205.35 -1.10113 205.838C-1.58605 206.325 -2.39557 206.652 -3.04385 206.653C-3.85421 206.656 -4.50339 206.333 -4.9909 205.848C-5.47841 205.363 -5.80428 204.715 -5.80643 203.904C-5.80858 203.094 -5.48616 202.445 -5.00124 201.957C-4.51631 201.469 -3.70678 201.143 -3.0585 201.141C-1.59985 201.137 -0.299811 202.431 -0.295935 203.89Z" fill="#C4C4C4"/>
<path d="M24.7043 203.89C24.7064 204.7 24.384 205.35 23.8991 205.838C23.4141 206.325 22.6046 206.652 21.9563 206.653C21.146 206.656 20.4968 206.333 20.0093 205.848C19.5218 205.363 19.1959 204.715 19.1938 203.904C19.1916 203.094 19.514 202.445 19.999 201.957C20.4839 201.469 21.2934 201.143 21.9417 201.141C23.4003 201.137 24.7004 202.431 24.7043 203.89Z" fill="#C4C4C4"/>
<path d="M49.7041 203.89C49.7062 204.7 49.3838 205.35 48.8989 205.838C48.4139 206.325 47.6044 206.652 46.9562 206.653C46.1458 206.656 45.4966 206.333 45.0091 205.848C44.5216 205.363 44.1957 204.715 44.1936 203.904C44.1914 203.094 44.5138 202.445 44.9988 201.957C45.4837 201.469 46.2932 201.143 46.9415 201.141C48.4002 201.137 49.7002 202.431 49.7041 203.89Z" fill="#C4C4C4"/>
<path d="M99.7042 203.89C99.7063 204.7 99.3839 205.35 98.899 205.838C98.4141 206.325 97.6045 206.652 96.9563 206.653C96.1459 206.656 95.4967 206.333 95.0092 205.848C94.5217 205.363 94.1958 204.715 94.1937 203.904C94.1915 203.094 94.514 202.445 94.9989 201.957C95.4838 201.469 96.2933 201.143 96.9416 201.141C98.4003 201.137 99.7003 202.431 99.7042 203.89Z" fill="#C4C4C4"/>
<path d="M124.704 203.89C124.706 204.7 124.384 205.35 123.899 205.838C123.414 206.325 122.605 206.652 121.956 206.653C121.146 206.656 120.497 206.333 120.009 205.848C119.522 205.363 119.196 204.715 119.194 203.904C119.192 203.094 119.514 202.445 119.999 201.957C120.484 201.469 121.293 201.143 121.942 201.141C123.4 201.137 124.7 202.431 124.704 203.89Z" fill="#C4C4C4"/>
<path d="M149.704 203.89C149.706 204.7 149.384 205.35 148.899 205.838C148.414 206.325 147.604 206.652 146.956 206.653C146.146 206.656 145.497 206.333 145.009 205.848C144.522 205.363 144.196 204.715 144.194 203.904C144.191 203.094 144.514 202.445 144.999 201.957C145.484 201.469 146.293 201.143 146.941 201.141C148.4 201.137 149.7 202.431 149.704 203.89Z" fill="#C4C4C4"/>
<path d="M74.7045 203.89C74.7066 204.7 74.3842 205.35 73.8993 205.838C73.4144 206.325 72.6048 206.652 71.9566 206.653C71.1462 206.656 70.497 206.333 70.0095 205.848C69.522 205.363 69.1961 204.715 69.194 203.904C69.1918 203.094 69.5142 202.445 69.9992 201.957C70.4841 201.469 71.2936 201.143 71.9419 201.141C73.4006 201.137 74.7006 202.431 74.7045 203.89Z" fill="#C4C4C4"/>
<path d="M-150.296 178.89C-150.294 179.7 -150.616 180.35 -151.101 180.838C-151.586 181.325 -152.396 181.652 -153.044 181.653C-153.854 181.656 -154.504 181.333 -154.991 180.848C-155.479 180.363 -155.804 179.715 -155.807 178.904C-155.809 178.094 -155.486 177.445 -155.001 176.957C-154.516 176.469 -153.707 176.143 -153.059 176.141C-151.6 176.137 -150.3 177.431 -150.296 178.89Z" fill="#C4C4C4"/>
<path d="M-125.296 178.89C-125.294 179.7 -125.616 180.35 -126.101 180.838C-126.586 181.325 -127.396 181.652 -128.044 181.653C-128.854 181.656 -129.504 181.333 -129.991 180.848C-130.479 180.363 -130.804 179.715 -130.807 178.904C-130.809 178.094 -130.486 177.445 -130.001 176.957C-129.516 176.469 -128.707 176.143 -128.059 176.141C-126.6 176.137 -125.3 177.431 -125.296 178.89Z" fill="#C4C4C4"/>
<path d="M-100.296 178.89C-100.294 179.7 -100.616 180.35 -101.101 180.838C-101.586 181.325 -102.396 181.652 -103.044 181.653C-103.854 181.656 -104.503 181.333 -104.991 180.848C-105.478 180.363 -105.804 179.715 -105.806 178.904C-105.809 178.094 -105.486 177.445 -105.001 176.957C-104.516 176.469 -103.707 176.143 -103.059 176.141C-101.6 176.137 -100.3 177.431 -100.296 178.89Z" fill="#C4C4C4"/>
<path d="M-50.2958 178.89C-50.2936 179.7 -50.616 180.35 -51.101 180.838C-51.5859 181.325 -52.3954 181.652 -53.0437 181.653C-53.8541 181.656 -54.5032 181.333 -54.9907 180.848C-55.4782 180.363 -55.8041 179.715 -55.8063 178.904C-55.8084 178.094 -55.486 177.445 -55.0011 176.957C-54.5161 176.469 -53.7066 176.143 -53.0583 176.141C-51.5997 176.137 -50.2997 177.431 -50.2958 178.89Z" fill="#C4C4C4"/>
<path d="M-25.2958 178.89C-25.2936 179.7 -25.616 180.35 -26.101 180.838C-26.5859 181.325 -27.3954 181.652 -28.0437 181.653C-28.854 181.656 -29.5032 181.333 -29.9907 180.848C-30.4782 180.363 -30.8041 179.715 -30.8063 178.904C-30.8084 178.094 -30.486 177.445 -30.0011 176.957C-29.5161 176.469 -28.7066 176.143 -28.0583 176.141C-26.5997 176.137 -25.2996 177.431 -25.2958 178.89Z" fill="#C4C4C4"/>
<path d="M-0.295932 178.89C-0.293779 179.7 -0.616197 180.35 -1.10112 180.838C-1.58605 181.325 -2.39557 181.652 -3.04385 181.653C-3.85421 181.656 -4.50338 181.333 -4.9909 180.848C-5.47841 180.363 -5.80427 179.715 -5.80643 178.904C-5.80858 178.094 -5.48616 177.445 -5.00123 176.957C-4.51631 176.469 -3.70678 176.143 -3.05849 176.141C-1.59985 176.137 -0.299809 177.431 -0.295932 178.89Z" fill="#C4C4C4"/>
<path d="M-75.2956 178.89C-75.2934 179.7 -75.6158 180.35 -76.1007 180.838C-76.5857 181.325 -77.3952 181.652 -78.0435 181.653C-78.8538 181.656 -79.503 181.333 -79.9905 180.848C-80.478 180.363 -80.8039 179.715 -80.8061 178.904C-80.8082 178.094 -80.4858 177.445 -80.0009 176.957C-79.5159 176.469 -78.7064 176.143 -78.0581 176.141C-76.5995 176.137 -75.2994 177.431 -75.2956 178.89Z" fill="#C4C4C4"/>
<path d="M-0.295932 178.89C-0.293779 179.7 -0.616197 180.35 -1.10112 180.838C-1.58605 181.325 -2.39557 181.652 -3.04385 181.653C-3.85421 181.656 -4.50338 181.333 -4.9909 180.848C-5.47841 180.363 -5.80427 179.715 -5.80643 178.904C-5.80858 178.094 -5.48616 177.445 -5.00123 176.957C-4.51631 176.469 -3.70678 176.143 -3.05849 176.141C-1.59985 176.137 -0.299809 177.431 -0.295932 178.89Z" fill="#C4C4C4"/>
<path d="M24.7043 178.89C24.7064 179.7 24.384 180.35 23.8991 180.838C23.4141 181.325 22.6046 181.652 21.9563 181.653C21.146 181.656 20.4968 181.333 20.0093 180.848C19.5218 180.363 19.1959 179.715 19.1938 178.904C19.1916 178.094 19.514 177.445 19.999 176.957C20.4839 176.469 21.2934 176.143 21.9417 176.141C23.4003 176.137 24.7004 177.431 24.7043 178.89Z" fill="#C4C4C4"/>
<path d="M49.7041 178.89C49.7062 179.7 49.3838 180.35 48.8989 180.838C48.4139 181.325 47.6044 181.652 46.9562 181.653C46.1458 181.656 45.4966 181.333 45.0091 180.848C44.5216 180.363 44.1957 179.715 44.1936 178.904C44.1914 178.094 44.5138 177.445 44.9988 176.957C45.4837 176.469 46.2932 176.143 46.9415 176.141C48.4002 176.137 49.7002 177.431 49.7041 178.89Z" fill="#C4C4C4"/>
<path d="M99.7042 178.89C99.7063 179.7 99.3839 180.35 98.899 180.838C98.4141 181.325 97.6046 181.652 96.9563 181.653C96.1459 181.656 95.4967 181.333 95.0092 180.848C94.5217 180.363 94.1958 179.715 94.1937 178.904C94.1915 178.094 94.514 177.445 94.9989 176.957C95.4838 176.469 96.2933 176.143 96.9416 176.141C98.4003 176.137 99.7003 177.431 99.7042 178.89Z" fill="#C4C4C4"/>
<path d="M124.704 178.89C124.706 179.7 124.384 180.35 123.899 180.838C123.414 181.325 122.605 181.652 121.956 181.653C121.146 181.656 120.497 181.333 120.009 180.848C119.522 180.363 119.196 179.715 119.194 178.904C119.192 178.094 119.514 177.445 119.999 176.957C120.484 176.469 121.293 176.143 121.942 176.141C123.4 176.137 124.7 177.431 124.704 178.89Z" fill="#C4C4C4"/>
<path d="M149.704 178.89C149.706 179.7 149.384 180.35 148.899 180.838C148.414 181.325 147.604 181.652 146.956 181.653C146.146 181.656 145.497 181.333 145.009 180.848C144.522 180.363 144.196 179.715 144.194 178.904C144.191 178.094 144.514 177.445 144.999 176.957C145.484 176.469 146.293 176.143 146.941 176.141C148.4 176.137 149.7 177.431 149.704 178.89Z" fill="#C4C4C4"/>
<path d="M74.7045 178.89C74.7066 179.7 74.3842 180.35 73.8993 180.838C73.4144 181.325 72.6049 181.652 71.9566 181.653C71.1462 181.656 70.497 181.333 70.0095 180.848C69.522 180.363 69.1961 179.715 69.194 178.904C69.1918 178.094 69.5142 177.445 69.9992 176.957C70.4841 176.469 71.2936 176.143 71.9419 176.141C73.4006 176.137 74.7006 177.431 74.7045 178.89Z" fill="#C4C4C4"/>
<path d="M-150.296 153.89C-150.294 154.7 -150.616 155.35 -151.101 155.838C-151.586 156.325 -152.396 156.652 -153.044 156.653C-153.854 156.656 -154.504 156.333 -154.991 155.848C-155.478 155.363 -155.804 154.715 -155.807 153.904C-155.809 153.094 -155.486 152.445 -155.001 151.957C-154.516 151.469 -153.707 151.143 -153.059 151.141C-151.6 151.137 -150.3 152.431 -150.296 153.89Z" fill="#C4C4C4"/>
<path d="M-125.296 153.89C-125.294 154.7 -125.616 155.35 -126.101 155.838C-126.586 156.325 -127.396 156.652 -128.044 156.653C-128.854 156.656 -129.504 156.333 -129.991 155.848C-130.478 155.363 -130.804 154.715 -130.807 153.904C-130.809 153.094 -130.486 152.445 -130.001 151.957C-129.516 151.469 -128.707 151.143 -128.059 151.141C-126.6 151.137 -125.3 152.431 -125.296 153.89Z" fill="#C4C4C4"/>
<path d="M-100.296 153.89C-100.294 154.7 -100.616 155.35 -101.101 155.838C-101.586 156.325 -102.396 156.652 -103.044 156.653C-103.854 156.655 -104.503 156.333 -104.991 155.848C-105.478 155.363 -105.804 154.715 -105.806 153.904C-105.809 153.094 -105.486 152.445 -105.001 151.957C-104.516 151.469 -103.707 151.143 -103.059 151.141C-101.6 151.137 -100.3 152.431 -100.296 153.89Z" fill="#C4C4C4"/>
<path d="M-50.2958 153.89C-50.2936 154.7 -50.6161 155.35 -51.101 155.838C-51.5859 156.325 -52.3954 156.652 -53.0437 156.653C-53.8541 156.656 -54.5032 156.333 -54.9907 155.848C-55.4782 155.363 -55.8041 154.715 -55.8063 153.904C-55.8084 153.094 -55.486 152.445 -55.0011 151.957C-54.5161 151.469 -53.7066 151.143 -53.0583 151.141C-51.5997 151.137 -50.2997 152.431 -50.2958 153.89Z" fill="#C4C4C4"/>
<path d="M-25.2958 153.89C-25.2936 154.7 -25.616 155.35 -26.101 155.838C-26.5859 156.325 -27.3954 156.652 -28.0437 156.653C-28.8541 156.656 -29.5032 156.333 -29.9907 155.848C-30.4783 155.363 -30.8041 154.715 -30.8063 153.904C-30.8084 153.094 -30.486 152.445 -30.0011 151.957C-29.5161 151.469 -28.7066 151.143 -28.0583 151.141C-26.5997 151.137 -25.2997 152.431 -25.2958 153.89Z" fill="#C4C4C4"/>
<path d="M-0.295945 153.89C-0.293792 154.7 -0.61621 155.35 -1.10114 155.838C-1.58606 156.325 -2.39558 156.652 -3.04386 156.653C-3.85422 156.656 -4.5034 156.333 -4.99091 155.848C-5.47842 155.363 -5.80429 154.715 -5.80644 153.904C-5.80859 153.094 -5.48617 152.445 -5.00125 151.957C-4.51632 151.469 -3.70679 151.143 -3.05851 151.141C-1.59986 151.137 -0.299822 152.431 -0.295945 153.89Z" fill="#C4C4C4"/>
<path d="M-75.2956 153.89C-75.2934 154.7 -75.6158 155.35 -76.1008 155.838C-76.5857 156.325 -77.3952 156.652 -78.0435 156.653C-78.8538 156.655 -79.503 156.333 -79.9905 155.848C-80.478 155.363 -80.8039 154.715 -80.8061 153.904C-80.8082 153.094 -80.4858 152.445 -80.0009 151.957C-79.5159 151.469 -78.7064 151.143 -78.0581 151.141C-76.5995 151.137 -75.2994 152.431 -75.2956 153.89Z" fill="#C4C4C4"/>
<path d="M-0.295945 153.89C-0.293792 154.7 -0.61621 155.35 -1.10114 155.838C-1.58606 156.325 -2.39558 156.652 -3.04386 156.653C-3.85422 156.656 -4.5034 156.333 -4.99091 155.848C-5.47842 155.363 -5.80429 154.715 -5.80644 153.904C-5.80859 153.094 -5.48617 152.445 -5.00125 151.957C-4.51632 151.469 -3.70679 151.143 -3.05851 151.141C-1.59986 151.137 -0.299822 152.431 -0.295945 153.89Z" fill="#C4C4C4"/>
<path d="M24.7042 153.89C24.7064 154.7 24.384 155.35 23.8991 155.838C23.4141 156.325 22.6046 156.652 21.9563 156.653C21.146 156.656 20.4968 156.333 20.0093 155.848C19.5218 155.363 19.1959 154.715 19.1938 153.904C19.1916 153.094 19.514 152.445 19.9989 151.957C20.4839 151.469 21.2934 151.143 21.9417 151.141C23.4003 151.137 24.7004 152.431 24.7042 153.89Z" fill="#C4C4C4"/>
<path d="M49.7041 153.89C49.7062 154.7 49.3838 155.35 48.8989 155.838C48.4139 156.325 47.6044 156.652 46.9561 156.653C46.1458 156.655 45.4966 156.333 45.0091 155.848C44.5216 155.363 44.1957 154.715 44.1936 153.904C44.1914 153.094 44.5138 152.445 44.9988 151.957C45.4837 151.469 46.2932 151.143 46.9415 151.141C48.4001 151.137 49.7002 152.431 49.7041 153.89Z" fill="#C4C4C4"/>
<path d="M99.7042 153.89C99.7063 154.7 99.3839 155.35 98.899 155.838C98.4141 156.325 97.6046 156.652 96.9563 156.653C96.1459 156.656 95.4967 156.333 95.0092 155.848C94.5217 155.363 94.1958 154.715 94.1937 153.904C94.1915 153.094 94.514 152.445 94.9989 151.957C95.4838 151.469 96.2933 151.143 96.9416 151.141C98.4003 151.137 99.7003 152.431 99.7042 153.89Z" fill="#C4C4C4"/>
<path d="M124.704 153.89C124.706 154.7 124.384 155.35 123.899 155.838C123.414 156.325 122.605 156.652 121.956 156.653C121.146 156.656 120.497 156.333 120.009 155.848C119.522 155.363 119.196 154.715 119.194 153.904C119.192 153.094 119.514 152.445 119.999 151.957C120.484 151.469 121.293 151.143 121.942 151.141C123.4 151.137 124.7 152.431 124.704 153.89Z" fill="#C4C4C4"/>
<path d="M149.704 153.89C149.706 154.7 149.384 155.35 148.899 155.838C148.414 156.325 147.604 156.652 146.956 156.653C146.146 156.655 145.497 156.333 145.009 155.848C144.522 155.363 144.196 154.715 144.194 153.904C144.191 153.094 144.514 152.445 144.999 151.957C145.484 151.469 146.293 151.143 146.941 151.141C148.4 151.137 149.7 152.431 149.704 153.89Z" fill="#C4C4C4"/>
<path d="M74.7045 153.89C74.7066 154.7 74.3842 155.35 73.8993 155.838C73.4143 156.325 72.6048 156.652 71.9565 156.653C71.1462 156.655 70.497 156.333 70.0095 155.848C69.522 155.363 69.1961 154.715 69.194 153.904C69.1918 153.094 69.5142 152.445 69.9992 151.957C70.4841 151.469 71.2936 151.143 71.9419 151.141C73.4006 151.137 74.7006 152.431 74.7045 153.89Z" fill="#C4C4C4"/>
<path d="M-150.296 128.89C-150.294 129.7 -150.616 130.35 -151.101 130.838C-151.586 131.325 -152.396 131.652 -153.044 131.653C-153.854 131.656 -154.503 131.333 -154.991 130.848C-155.478 130.363 -155.804 129.715 -155.806 128.904C-155.809 128.094 -155.486 127.445 -155.001 126.957C-154.516 126.469 -153.707 126.143 -153.059 126.141C-151.6 126.137 -150.3 127.431 -150.296 128.89Z" fill="#C4C4C4"/>
<path d="M-125.296 128.89C-125.294 129.7 -125.616 130.35 -126.101 130.838C-126.586 131.325 -127.396 131.652 -128.044 131.653C-128.854 131.656 -129.503 131.333 -129.991 130.848C-130.478 130.363 -130.804 129.715 -130.806 128.904C-130.809 128.094 -130.486 127.445 -130.001 126.957C-129.516 126.469 -128.707 126.143 -128.059 126.141C-126.6 126.137 -125.3 127.431 -125.296 128.89Z" fill="#C4C4C4"/>
<path d="M-100.296 128.89C-100.294 129.7 -100.616 130.35 -101.101 130.838C-101.586 131.325 -102.396 131.652 -103.044 131.653C-103.854 131.656 -104.503 131.333 -104.991 130.848C-105.478 130.363 -105.804 129.715 -105.806 128.904C-105.809 128.094 -105.486 127.445 -105.001 126.957C-104.516 126.469 -103.707 126.143 -103.059 126.141C-101.6 126.137 -100.3 127.431 -100.296 128.89Z" fill="#C4C4C4"/>
<path d="M-50.2958 128.89C-50.2936 129.7 -50.616 130.35 -51.101 130.838C-51.5859 131.325 -52.3954 131.652 -53.0437 131.653C-53.8541 131.656 -54.5032 131.333 -54.9907 130.848C-55.4782 130.363 -55.8041 129.715 -55.8063 128.904C-55.8084 128.094 -55.486 127.445 -55.0011 126.957C-54.5161 126.469 -53.7066 126.143 -53.0583 126.141C-51.5997 126.137 -50.2997 127.431 -50.2958 128.89Z" fill="#C4C4C4"/>
<path d="M-25.2958 128.89C-25.2936 129.7 -25.616 130.35 -26.101 130.838C-26.5859 131.325 -27.3954 131.652 -28.0437 131.653C-28.854 131.656 -29.5032 131.333 -29.9907 130.848C-30.4782 130.363 -30.8041 129.715 -30.8063 128.904C-30.8084 128.094 -30.486 127.445 -30.0011 126.957C-29.5161 126.469 -28.7066 126.143 -28.0583 126.141C-26.5997 126.137 -25.2996 127.431 -25.2958 128.89Z" fill="#C4C4C4"/>
<path d="M-0.295943 128.89C-0.29379 129.7 -0.616208 130.35 -1.10114 130.838C-1.58606 131.325 -2.39558 131.652 -3.04386 131.653C-3.85422 131.655 -4.5034 131.333 -4.99091 130.848C-5.47842 130.363 -5.80428 129.715 -5.80644 128.904C-5.80859 128.094 -5.48617 127.445 -5.00124 126.957C-4.51632 126.469 -3.70679 126.143 -3.0585 126.141C-1.59986 126.137 -0.29982 127.431 -0.295943 128.89Z" fill="#C4C4C4"/>
<path d="M-75.2956 128.89C-75.2934 129.7 -75.6158 130.35 -76.1008 130.838C-76.5857 131.325 -77.3952 131.652 -78.0435 131.653C-78.8538 131.655 -79.503 131.333 -79.9905 130.848C-80.478 130.363 -80.8039 129.715 -80.8061 128.904C-80.8082 128.094 -80.4858 127.445 -80.0009 126.957C-79.5159 126.469 -78.7064 126.143 -78.0581 126.141C-76.5995 126.137 -75.2994 127.431 -75.2956 128.89Z" fill="#C4C4C4"/>
<path d="M-0.295943 128.89C-0.29379 129.7 -0.616208 130.35 -1.10114 130.838C-1.58606 131.325 -2.39558 131.652 -3.04386 131.653C-3.85422 131.655 -4.5034 131.333 -4.99091 130.848C-5.47842 130.363 -5.80428 129.715 -5.80644 128.904C-5.80859 128.094 -5.48617 127.445 -5.00124 126.957C-4.51632 126.469 -3.70679 126.143 -3.0585 126.141C-1.59986 126.137 -0.29982 127.431 -0.295943 128.89Z" fill="#C4C4C4"/>
<path d="M24.7042 128.89C24.7064 129.7 24.384 130.35 23.8991 130.838C23.4141 131.325 22.6046 131.652 21.9563 131.653C21.146 131.655 20.4968 131.333 20.0093 130.848C19.5218 130.363 19.1959 129.715 19.1938 128.904C19.1916 128.094 19.514 127.445 19.999 126.957C20.4839 126.469 21.2934 126.143 21.9417 126.141C23.4003 126.137 24.7004 127.431 24.7042 128.89Z" fill="#C4C4C4"/>
<path d="M49.7041 128.89C49.7062 129.7 49.3838 130.35 48.8989 130.838C48.4139 131.325 47.6044 131.652 46.9561 131.653C46.1458 131.655 45.4966 131.333 45.0091 130.848C44.5216 130.363 44.1957 129.715 44.1936 128.904C44.1914 128.094 44.5138 127.445 44.9988 126.957C45.4837 126.469 46.2932 126.143 46.9415 126.141C48.4001 126.137 49.7002 127.431 49.7041 128.89Z" fill="#C4C4C4"/>
<path d="M99.7042 128.89C99.7064 129.7 99.3839 130.35 98.899 130.838C98.4141 131.325 97.6046 131.652 96.9563 131.653C96.1459 131.656 95.4967 131.333 95.0092 130.848C94.5217 130.363 94.1959 129.715 94.1937 128.904C94.1915 128.094 94.514 127.445 94.9989 126.957C95.4838 126.469 96.2933 126.143 96.9416 126.141C98.4003 126.137 99.7003 127.431 99.7042 128.89Z" fill="#C4C4C4"/>
<path d="M124.704 128.89C124.706 129.7 124.384 130.35 123.899 130.838C123.414 131.325 122.605 131.652 121.956 131.653C121.146 131.656 120.497 131.333 120.009 130.848C119.522 130.363 119.196 129.715 119.194 128.904C119.192 128.094 119.514 127.445 119.999 126.957C120.484 126.469 121.293 126.143 121.942 126.141C123.4 126.137 124.7 127.431 124.704 128.89Z" fill="#C4C4C4"/>
<path d="M149.704 128.89C149.706 129.7 149.384 130.35 148.899 130.838C148.414 131.325 147.604 131.652 146.956 131.653C146.146 131.655 145.497 131.333 145.009 130.848C144.522 130.363 144.196 129.715 144.194 128.904C144.191 128.094 144.514 127.445 144.999 126.957C145.484 126.469 146.293 126.143 146.941 126.141C148.4 126.137 149.7 127.431 149.704 128.89Z" fill="#C4C4C4"/>
<path d="M74.7045 128.89C74.7066 129.7 74.3842 130.35 73.8993 130.838C73.4143 131.325 72.6048 131.652 71.9566 131.653C71.1462 131.655 70.497 131.333 70.0095 130.848C69.522 130.363 69.1961 129.715 69.194 128.904C69.1918 128.094 69.5142 127.445 69.9992 126.957C70.4841 126.469 71.2936 126.143 71.9419 126.141C73.4006 126.137 74.7006 127.431 74.7045 128.89Z" fill="#C4C4C4"/>
<path d="M-150.296 103.89C-150.294 104.7 -150.616 105.35 -151.101 105.838C-151.586 106.325 -152.396 106.652 -153.044 106.653C-153.854 106.656 -154.503 106.333 -154.991 105.848C-155.478 105.363 -155.804 104.715 -155.806 103.904C-155.809 103.094 -155.486 102.445 -155.001 101.957C-154.516 101.469 -153.707 101.143 -153.059 101.141C-151.6 101.137 -150.3 102.431 -150.296 103.89Z" fill="#C4C4C4"/>
<path d="M-125.296 103.89C-125.294 104.7 -125.616 105.35 -126.101 105.838C-126.586 106.325 -127.396 106.652 -128.044 106.653C-128.854 106.656 -129.503 106.333 -129.991 105.848C-130.478 105.363 -130.804 104.715 -130.806 103.904C-130.809 103.094 -130.486 102.445 -130.001 101.957C-129.516 101.469 -128.707 101.143 -128.059 101.141C-126.6 101.137 -125.3 102.431 -125.296 103.89Z" fill="#C4C4C4"/>
<path d="M-100.296 103.89C-100.294 104.7 -100.616 105.35 -101.101 105.838C-101.586 106.325 -102.396 106.652 -103.044 106.653C-103.854 106.655 -104.503 106.333 -104.991 105.848C-105.478 105.363 -105.804 104.715 -105.806 103.904C-105.809 103.094 -105.486 102.445 -105.001 101.957C-104.516 101.469 -103.707 101.143 -103.059 101.141C-101.6 101.137 -100.3 102.431 -100.296 103.89Z" fill="#C4C4C4"/>
<path d="M-50.2958 103.89C-50.2936 104.7 -50.6161 105.35 -51.101 105.838C-51.5859 106.325 -52.3954 106.652 -53.0437 106.653C-53.8541 106.656 -54.5032 106.333 -54.9907 105.848C-55.4783 105.363 -55.8041 104.715 -55.8063 103.904C-55.8084 103.094 -55.486 102.445 -55.0011 101.957C-54.5162 101.469 -53.7066 101.143 -53.0584 101.141C-51.5997 101.137 -50.2997 102.431 -50.2958 103.89Z" fill="#C4C4C4"/>
<path d="M-25.2958 103.89C-25.2936 104.7 -25.616 105.35 -26.101 105.838C-26.5859 106.325 -27.3954 106.652 -28.0437 106.653C-28.8541 106.656 -29.5032 106.333 -29.9907 105.848C-30.4783 105.363 -30.8041 104.715 -30.8063 103.904C-30.8084 103.094 -30.486 102.445 -30.0011 101.957C-29.5162 101.469 -28.7066 101.143 -28.0583 101.141C-26.5997 101.137 -25.2997 102.431 -25.2958 103.89Z" fill="#C4C4C4"/>
<path d="M-0.295956 103.89C-0.293802 104.7 -0.616221 105.35 -1.10115 105.838C-1.58608 106.325 -2.39559 106.652 -3.04387 106.653C-3.85423 106.655 -4.50341 106.333 -4.99092 105.848C-5.47843 105.363 -5.8043 104.715 -5.80645 103.904C-5.8086 103.094 -5.48619 102.445 -5.00126 101.957C-4.51633 101.469 -3.7068 101.143 -3.05852 101.141C-1.59987 101.137 -0.299833 102.431 -0.295956 103.89Z" fill="#C4C4C4"/>
<path d="M-75.2956 103.89C-75.2934 104.7 -75.6158 105.35 -76.1008 105.838C-76.5857 106.325 -77.3952 106.652 -78.0435 106.653C-78.8539 106.655 -79.503 106.333 -79.9905 105.848C-80.4781 105.363 -80.8039 104.715 -80.8061 103.904C-80.8082 103.094 -80.4858 102.445 -80.0009 101.957C-79.516 101.469 -78.7064 101.143 -78.0581 101.141C-76.5995 101.137 -75.2995 102.431 -75.2956 103.89Z" fill="#C4C4C4"/>
<path d="M-0.295956 103.89C-0.293802 104.7 -0.616221 105.35 -1.10115 105.838C-1.58608 106.325 -2.39559 106.652 -3.04387 106.653C-3.85423 106.655 -4.50341 106.333 -4.99092 105.848C-5.47843 105.363 -5.8043 104.715 -5.80645 103.904C-5.8086 103.094 -5.48619 102.445 -5.00126 101.957C-4.51633 101.469 -3.7068 101.143 -3.05852 101.141C-1.59987 101.137 -0.299833 102.431 -0.295956 103.89Z" fill="#C4C4C4"/>
<path d="M24.7042 103.89C24.7064 104.7 24.384 105.35 23.899 105.838C23.4141 106.325 22.6046 106.652 21.9563 106.653C21.1459 106.656 20.4968 106.333 20.0093 105.848C19.5218 105.363 19.1959 104.715 19.1937 103.904C19.1916 103.094 19.514 102.445 19.9989 101.957C20.4839 101.469 21.2934 101.143 21.9417 101.141C23.4003 101.137 24.7004 102.431 24.7042 103.89Z" fill="#C4C4C4"/>
<path d="M49.704 103.89C49.7062 104.7 49.3838 105.35 48.8989 105.838C48.4139 106.325 47.6044 106.652 46.9561 106.653C46.1458 106.655 45.4966 106.333 45.0091 105.848C44.5216 105.363 44.1957 104.715 44.1936 103.904C44.1914 103.094 44.5138 102.445 44.9988 101.957C45.4837 101.469 46.2932 101.143 46.9415 101.141C48.4001 101.137 49.7002 102.431 49.704 103.89Z" fill="#C4C4C4"/>
<path d="M99.7042 103.89C99.7063 104.7 99.3839 105.35 98.899 105.838C98.4141 106.325 97.6046 106.652 96.9563 106.653C96.1459 106.656 95.4967 106.333 95.0092 105.848C94.5217 105.363 94.1959 104.715 94.1937 103.904C94.1915 103.094 94.514 102.445 94.9989 101.957C95.4838 101.469 96.2933 101.143 96.9416 101.141C98.4003 101.137 99.7003 102.431 99.7042 103.89Z" fill="#C4C4C4"/>
<path d="M124.704 103.89C124.706 104.7 124.384 105.35 123.899 105.838C123.414 106.325 122.605 106.652 121.956 106.653C121.146 106.656 120.497 106.333 120.009 105.848C119.522 105.363 119.196 104.715 119.194 103.904C119.192 103.094 119.514 102.445 119.999 101.957C120.484 101.469 121.293 101.143 121.942 101.141C123.4 101.137 124.7 102.431 124.704 103.89Z" fill="#C4C4C4"/>
<path d="M149.704 103.89C149.706 104.7 149.384 105.35 148.899 105.838C148.414 106.325 147.604 106.652 146.956 106.653C146.146 106.655 145.497 106.333 145.009 105.848C144.522 105.363 144.196 104.715 144.194 103.904C144.191 103.094 144.514 102.445 144.999 101.957C145.484 101.469 146.293 101.143 146.941 101.141C148.4 101.137 149.7 102.431 149.704 103.89Z" fill="#C4C4C4"/>
<path d="M74.7045 103.89C74.7066 104.7 74.3842 105.35 73.8993 105.838C73.4143 106.325 72.6048 106.652 71.9565 106.653C71.1462 106.655 70.497 106.333 70.0095 105.848C69.522 105.363 69.1961 104.715 69.194 103.904C69.1918 103.094 69.5142 102.445 69.9992 101.957C70.4841 101.469 71.2936 101.143 71.9419 101.141C73.4005 101.137 74.7006 102.431 74.7045 103.89Z" fill="#C4C4C4"/>
<path d="M-150.296 78.8898C-150.294 79.7004 -150.616 80.3499 -151.101 80.8376C-151.586 81.3252 -152.396 81.6516 -153.044 81.6534C-153.854 81.6555 -154.503 81.333 -154.991 80.8479C-155.478 80.3628 -155.804 79.7151 -155.806 78.9044C-155.809 78.0938 -155.486 77.4445 -155.001 76.9569C-154.516 76.4692 -153.707 76.1428 -153.058 76.1411C-151.6 76.1372 -150.3 77.4307 -150.296 78.8898Z" fill="#C4C4C4"/>
<path d="M-125.296 78.8898C-125.294 79.7004 -125.616 80.3499 -126.101 80.8376C-126.586 81.3252 -127.396 81.6516 -128.044 81.6534C-128.854 81.6555 -129.503 81.333 -129.991 80.8479C-130.478 80.3628 -130.804 79.7151 -130.806 78.9044C-130.809 78.0938 -130.486 77.4445 -130.001 76.9569C-129.516 76.4692 -128.707 76.1428 -128.059 76.1411C-126.6 76.1372 -125.3 77.4307 -125.296 78.8898Z" fill="#C4C4C4"/>
<path d="M-100.296 78.8898C-100.294 79.7004 -100.616 80.3499 -101.101 80.8376C-101.586 81.3252 -102.396 81.6516 -103.044 81.6533C-103.854 81.6555 -104.503 81.333 -104.991 80.8479C-105.478 80.3628 -105.804 79.7151 -105.806 78.9044C-105.809 78.0938 -105.486 77.4445 -105.001 76.9569C-104.516 76.4692 -103.707 76.1428 -103.059 76.1411C-101.6 76.1372 -100.3 77.4307 -100.296 78.8898Z" fill="#C4C4C4"/>
<path d="M-50.2958 78.8898C-50.2936 79.7004 -50.6161 80.3499 -51.101 80.8376C-51.5859 81.3252 -52.3954 81.6516 -53.0437 81.6534C-53.8541 81.6555 -54.5032 81.333 -54.9907 80.8479C-55.4783 80.3628 -55.8041 79.7151 -55.8063 78.9044C-55.8084 78.0938 -55.486 77.4445 -55.0011 76.9569C-54.5162 76.4692 -53.7066 76.1428 -53.0584 76.1411C-51.5997 76.1372 -50.2997 77.4307 -50.2958 78.8898Z" fill="#C4C4C4"/>
<path d="M-25.2958 78.8898C-25.2936 79.7004 -25.616 80.3499 -26.101 80.8376C-26.5859 81.3252 -27.3954 81.6516 -28.0437 81.6534C-28.8541 81.6555 -29.5032 81.333 -29.9907 80.8479C-30.4783 80.3628 -30.8041 79.7151 -30.8063 78.9044C-30.8084 78.0938 -30.486 77.4445 -30.0011 76.9569C-29.5162 76.4692 -28.7066 76.1428 -28.0583 76.1411C-26.5997 76.1372 -25.2997 77.4307 -25.2958 78.8898Z" fill="#C4C4C4"/>
<path d="M-0.295954 78.8898C-0.2938 79.7004 -0.616218 80.3499 -1.10115 80.8376C-1.58607 81.3252 -2.39559 81.6516 -3.04387 81.6533C-3.85423 81.6555 -4.50341 81.333 -4.99092 80.8479C-5.47843 80.3628 -5.80429 79.7151 -5.80645 78.9044C-5.8086 78.0938 -5.48618 77.4445 -5.00126 76.9569C-4.51633 76.4692 -3.7068 76.1428 -3.05852 76.1411C-1.59987 76.1372 -0.29983 77.4307 -0.295954 78.8898Z" fill="#C4C4C4"/>
<path d="M-75.2956 78.8898C-75.2934 79.7004 -75.6158 80.3499 -76.1008 80.8375C-76.5857 81.3252 -77.3952 81.6516 -78.0435 81.6533C-78.8539 81.6555 -79.503 81.333 -79.9905 80.8479C-80.4781 80.3628 -80.8039 79.7151 -80.8061 78.9044C-80.8082 78.0938 -80.4858 77.4445 -80.0009 76.9569C-79.516 76.4692 -78.7064 76.1428 -78.0581 76.1411C-76.5995 76.1372 -75.2995 77.4307 -75.2956 78.8898Z" fill="#C4C4C4"/>
<path d="M-0.295954 78.8898C-0.2938 79.7004 -0.616218 80.3499 -1.10115 80.8376C-1.58607 81.3252 -2.39559 81.6516 -3.04387 81.6533C-3.85423 81.6555 -4.50341 81.333 -4.99092 80.8479C-5.47843 80.3628 -5.80429 79.7151 -5.80645 78.9044C-5.8086 78.0938 -5.48618 77.4445 -5.00126 76.9569C-4.51633 76.4692 -3.7068 76.1428 -3.05852 76.1411C-1.59987 76.1372 -0.29983 77.4307 -0.295954 78.8898Z" fill="#C4C4C4"/>
<path d="M24.7042 78.8898C24.7064 79.7004 24.384 80.3499 23.899 80.8376C23.4141 81.3252 22.6046 81.6516 21.9563 81.6534C21.1459 81.6555 20.4968 81.333 20.0093 80.8479C19.5218 80.3628 19.1959 79.7151 19.1937 78.9044C19.1916 78.0938 19.514 77.4445 19.9989 76.9569C20.4839 76.4692 21.2934 76.1428 21.9417 76.1411C23.4003 76.1372 24.7004 77.4307 24.7042 78.8898Z" fill="#C4C4C4"/>
<path d="M49.704 78.8898C49.7062 79.7004 49.3838 80.3499 48.8989 80.8375C48.4139 81.3252 47.6044 81.6516 46.9561 81.6533C46.1458 81.6555 45.4966 81.333 45.0091 80.8479C44.5216 80.3628 44.1957 79.7151 44.1936 78.9044C44.1914 78.0938 44.5138 77.4445 44.9988 76.9569C45.4837 76.4692 46.2932 76.1428 46.9415 76.1411C48.4001 76.1372 49.7002 77.4307 49.704 78.8898Z" fill="#C4C4C4"/>
<path d="M99.7042 78.8898C99.7064 79.7004 99.3839 80.3499 98.899 80.8376C98.4141 81.3252 97.6046 81.6516 96.9563 81.6534C96.1459 81.6555 95.4967 81.333 95.0092 80.8479C94.5217 80.3628 94.1959 79.7151 94.1937 78.9044C94.1916 78.0938 94.514 77.4445 94.9989 76.9569C95.4838 76.4692 96.2934 76.1428 96.9416 76.1411C98.4003 76.1372 99.7003 77.4307 99.7042 78.8898Z" fill="#C4C4C4"/>
<path d="M124.704 78.8898C124.706 79.7004 124.384 80.3499 123.899 80.8376C123.414 81.3252 122.605 81.6516 121.956 81.6534C121.146 81.6555 120.497 81.333 120.009 80.8479C119.522 80.3628 119.196 79.7151 119.194 78.9044C119.192 78.0938 119.514 77.4445 119.999 76.9569C120.484 76.4692 121.293 76.1428 121.942 76.1411C123.4 76.1372 124.7 77.4307 124.704 78.8898Z" fill="#C4C4C4"/>
<path d="M149.704 78.8898C149.706 79.7004 149.384 80.3499 148.899 80.8375C148.414 81.3252 147.604 81.6516 146.956 81.6533C146.146 81.6555 145.497 81.333 145.009 80.8479C144.522 80.3628 144.196 79.7151 144.194 78.9044C144.191 78.0938 144.514 77.4445 144.999 76.9569C145.484 76.4692 146.293 76.1428 146.941 76.1411C148.4 76.1372 149.7 77.4307 149.704 78.8898Z" fill="#C4C4C4"/>
<path d="M74.7045 78.8898C74.7066 79.7004 74.3842 80.3499 73.8993 80.8375C73.4143 81.3252 72.6048 81.6516 71.9565 81.6533C71.1462 81.6555 70.497 81.333 70.0095 80.8479C69.522 80.3628 69.1961 79.7151 69.194 78.9044C69.1918 78.0938 69.5142 77.4445 69.9992 76.9569C70.4841 76.4692 71.2936 76.1428 71.9419 76.1411C73.4005 76.1372 74.7006 77.4307 74.7045 78.8898Z" fill="#C4C4C4"/>
<path d="M-150.296 53.8898C-150.294 54.7004 -150.616 55.3499 -151.101 55.8376C-151.586 56.3252 -152.396 56.6516 -153.044 56.6534C-153.854 56.6555 -154.503 56.333 -154.991 55.8479C-155.478 55.3628 -155.804 54.7151 -155.806 53.9044C-155.809 53.0938 -155.486 52.4445 -155.001 51.9569C-154.516 51.4692 -153.707 51.1428 -153.058 51.1411C-151.6 51.1372 -150.3 52.4307 -150.296 53.8898Z" fill="#C4C4C4"/>
<path d="M-125.296 53.8898C-125.294 54.7004 -125.616 55.3499 -126.101 55.8376C-126.586 56.3252 -127.396 56.6516 -128.044 56.6534C-128.854 56.6555 -129.503 56.333 -129.991 55.8479C-130.478 55.3628 -130.804 54.7151 -130.806 53.9044C-130.809 53.0938 -130.486 52.4445 -130.001 51.9569C-129.516 51.4692 -128.707 51.1428 -128.058 51.1411C-126.6 51.1372 -125.3 52.4307 -125.296 53.8898Z" fill="#C4C4C4"/>
<path d="M-100.296 53.8898C-100.294 54.7004 -100.616 55.3499 -101.101 55.8376C-101.586 56.3252 -102.396 56.6516 -103.044 56.6534C-103.854 56.6555 -104.503 56.333 -104.991 55.8479C-105.478 55.3628 -105.804 54.7151 -105.807 53.9044C-105.809 53.0938 -105.486 52.4445 -105.001 51.9569C-104.516 51.4692 -103.707 51.1428 -103.059 51.1411C-101.6 51.1372 -100.3 52.4307 -100.296 53.8898Z" fill="#C4C4C4"/>
<path d="M-50.2958 53.8898C-50.2937 54.7004 -50.6161 55.3499 -51.101 55.8376C-51.5859 56.3252 -52.3954 56.6516 -53.0437 56.6534C-53.8541 56.6555 -54.5032 56.333 -54.9908 55.8479C-55.4783 55.3628 -55.8041 54.7151 -55.8063 53.9044C-55.8084 53.0938 -55.486 52.4445 -55.0011 51.9569C-54.5162 51.4692 -53.7067 51.1428 -53.0584 51.1411C-51.5997 51.1372 -50.2997 52.4307 -50.2958 53.8898Z" fill="#C4C4C4"/>
<path d="M-25.2958 53.8898C-25.2936 54.7004 -25.6161 55.3499 -26.101 55.8376C-26.5859 56.3252 -27.3954 56.6516 -28.0437 56.6534C-28.8541 56.6555 -29.5032 56.333 -29.9908 55.8479C-30.4783 55.3628 -30.8041 54.7151 -30.8063 53.9044C-30.8084 53.0938 -30.486 52.4445 -30.0011 51.9569C-29.5162 51.4692 -28.7066 51.1428 -28.0584 51.1411C-26.5997 51.1372 -25.2997 52.4307 -25.2958 53.8898Z" fill="#C4C4C4"/>
<path d="M-0.295967 53.8898C-0.293813 54.7004 -0.616231 55.3499 -1.10116 55.8376C-1.58609 56.3252 -2.3956 56.6516 -3.04388 56.6534C-3.85424 56.6555 -4.50342 56.333 -4.99093 55.8479C-5.47844 55.3628 -5.80431 54.7151 -5.80646 53.9044C-5.80861 53.0938 -5.4862 52.4445 -5.00127 51.9569C-4.51634 51.4692 -3.70681 51.1428 -3.05853 51.1411C-1.59988 51.1372 -0.299843 52.4307 -0.295967 53.8898Z" fill="#C4C4C4"/>
<path d="M-75.2956 53.8898C-75.2934 54.7004 -75.6159 55.3499 -76.1008 55.8376C-76.5857 56.3252 -77.3952 56.6516 -78.0435 56.6534C-78.8539 56.6555 -79.503 56.333 -79.9906 55.8479C-80.4781 55.3628 -80.8039 54.7151 -80.8061 53.9044C-80.8082 53.0938 -80.4858 52.4445 -80.0009 51.9569C-79.516 51.4692 -78.7064 51.1428 -78.0582 51.1411C-76.5995 51.1372 -75.2995 52.4307 -75.2956 53.8898Z" fill="#C4C4C4"/>
<path d="M-0.295967 53.8898C-0.293813 54.7004 -0.616231 55.3499 -1.10116 55.8376C-1.58609 56.3252 -2.3956 56.6516 -3.04388 56.6534C-3.85424 56.6555 -4.50342 56.333 -4.99093 55.8479C-5.47844 55.3628 -5.80431 54.7151 -5.80646 53.9044C-5.80861 53.0938 -5.4862 52.4445 -5.00127 51.9569C-4.51634 51.4692 -3.70681 51.1428 -3.05853 51.1411C-1.59988 51.1372 -0.299843 52.4307 -0.295967 53.8898Z" fill="#C4C4C4"/>
<path d="M24.7042 53.8898C24.7064 54.7004 24.384 55.3499 23.899 55.8376C23.4141 56.3252 22.6046 56.6516 21.9563 56.6534C21.1459 56.6555 20.4968 56.333 20.0093 55.8479C19.5218 55.3628 19.1959 54.7151 19.1937 53.9044C19.1916 53.0938 19.514 52.4445 19.9989 51.9569C20.4839 51.4692 21.2934 51.1428 21.9417 51.1411C23.4003 51.1372 24.7003 52.4307 24.7042 53.8898Z" fill="#C4C4C4"/>
<path d="M49.704 53.8898C49.7062 54.7004 49.3838 55.3499 48.8988 55.8376C48.4139 56.3252 47.6044 56.6516 46.9561 56.6534C46.1458 56.6555 45.4966 56.333 45.0091 55.8479C44.5216 55.3628 44.1957 54.7151 44.1935 53.9044C44.1914 53.0938 44.5138 52.4445 44.9987 51.9569C45.4837 51.4692 46.2932 51.1428 46.9415 51.1411C48.4001 51.1372 49.7002 52.4307 49.704 53.8898Z" fill="#C4C4C4"/>
<path d="M99.7042 53.8898C99.7064 54.7004 99.3839 55.3499 98.899 55.8376C98.4141 56.3252 97.6046 56.6516 96.9563 56.6534C96.1459 56.6555 95.4967 56.333 95.0092 55.8479C94.5217 55.3628 94.1959 54.7151 94.1937 53.9044C94.1916 53.0938 94.514 52.4445 94.9989 51.9569C95.4838 51.4692 96.2933 51.1428 96.9416 51.1411C98.4003 51.1372 99.7003 52.4307 99.7042 53.8898Z" fill="#C4C4C4"/>
<path d="M124.704 53.8898C124.706 54.7004 124.384 55.3499 123.899 55.8376C123.414 56.3252 122.605 56.6516 121.956 56.6534C121.146 56.6555 120.497 56.333 120.009 55.8479C119.522 55.3628 119.196 54.7151 119.194 53.9044C119.192 53.0938 119.514 52.4445 119.999 51.9569C120.484 51.4692 121.293 51.1428 121.942 51.1411C123.4 51.1372 124.7 52.4307 124.704 53.8898Z" fill="#C4C4C4"/>
<path d="M149.704 53.8898C149.706 54.7004 149.384 55.3499 148.899 55.8376C148.414 56.3252 147.604 56.6516 146.956 56.6533C146.146 56.6555 145.497 56.333 145.009 55.8479C144.522 55.3628 144.196 54.7151 144.194 53.9044C144.191 53.0938 144.514 52.4445 144.999 51.9569C145.484 51.4692 146.293 51.1428 146.941 51.1411C148.4 51.1372 149.7 52.4307 149.704 53.8898Z" fill="#C4C4C4"/>
<path d="M74.7044 53.8898C74.7066 54.7004 74.3842 55.3499 73.8993 55.8375C73.4143 56.3252 72.6048 56.6516 71.9565 56.6533C71.1462 56.6555 70.497 56.333 70.0095 55.8479C69.522 55.3628 69.1961 54.7151 69.1939 53.9044C69.1918 53.0938 69.5142 52.4445 69.9991 51.9569C70.4841 51.4692 71.2936 51.1428 71.9419 51.1411C73.4005 51.1372 74.7006 52.4307 74.7044 53.8898Z" fill="#C4C4C4"/>
<path d="M-150.296 28.8898C-150.294 29.7004 -150.616 30.3499 -151.101 30.8376C-151.586 31.3253 -152.396 31.6517 -153.044 31.6534C-153.854 31.6555 -154.504 31.333 -154.991 30.8479C-155.478 30.3628 -155.804 29.7151 -155.807 28.9045C-155.809 28.0938 -155.486 27.4445 -155.001 26.9569C-154.516 26.4692 -153.707 26.1428 -153.059 26.1411C-151.6 26.1372 -150.3 27.4307 -150.296 28.8898Z" fill="#C4C4C4"/>
<path d="M-125.296 28.8898C-125.294 29.7004 -125.616 30.3499 -126.101 30.8376C-126.586 31.3253 -127.396 31.6517 -128.044 31.6534C-128.854 31.6555 -129.504 31.333 -129.991 30.8479C-130.479 30.3628 -130.804 29.7151 -130.807 28.9045C-130.809 28.0938 -130.486 27.4445 -130.001 26.9569C-129.516 26.4692 -128.707 26.1428 -128.059 26.1411C-126.6 26.1372 -125.3 27.4307 -125.296 28.8898Z" fill="#C4C4C4"/>
<path d="M-100.296 28.8898C-100.294 29.7004 -100.616 30.3499 -101.101 30.8376C-101.586 31.3252 -102.396 31.6517 -103.044 31.6534C-103.854 31.6555 -104.503 31.333 -104.991 30.8479C-105.478 30.3628 -105.804 29.7151 -105.806 28.9044C-105.809 28.0938 -105.486 27.4445 -105.001 26.9569C-104.516 26.4692 -103.707 26.1428 -103.059 26.1411C-101.6 26.1372 -100.3 27.4307 -100.296 28.8898Z" fill="#C4C4C4"/>
<path d="M-50.2958 28.8898C-50.2936 29.7005 -50.616 30.3499 -51.101 30.8376C-51.5859 31.3252 -52.3954 31.6517 -53.0437 31.6534C-53.8541 31.6555 -54.5032 31.333 -54.9907 30.8479C-55.4782 30.3628 -55.8041 29.7151 -55.8063 28.9045C-55.8084 28.0938 -55.486 27.4446 -55.0011 26.9569C-54.5161 26.4692 -53.7066 26.1428 -53.0583 26.1411C-51.5997 26.1372 -50.2997 27.4307 -50.2958 28.8898Z" fill="#C4C4C4"/>
<path d="M-25.2958 28.8898C-25.2936 29.7004 -25.616 30.3499 -26.101 30.8376C-26.5859 31.3252 -27.3954 31.6517 -28.0437 31.6534C-28.854 31.6555 -29.5032 31.333 -29.9907 30.8479C-30.4782 30.3628 -30.8041 29.7151 -30.8063 28.9045C-30.8084 28.0938 -30.486 27.4445 -30.0011 26.9569C-29.5161 26.4692 -28.7066 26.1428 -28.0583 26.1411C-26.5997 26.1372 -25.2996 27.4307 -25.2958 28.8898Z" fill="#C4C4C4"/>
<path d="M-0.295934 28.8898C-0.29378 29.7004 -0.616198 30.3499 -1.10113 30.8376C-1.58605 31.3252 -2.39557 31.6516 -3.04385 31.6534C-3.85421 31.6555 -4.50339 31.333 -4.9909 30.8479C-5.47841 30.3628 -5.80427 29.7151 -5.80643 28.9044C-5.80858 28.0938 -5.48616 27.4445 -5.00124 26.9569C-4.51631 26.4692 -3.70678 26.1428 -3.0585 26.1411C-1.59985 26.1372 -0.299811 27.4307 -0.295934 28.8898Z" fill="#C4C4C4"/>
<path d="M-75.2956 28.8898C-75.2934 29.7004 -75.6158 30.3499 -76.1008 30.8376C-76.5857 31.3252 -77.3952 31.6516 -78.0435 31.6534C-78.8538 31.6555 -79.503 31.333 -79.9905 30.8479C-80.478 30.3628 -80.8039 29.7151 -80.8061 28.9044C-80.8082 28.0938 -80.4858 27.4445 -80.0009 26.9569C-79.5159 26.4692 -78.7064 26.1428 -78.0581 26.1411C-76.5995 26.1372 -75.2994 27.4307 -75.2956 28.8898Z" fill="#C4C4C4"/>
<path d="M-0.295934 28.8898C-0.29378 29.7004 -0.616198 30.3499 -1.10113 30.8376C-1.58605 31.3252 -2.39557 31.6516 -3.04385 31.6534C-3.85421 31.6555 -4.50339 31.333 -4.9909 30.8479C-5.47841 30.3628 -5.80427 29.7151 -5.80643 28.9044C-5.80858 28.0938 -5.48616 27.4445 -5.00124 26.9569C-4.51631 26.4692 -3.70678 26.1428 -3.0585 26.1411C-1.59985 26.1372 -0.299811 27.4307 -0.295934 28.8898Z" fill="#C4C4C4"/>
<path d="M24.7043 28.8898C24.7064 29.7004 24.384 30.3499 23.8991 30.8376C23.4141 31.3253 22.6046 31.6516 21.9563 31.6534C21.146 31.6555 20.4968 31.333 20.0093 30.8479C19.5218 30.3628 19.1959 29.7151 19.1938 28.9045C19.1916 28.0938 19.514 27.4445 19.999 26.9569C20.4839 26.4692 21.2934 26.1428 21.9417 26.1411C23.4003 26.1372 24.7004 27.4307 24.7043 28.8898Z" fill="#C4C4C4"/>
<path d="M49.7041 28.8898C49.7062 29.7004 49.3838 30.3499 48.8989 30.8376C48.4139 31.3252 47.6044 31.6516 46.9562 31.6534C46.1458 31.6555 45.4966 31.333 45.0091 30.8479C44.5216 30.3628 44.1957 29.7151 44.1936 28.9044C44.1914 28.0938 44.5138 27.4445 44.9988 26.9569C45.4837 26.4692 46.2932 26.1428 46.9415 26.1411C48.4002 26.1372 49.7002 27.4307 49.7041 28.8898Z" fill="#C4C4C4"/>
<path d="M99.7042 28.8898C99.7063 29.7005 99.3839 30.3499 98.899 30.8376C98.4141 31.3252 97.6046 31.6517 96.9563 31.6534C96.1459 31.6555 95.4967 31.333 95.0092 30.8479C94.5217 30.3628 94.1958 29.7151 94.1937 28.9045C94.1915 28.0938 94.514 27.4446 94.9989 26.9569C95.4838 26.4692 96.2933 26.1428 96.9416 26.1411C98.4003 26.1372 99.7003 27.4307 99.7042 28.8898Z" fill="#C4C4C4"/>
<path d="M124.704 28.8898C124.706 29.7005 124.384 30.3499 123.899 30.8376C123.414 31.3252 122.605 31.6517 121.956 31.6534C121.146 31.6555 120.497 31.333 120.009 30.8479C119.522 30.3628 119.196 29.7151 119.194 28.9045C119.192 28.0938 119.514 27.4446 119.999 26.9569C120.484 26.4692 121.293 26.1428 121.942 26.1411C123.4 26.1372 124.7 27.4307 124.704 28.8898Z" fill="#C4C4C4"/>
<path d="M149.704 28.8898C149.706 29.7004 149.384 30.3499 148.899 30.8376C148.414 31.3252 147.604 31.6516 146.956 31.6534C146.146 31.6555 145.497 31.333 145.009 30.8479C144.522 30.3628 144.196 29.7151 144.194 28.9045C144.191 28.0938 144.514 27.4445 144.999 26.9569C145.484 26.4692 146.293 26.1428 146.941 26.1411C148.4 26.1372 149.7 27.4307 149.704 28.8898Z" fill="#C4C4C4"/>
<path d="M74.7045 28.8898C74.7066 29.7004 74.3842 30.3499 73.8993 30.8376C73.4144 31.3252 72.6049 31.6516 71.9566 31.6534C71.1462 31.6555 70.497 31.333 70.0095 30.8479C69.522 30.3628 69.1961 29.7151 69.194 28.9044C69.1918 28.0938 69.5142 27.4445 69.9992 26.9569C70.4841 26.4692 71.2936 26.1428 71.9419 26.1411C73.4006 26.1372 74.7006 27.4307 74.7045 28.8898Z" fill="#C4C4C4"/>
<path d="M-150.296 3.88981C-150.294 4.70043 -150.616 5.3499 -151.101 5.83757C-151.586 6.32524 -152.396 6.65163 -153.044 6.65336C-153.854 6.65551 -154.503 6.33299 -154.991 5.8479C-155.478 5.36282 -155.804 4.71507 -155.807 3.90445C-155.809 3.09382 -155.486 2.44455 -155.001 1.95688C-154.516 1.46921 -153.707 1.1428 -153.059 1.14108C-151.6 1.1372 -150.3 2.43068 -150.296 3.88981Z" fill="#C4C4C4"/>
<path d="M-125.296 3.88981C-125.294 4.70043 -125.616 5.3499 -126.101 5.83757C-126.586 6.32524 -127.396 6.65164 -128.044 6.65336C-128.854 6.65551 -129.503 6.33299 -129.991 5.84791C-130.478 5.36282 -130.804 4.71507 -130.807 3.90445C-130.809 3.09382 -130.486 2.44455 -130.001 1.95688C-129.516 1.46922 -128.707 1.1428 -128.059 1.14108C-126.6 1.13721 -125.3 2.43068 -125.296 3.88981Z" fill="#C4C4C4"/>
<path d="M-100.296 3.88979C-100.294 4.70042 -100.616 5.34989 -101.101 5.83756C-101.586 6.32523 -102.396 6.65162 -103.044 6.65335C-103.854 6.6555 -104.503 6.33298 -104.991 5.84789C-105.478 5.36281 -105.804 4.71506 -105.806 3.90443C-105.809 3.09381 -105.486 2.44454 -105.001 1.95687C-104.516 1.4692 -103.707 1.14279 -103.059 1.14107C-101.6 1.13719 -100.3 2.43067 -100.296 3.88979Z" fill="#C4C4C4"/>
<path d="M-50.2958 3.88981C-50.2936 4.70044 -50.6161 5.34989 -51.101 5.83756C-51.5859 6.32523 -52.3954 6.65164 -53.0437 6.65336C-53.8541 6.65552 -54.5032 6.33298 -54.9907 5.8479C-55.4782 5.36281 -55.8041 4.71508 -55.8063 3.90445C-55.8084 3.09383 -55.486 2.44454 -55.0011 1.95687C-54.5161 1.46921 -53.7066 1.14281 -53.0583 1.14109C-51.5997 1.13721 -50.2997 2.43069 -50.2958 3.88981Z" fill="#C4C4C4"/>
<path d="M-25.2958 3.8898C-25.2936 4.70043 -25.616 5.3499 -26.101 5.83756C-26.5859 6.32523 -27.3954 6.65164 -28.0437 6.65337C-28.8541 6.65552 -29.5032 6.33298 -29.9907 5.8479C-30.4783 5.36281 -30.8041 4.71507 -30.8063 3.90444C-30.8084 3.09382 -30.486 2.44454 -30.0011 1.95688C-29.5162 1.46921 -28.7066 1.1428 -28.0583 1.14107C-26.5997 1.1372 -25.2997 2.43067 -25.2958 3.8898Z" fill="#C4C4C4"/>
<path d="M-0.295947 3.88979C-0.293793 4.70041 -0.616211 5.34988 -1.10114 5.83755C-1.58607 6.32522 -2.39558 6.65163 -3.04386 6.65335C-3.85422 6.65551 -4.5034 6.33297 -4.99091 5.84789C-5.47842 5.3628 -5.80429 4.71505 -5.80644 3.90443C-5.80859 3.0938 -5.48618 2.44453 -5.00125 1.95686C-4.51632 1.4692 -3.70679 1.14278 -3.05851 1.14106C-1.59986 1.13719 -0.299823 2.43066 -0.295947 3.88979Z" fill="#C4C4C4"/>
<path d="M-75.2956 3.8898C-75.2934 4.70042 -75.6158 5.34988 -76.1008 5.83754C-76.5857 6.32521 -77.3952 6.65162 -78.0435 6.65335C-78.8538 6.6555 -79.503 6.33296 -79.9905 5.84788C-80.478 5.36279 -80.8039 4.71506 -80.8061 3.90444C-80.8082 3.09381 -80.4858 2.44452 -80.0009 1.95686C-79.5159 1.46919 -78.7064 1.14279 -78.0581 1.14107C-76.5995 1.13719 -75.2994 2.43067 -75.2956 3.8898Z" fill="#C4C4C4"/>
<path d="M-0.295947 3.88979C-0.293793 4.70041 -0.616211 5.34988 -1.10114 5.83755C-1.58607 6.32522 -2.39558 6.65163 -3.04386 6.65335C-3.85422 6.65551 -4.5034 6.33297 -4.99091 5.84789C-5.47842 5.3628 -5.80429 4.71505 -5.80644 3.90443C-5.80859 3.0938 -5.48618 2.44453 -5.00125 1.95686C-4.51632 1.4692 -3.70679 1.14278 -3.05851 1.14106C-1.59986 1.13719 -0.299823 2.43066 -0.295947 3.88979Z" fill="#C4C4C4"/>
<path d="M24.7042 3.88981C24.7064 4.70043 24.384 5.3499 23.899 5.83757C23.4141 6.32524 22.6046 6.65163 21.9563 6.65336C21.146 6.65551 20.4968 6.33299 20.0093 5.8479C19.5218 5.36282 19.1959 4.71507 19.1938 3.90445C19.1916 3.09382 19.514 2.44455 19.9989 1.95688C20.4839 1.46921 21.2934 1.1428 21.9417 1.14108C23.4003 1.1372 24.7004 2.43068 24.7042 3.88981Z" fill="#C4C4C4"/>
<path d="M49.7041 3.88979C49.7062 4.70042 49.3838 5.34989 48.8989 5.83756C48.4139 6.32522 47.6044 6.65162 46.9561 6.65334C46.1458 6.6555 45.4966 6.33297 45.0091 5.84789C44.5216 5.36281 44.1957 4.71506 44.1936 3.90443C44.1914 3.09381 44.5138 2.44454 44.9988 1.95687C45.4837 1.4692 46.2932 1.14279 46.9415 1.14107C48.4001 1.13719 49.7002 2.43067 49.7041 3.88979Z" fill="#C4C4C4"/>
<path d="M99.7042 3.88981C99.7063 4.70044 99.3839 5.34989 98.899 5.83756C98.4141 6.32523 97.6046 6.65164 96.9563 6.65336C96.1459 6.65552 95.4967 6.33298 95.0092 5.84789C94.5217 5.36281 94.1958 4.71508 94.1937 3.90445C94.1915 3.09383 94.514 2.44454 94.9989 1.95687C95.4838 1.46921 96.2933 1.14281 96.9416 1.14109C98.4003 1.13721 99.7003 2.43069 99.7042 3.88981Z" fill="#C4C4C4"/>
<path d="M124.704 3.88981C124.706 4.70044 124.384 5.3499 123.899 5.83756C123.414 6.32523 122.605 6.65164 121.956 6.65337C121.146 6.65552 120.497 6.33298 120.009 5.8479C119.522 5.36281 119.196 4.71508 119.194 3.90445C119.192 3.09383 119.514 2.44454 119.999 1.95688C120.484 1.46921 121.293 1.14281 121.942 1.14109C123.4 1.13721 124.7 2.43069 124.704 3.88981Z" fill="#C4C4C4"/>
<path d="M149.704 3.8898C149.706 4.70043 149.384 5.34988 148.899 5.83755C148.414 6.32522 147.604 6.65162 146.956 6.65334C146.146 6.65549 145.497 6.33297 145.009 5.84788C144.522 5.3628 144.196 4.71507 144.194 3.90444C144.191 3.09382 144.514 2.44453 144.999 1.95686C145.484 1.4692 146.293 1.1428 146.941 1.14108C148.4 1.1372 149.7 2.43068 149.704 3.8898Z" fill="#C4C4C4"/>
<path d="M74.7045 3.88979C74.7066 4.70042 74.3842 5.34988 73.8993 5.83754C73.4143 6.32521 72.6048 6.65162 71.9565 6.65335C71.1462 6.6555 70.497 6.33296 70.0095 5.84788C69.522 5.36279 69.1961 4.71506 69.194 3.90443C69.1918 3.09381 69.5142 2.44452 69.9992 1.95686C70.4841 1.46919 71.2936 1.14279 71.9419 1.14107C73.4006 1.13719 74.7006 2.43067 74.7045 3.88979Z" fill="#C4C4C4"/>
</svg>
