<svg width="755" height="404" viewBox="0 0 755 404" fill="none" xmlns="http://www.w3.org/2000/svg">
<path d="M810 268L1.18895e-05 268L1.20643e-05 266L810 266L810 268Z" fill="#E5E5E5"/>
<path d="M810 230L1.52116e-05 230L1.53864e-05 228L810 228L810 230Z" fill="#E5E5E5"/>
<path d="M810 192L1.85336e-05 192L1.87085e-05 190L810 190L810 192Z" fill="#E5E5E5"/>
<path d="M810 154L2.18557e-05 154L2.20305e-05 152L810 152L810 154Z" fill="#E5E5E5"/>
<path d="M810 404L0 404L1.74845e-07 402L810 402L810 404Z" fill="#E5E5E5"/>
<path d="M810 370L2.97237e-06 370L3.14721e-06 368L810 368L810 370Z" fill="#E5E5E5"/>
<path d="M810 336L5.94476e-06 336L6.1196e-06 334L810 334L810 336Z" fill="#E5E5E5"/>
<path d="M810 302L8.91713e-06 302L9.09198e-06 300L810 300L810 302Z" fill="#E5E5E5"/>
<path d="M810 116L2.51778e-05 116L2.53526e-05 114L810 114L810 116Z" fill="#E5E5E5"/>
<path d="M810 78.0001L2.84998e-05 78L2.86747e-05 76L810 76.0001L810 78.0001Z" fill="#E5E5E5"/>
<path d="M810 40.0001L3.18219e-05 40L3.19967e-05 38L810 38.0001L810 40.0001Z" fill="#E5E5E5"/>
<path d="M810 2.00006L3.5144e-05 1.99999L3.53188e-05 2.07403e-05L810 9.15527e-05L810 2.00006Z" fill="#E5E5E5"/>
</svg>
