<svg width="139" height="38" viewBox="0 0 139 38" fill="none" xmlns="http://www.w3.org/2000/svg">
<g opacity="0.3">
<path d="M138.5 1.43213H130.64V9.20432H138.5V1.43213Z" stroke="#F2F2F2"/>
<path d="M122.343 1.43213H114.483V9.20432H122.343V1.43213Z" stroke="#F2F2F2"/>
<path d="M106.186 1.43213H98.3254V9.20432H106.186V1.43213Z" stroke="#F2F2F2"/>
<path d="M90.0286 1.43213H82.1682V9.20432H90.0286V1.43213Z" stroke="#F2F2F2"/>
<path d="M73.8716 1.43213H66.0112V9.20432H73.8716V1.43213Z" stroke="#F2F2F2"/>
<path d="M57.7144 1.43213H49.854V9.20432H57.7144V1.43213Z" stroke="#F2F2F2"/>
<path d="M41.5574 1.43213H33.697V9.20432H41.5574V1.43213Z" stroke="#F2F2F2"/>
<path d="M25.4001 1.43213H17.5398V9.20432H25.4001V1.43213Z" stroke="#F2F2F2"/>
<path d="M9.24304 1.43213H1.38269V9.20432H9.24304V1.43213Z" stroke="#F2F2F2"/>
<path d="M138.5 15.3645H130.64V23.1367H138.5V15.3645Z" stroke="#F2F2F2"/>
<path d="M122.343 15.3645H114.483V23.1367H122.343V15.3645Z" stroke="#F2F2F2"/>
<path d="M106.186 15.3645H98.3254V23.1367H106.186V15.3645Z" stroke="#F2F2F2"/>
<path d="M90.0286 15.3645H82.1682V23.1367H90.0286V15.3645Z" stroke="#F2F2F2"/>
<path d="M73.8716 15.3645H66.0112V23.1367H73.8716V15.3645Z" stroke="#F2F2F2"/>
<path d="M57.7144 15.3645H49.854V23.1367H57.7144V15.3645Z" stroke="#F2F2F2"/>
<path d="M41.5574 15.3645H33.697V23.1367H41.5574V15.3645Z" stroke="#F2F2F2"/>
<path d="M25.4001 15.3645H17.5398V23.1367H25.4001V15.3645Z" stroke="#F2F2F2"/>
<path d="M9.24304 15.3645H1.38269V23.1367H9.24304V15.3645Z" stroke="#F2F2F2"/>
<path d="M138.5 29.2969H130.64V37.0691H138.5V29.2969Z" stroke="#F2F2F2"/>
<path d="M122.343 29.2969H114.483V37.0691H122.343V29.2969Z" stroke="#F2F2F2"/>
<path d="M106.186 29.2969H98.3254V37.0691H106.186V29.2969Z" stroke="#F2F2F2"/>
<path d="M90.0286 29.2969H82.1682V37.0691H90.0286V29.2969Z" stroke="#F2F2F2"/>
<path d="M73.8716 29.2969H66.0112V37.0691H73.8716V29.2969Z" stroke="#F2F2F2"/>
<path d="M57.7144 29.2969H49.854V37.0691H57.7144V29.2969Z" stroke="#F2F2F2"/>
<path d="M41.5574 29.2969H33.697V37.0691H41.5574V29.2969Z" stroke="#F2F2F2"/>
<path d="M25.4001 29.2969H17.5398V37.0691H25.4001V29.2969Z" stroke="#F2F2F2"/>
<path d="M9.24304 29.2969H1.38269V37.0691H9.24304V29.2969Z" stroke="#F2F2F2"/>
</g>
</svg>
