<svg width="79" height="208" viewBox="0 0 79 208" fill="none" xmlns="http://www.w3.org/2000/svg">
<path d="M31.5 16.5V0.5H47.5V16.5H31.5ZM62.5 16.5V0.5H78.5V16.5H62.5ZM0.5 16.5V0.5H16.5V16.5H0.5ZM62.5 43.5V27.5H78.5V43.5H62.5ZM31.5 43.5V27.5H47.5V43.5H31.5ZM0.5 43.5V27.5H16.5V43.5H0.5ZM62.5 70.5V54.5H78.5V70.5H62.5ZM31.5 70.5V54.5H47.5V70.5H31.5ZM0.5 70.5V54.5H16.5V70.5H0.5ZM62.5 97.5V81.5H78.5V97.5H62.5ZM31.5 97.5V81.5H47.5V97.5H31.5ZM0.5 97.5V81.5H16.5V97.5H0.5ZM31.5 126.5V110.5H47.5V126.5H31.5ZM62.5 126.5V110.5H78.5V126.5H62.5ZM0.5 126.5V110.5H16.5V126.5H0.5ZM62.5 153.5V137.5H78.5V153.5H62.5ZM31.5 153.5V137.5H47.5V153.5H31.5ZM0.5 153.5V137.5H16.5V153.5H0.5ZM62.5 180.5V164.5H78.5V180.5H62.5ZM31.5 180.5V164.5H47.5V180.5H31.5ZM0.5 180.5V164.5H16.5V180.5H0.5ZM62.5 207.5V191.5H78.5V207.5H62.5ZM31.5 207.5V191.5H47.5V207.5H31.5ZM0.5 207.5V191.5H16.5V207.5H0.5Z" stroke="#4EABD9"/>
</svg>
