<svg width="327" height="208" viewBox="0 0 327 208" fill="none" xmlns="http://www.w3.org/2000/svg">
<mask id="path-1-inside-1" fill="white">
<path d="M327 0H310V17H327V0Z"/>
<path d="M48 0H31V17H48V0Z"/>
<path d="M296 0H279V17H296V0Z"/>
<path d="M265 0H248V17H265V0Z"/>
<path d="M234 0H217V17H234V0Z"/>
<path d="M203 0H186V17H203V0Z"/>
<path d="M172 0H155V17H172V0Z"/>
<path d="M141 0H124V17H141V0Z"/>
<path d="M110 0H93V17H110V0Z"/>
<path d="M79 0H62V17H79V0Z"/>
<path d="M17 0H0V17H17V0Z"/>
<path d="M327 27H310V44H327V27Z"/>
<path d="M296 27H279V44H296V27Z"/>
<path d="M265 27H248V44H265V27Z"/>
<path d="M234 27H217V44H234V27Z"/>
<path d="M203 27H186V44H203V27Z"/>
<path d="M172 27H155V44H172V27Z"/>
<path d="M141 27H124V44H141V27Z"/>
<path d="M110 27H93V44H110V27Z"/>
<path d="M79 27H62V44H79V27Z"/>
<path d="M48 27H31V44H48V27Z"/>
<path d="M17 27H0V44H17V27Z"/>
<path d="M327 54H310V71H327V54Z"/>
<path d="M296 54H279V71H296V54Z"/>
<path d="M265 54H248V71H265V54Z"/>
<path d="M234 54H217V71H234V54Z"/>
<path d="M203 54H186V71H203V54Z"/>
<path d="M172 54H155V71H172V54Z"/>
<path d="M141 54H124V71H141V54Z"/>
<path d="M110 54H93V71H110V54Z"/>
<path d="M79 54H62V71H79V54Z"/>
<path d="M48 54H31V71H48V54Z"/>
<path d="M17 54H0V71H17V54Z"/>
<path d="M327 81H310V98H327V81Z"/>
<path d="M296 81H279V98H296V81Z"/>
<path d="M265 81H248V98H265V81Z"/>
<path d="M234 81H217V98H234V81Z"/>
<path d="M203 81H186V98H203V81Z"/>
<path d="M172 81H155V98H172V81Z"/>
<path d="M141 81H124V98H141V81Z"/>
<path d="M110 81H93V98H110V81Z"/>
<path d="M79 81H62V98H79V81Z"/>
<path d="M48 81H31V98H48V81Z"/>
<path d="M17 81H0V98H17V81Z"/>
<path d="M327 110H310V127H327V110Z"/>
<path d="M48 110H31V127H48V110Z"/>
<path d="M296 110H279V127H296V110Z"/>
<path d="M265 110H248V127H265V110Z"/>
<path d="M234 110H217V127H234V110Z"/>
<path d="M203 110H186V127H203V110Z"/>
<path d="M172 110H155V127H172V110Z"/>
<path d="M141 110H124V127H141V110Z"/>
<path d="M110 110H93V127H110V110Z"/>
<path d="M79 110H62V127H79V110Z"/>
<path d="M17 110H0V127H17V110Z"/>
<path d="M327 137H310V154H327V137Z"/>
<path d="M296 137H279V154H296V137Z"/>
<path d="M265 137H248V154H265V137Z"/>
<path d="M234 137H217V154H234V137Z"/>
<path d="M203 137H186V154H203V137Z"/>
<path d="M172 137H155V154H172V137Z"/>
<path d="M141 137H124V154H141V137Z"/>
<path d="M110 137H93V154H110V137Z"/>
<path d="M79 137H62V154H79V137Z"/>
<path d="M48 137H31V154H48V137Z"/>
<path d="M17 137H0V154H17V137Z"/>
<path d="M327 164H310V181H327V164Z"/>
<path d="M296 164H279V181H296V164Z"/>
<path d="M265 164H248V181H265V164Z"/>
<path d="M234 164H217V181H234V164Z"/>
<path d="M203 164H186V181H203V164Z"/>
<path d="M172 164H155V181H172V164Z"/>
<path d="M141 164H124V181H141V164Z"/>
<path d="M110 164H93V181H110V164Z"/>
<path d="M79 164H62V181H79V164Z"/>
<path d="M48 164H31V181H48V164Z"/>
<path d="M17 164H0V181H17V164Z"/>
<path d="M327 191H310V208H327V191Z"/>
<path d="M296 191H279V208H296V191Z"/>
<path d="M265 191H248V208H265V191Z"/>
<path d="M234 191H217V208H234V191Z"/>
<path d="M203 191H186V208H203V191Z"/>
<path d="M172 191H155V208H172V191Z"/>
<path d="M141 191H124V208H141V191Z"/>
<path d="M110 191H93V208H110V191Z"/>
<path d="M79 191H62V208H79V191Z"/>
<path d="M48 191H31V208H48V191Z"/>
<path d="M17 191H0V208H17V191Z"/>
</mask>
<path d="M327 0H310V17H327V0Z" stroke="#C4C4C4" stroke-width="2" mask="url(#path-1-inside-1)"/>
<path d="M48 0H31V17H48V0Z" stroke="#C4C4C4" stroke-width="2" mask="url(#path-1-inside-1)"/>
<path d="M296 0H279V17H296V0Z" stroke="#C4C4C4" stroke-width="2" mask="url(#path-1-inside-1)"/>
<path d="M265 0H248V17H265V0Z" stroke="#C4C4C4" stroke-width="2" mask="url(#path-1-inside-1)"/>
<path d="M234 0H217V17H234V0Z" stroke="#C4C4C4" stroke-width="2" mask="url(#path-1-inside-1)"/>
<path d="M203 0H186V17H203V0Z" stroke="#C4C4C4" stroke-width="2" mask="url(#path-1-inside-1)"/>
<path d="M172 0H155V17H172V0Z" stroke="#C4C4C4" stroke-width="2" mask="url(#path-1-inside-1)"/>
<path d="M141 0H124V17H141V0Z" stroke="#C4C4C4" stroke-width="2" mask="url(#path-1-inside-1)"/>
<path d="M110 0H93V17H110V0Z" stroke="#C4C4C4" stroke-width="2" mask="url(#path-1-inside-1)"/>
<path d="M79 0H62V17H79V0Z" stroke="#C4C4C4" stroke-width="2" mask="url(#path-1-inside-1)"/>
<path d="M17 0H0V17H17V0Z" stroke="#C4C4C4" stroke-width="2" mask="url(#path-1-inside-1)"/>
<path d="M327 27H310V44H327V27Z" stroke="#C4C4C4" stroke-width="2" mask="url(#path-1-inside-1)"/>
<path d="M296 27H279V44H296V27Z" stroke="#C4C4C4" stroke-width="2" mask="url(#path-1-inside-1)"/>
<path d="M265 27H248V44H265V27Z" stroke="#C4C4C4" stroke-width="2" mask="url(#path-1-inside-1)"/>
<path d="M234 27H217V44H234V27Z" stroke="#C4C4C4" stroke-width="2" mask="url(#path-1-inside-1)"/>
<path d="M203 27H186V44H203V27Z" stroke="#C4C4C4" stroke-width="2" mask="url(#path-1-inside-1)"/>
<path d="M172 27H155V44H172V27Z" stroke="#C4C4C4" stroke-width="2" mask="url(#path-1-inside-1)"/>
<path d="M141 27H124V44H141V27Z" stroke="#C4C4C4" stroke-width="2" mask="url(#path-1-inside-1)"/>
<path d="M110 27H93V44H110V27Z" stroke="#C4C4C4" stroke-width="2" mask="url(#path-1-inside-1)"/>
<path d="M79 27H62V44H79V27Z" stroke="#C4C4C4" stroke-width="2" mask="url(#path-1-inside-1)"/>
<path d="M48 27H31V44H48V27Z" stroke="#C4C4C4" stroke-width="2" mask="url(#path-1-inside-1)"/>
<path d="M17 27H0V44H17V27Z" stroke="#C4C4C4" stroke-width="2" mask="url(#path-1-inside-1)"/>
<path d="M327 54H310V71H327V54Z" stroke="#C4C4C4" stroke-width="2" mask="url(#path-1-inside-1)"/>
<path d="M296 54H279V71H296V54Z" stroke="#C4C4C4" stroke-width="2" mask="url(#path-1-inside-1)"/>
<path d="M265 54H248V71H265V54Z" stroke="#C4C4C4" stroke-width="2" mask="url(#path-1-inside-1)"/>
<path d="M234 54H217V71H234V54Z" stroke="#C4C4C4" stroke-width="2" mask="url(#path-1-inside-1)"/>
<path d="M203 54H186V71H203V54Z" stroke="#C4C4C4" stroke-width="2" mask="url(#path-1-inside-1)"/>
<path d="M172 54H155V71H172V54Z" stroke="#C4C4C4" stroke-width="2" mask="url(#path-1-inside-1)"/>
<path d="M141 54H124V71H141V54Z" stroke="#C4C4C4" stroke-width="2" mask="url(#path-1-inside-1)"/>
<path d="M110 54H93V71H110V54Z" stroke="#C4C4C4" stroke-width="2" mask="url(#path-1-inside-1)"/>
<path d="M79 54H62V71H79V54Z" stroke="#C4C4C4" stroke-width="2" mask="url(#path-1-inside-1)"/>
<path d="M48 54H31V71H48V54Z" stroke="#C4C4C4" stroke-width="2" mask="url(#path-1-inside-1)"/>
<path d="M17 54H0V71H17V54Z" stroke="#C4C4C4" stroke-width="2" mask="url(#path-1-inside-1)"/>
<path d="M327 81H310V98H327V81Z" stroke="#C4C4C4" stroke-width="2" mask="url(#path-1-inside-1)"/>
<path d="M296 81H279V98H296V81Z" stroke="#C4C4C4" stroke-width="2" mask="url(#path-1-inside-1)"/>
<path d="M265 81H248V98H265V81Z" stroke="#C4C4C4" stroke-width="2" mask="url(#path-1-inside-1)"/>
<path d="M234 81H217V98H234V81Z" stroke="#C4C4C4" stroke-width="2" mask="url(#path-1-inside-1)"/>
<path d="M203 81H186V98H203V81Z" stroke="#C4C4C4" stroke-width="2" mask="url(#path-1-inside-1)"/>
<path d="M172 81H155V98H172V81Z" stroke="#C4C4C4" stroke-width="2" mask="url(#path-1-inside-1)"/>
<path d="M141 81H124V98H141V81Z" stroke="#C4C4C4" stroke-width="2" mask="url(#path-1-inside-1)"/>
<path d="M110 81H93V98H110V81Z" stroke="#C4C4C4" stroke-width="2" mask="url(#path-1-inside-1)"/>
<path d="M79 81H62V98H79V81Z" stroke="#C4C4C4" stroke-width="2" mask="url(#path-1-inside-1)"/>
<path d="M48 81H31V98H48V81Z" stroke="#C4C4C4" stroke-width="2" mask="url(#path-1-inside-1)"/>
<path d="M17 81H0V98H17V81Z" stroke="#C4C4C4" stroke-width="2" mask="url(#path-1-inside-1)"/>
<path d="M327 110H310V127H327V110Z" stroke="#C4C4C4" stroke-width="2" mask="url(#path-1-inside-1)"/>
<path d="M48 110H31V127H48V110Z" stroke="#C4C4C4" stroke-width="2" mask="url(#path-1-inside-1)"/>
<path d="M296 110H279V127H296V110Z" stroke="#C4C4C4" stroke-width="2" mask="url(#path-1-inside-1)"/>
<path d="M265 110H248V127H265V110Z" stroke="#C4C4C4" stroke-width="2" mask="url(#path-1-inside-1)"/>
<path d="M234 110H217V127H234V110Z" stroke="#C4C4C4" stroke-width="2" mask="url(#path-1-inside-1)"/>
<path d="M203 110H186V127H203V110Z" stroke="#C4C4C4" stroke-width="2" mask="url(#path-1-inside-1)"/>
<path d="M172 110H155V127H172V110Z" stroke="#C4C4C4" stroke-width="2" mask="url(#path-1-inside-1)"/>
<path d="M141 110H124V127H141V110Z" stroke="#C4C4C4" stroke-width="2" mask="url(#path-1-inside-1)"/>
<path d="M110 110H93V127H110V110Z" stroke="#C4C4C4" stroke-width="2" mask="url(#path-1-inside-1)"/>
<path d="M79 110H62V127H79V110Z" stroke="#C4C4C4" stroke-width="2" mask="url(#path-1-inside-1)"/>
<path d="M17 110H0V127H17V110Z" stroke="#C4C4C4" stroke-width="2" mask="url(#path-1-inside-1)"/>
<path d="M327 137H310V154H327V137Z" stroke="#C4C4C4" stroke-width="2" mask="url(#path-1-inside-1)"/>
<path d="M296 137H279V154H296V137Z" stroke="#C4C4C4" stroke-width="2" mask="url(#path-1-inside-1)"/>
<path d="M265 137H248V154H265V137Z" stroke="#C4C4C4" stroke-width="2" mask="url(#path-1-inside-1)"/>
<path d="M234 137H217V154H234V137Z" stroke="#C4C4C4" stroke-width="2" mask="url(#path-1-inside-1)"/>
<path d="M203 137H186V154H203V137Z" stroke="#C4C4C4" stroke-width="2" mask="url(#path-1-inside-1)"/>
<path d="M172 137H155V154H172V137Z" stroke="#C4C4C4" stroke-width="2" mask="url(#path-1-inside-1)"/>
<path d="M141 137H124V154H141V137Z" stroke="#C4C4C4" stroke-width="2" mask="url(#path-1-inside-1)"/>
<path d="M110 137H93V154H110V137Z" stroke="#C4C4C4" stroke-width="2" mask="url(#path-1-inside-1)"/>
<path d="M79 137H62V154H79V137Z" stroke="#C4C4C4" stroke-width="2" mask="url(#path-1-inside-1)"/>
<path d="M48 137H31V154H48V137Z" stroke="#C4C4C4" stroke-width="2" mask="url(#path-1-inside-1)"/>
<path d="M17 137H0V154H17V137Z" stroke="#C4C4C4" stroke-width="2" mask="url(#path-1-inside-1)"/>
<path d="M327 164H310V181H327V164Z" stroke="#C4C4C4" stroke-width="2" mask="url(#path-1-inside-1)"/>
<path d="M296 164H279V181H296V164Z" stroke="#C4C4C4" stroke-width="2" mask="url(#path-1-inside-1)"/>
<path d="M265 164H248V181H265V164Z" stroke="#C4C4C4" stroke-width="2" mask="url(#path-1-inside-1)"/>
<path d="M234 164H217V181H234V164Z" stroke="#C4C4C4" stroke-width="2" mask="url(#path-1-inside-1)"/>
<path d="M203 164H186V181H203V164Z" stroke="#C4C4C4" stroke-width="2" mask="url(#path-1-inside-1)"/>
<path d="M172 164H155V181H172V164Z" stroke="#C4C4C4" stroke-width="2" mask="url(#path-1-inside-1)"/>
<path d="M141 164H124V181H141V164Z" stroke="#C4C4C4" stroke-width="2" mask="url(#path-1-inside-1)"/>
<path d="M110 164H93V181H110V164Z" stroke="#C4C4C4" stroke-width="2" mask="url(#path-1-inside-1)"/>
<path d="M79 164H62V181H79V164Z" stroke="#C4C4C4" stroke-width="2" mask="url(#path-1-inside-1)"/>
<path d="M48 164H31V181H48V164Z" stroke="#C4C4C4" stroke-width="2" mask="url(#path-1-inside-1)"/>
<path d="M17 164H0V181H17V164Z" stroke="#C4C4C4" stroke-width="2" mask="url(#path-1-inside-1)"/>
<path d="M327 191H310V208H327V191Z" stroke="#C4C4C4" stroke-width="2" mask="url(#path-1-inside-1)"/>
<path d="M296 191H279V208H296V191Z" stroke="#C4C4C4" stroke-width="2" mask="url(#path-1-inside-1)"/>
<path d="M265 191H248V208H265V191Z" stroke="#C4C4C4" stroke-width="2" mask="url(#path-1-inside-1)"/>
<path d="M234 191H217V208H234V191Z" stroke="#C4C4C4" stroke-width="2" mask="url(#path-1-inside-1)"/>
<path d="M203 191H186V208H203V191Z" stroke="#C4C4C4" stroke-width="2" mask="url(#path-1-inside-1)"/>
<path d="M172 191H155V208H172V191Z" stroke="#C4C4C4" stroke-width="2" mask="url(#path-1-inside-1)"/>
<path d="M141 191H124V208H141V191Z" stroke="#C4C4C4" stroke-width="2" mask="url(#path-1-inside-1)"/>
<path d="M110 191H93V208H110V191Z" stroke="#C4C4C4" stroke-width="2" mask="url(#path-1-inside-1)"/>
<path d="M79 191H62V208H79V191Z" stroke="#C4C4C4" stroke-width="2" mask="url(#path-1-inside-1)"/>
<path d="M48 191H31V208H48V191Z" stroke="#C4C4C4" stroke-width="2" mask="url(#path-1-inside-1)"/>
<path d="M17 191H0V208H17V191Z" stroke="#C4C4C4" stroke-width="2" mask="url(#path-1-inside-1)"/>
</svg>
