<svg width="63" height="285" viewBox="0 0 63 285" fill="none" xmlns="http://www.w3.org/2000/svg">
<mask id="path-1-inside-1" fill="white">
<path d="M62.0552 285L62.0552 270.183L47.1969 270.183L47.1969 285L62.0552 285Z"/>
<path d="M62.0552 257.982L62.0552 243.165L47.1969 243.165L47.1969 257.982L62.0552 257.982Z"/>
<path d="M62.0552 230.963L62.0552 216.147L47.1969 216.147L47.1969 230.963L62.0552 230.963Z"/>
<path d="M62.0552 203.945L62.0552 189.128L47.1969 189.128L47.1969 203.945L62.0552 203.945Z"/>
<path d="M62.0552 176.927L62.0552 162.11L47.1969 162.11L47.1969 176.927L62.0552 176.927Z"/>
<path d="M62.0552 149.908L62.0552 135.092L47.1969 135.092L47.1969 149.908L62.0552 149.908Z"/>
<path d="M62.0552 122.89L62.0552 108.073L47.1969 108.073L47.1969 122.89L62.0552 122.89Z"/>
<path d="M62.0552 95.8716L62.0552 81.055L47.1969 81.055L47.1969 95.8716L62.0552 95.8716Z"/>
<path d="M62.0552 68.8532L62.0552 54.0367L47.1969 54.0367L47.1969 68.8532L62.0552 68.8532Z"/>
<path d="M62.0552 41.8349L62.0552 27.0183L47.1969 27.0183L47.1969 41.8349L62.0552 41.8349Z"/>
<path d="M62.0552 14.8165L62.0552 0L47.1969 -6.49476e-07L47.1969 14.8165L62.0552 14.8165Z"/>
<path d="M38.4567 285L38.4567 270.183L23.5985 270.183L23.5985 285L38.4567 285Z"/>
<path d="M38.4567 257.982L38.4567 243.165L23.5985 243.165L23.5985 257.982L38.4567 257.982Z"/>
<path d="M38.4567 230.963L38.4567 216.147L23.5985 216.147L23.5985 230.963L38.4567 230.963Z"/>
<path d="M38.4567 203.945L38.4567 189.128L23.5985 189.128L23.5985 203.945L38.4567 203.945Z"/>
<path d="M38.4567 176.927L38.4567 162.11L23.5985 162.11L23.5985 176.927L38.4567 176.927Z"/>
<path d="M38.4567 149.908L38.4567 135.092L23.5985 135.092L23.5985 149.908L38.4567 149.908Z"/>
<path d="M38.4567 122.89L38.4567 108.073L23.5985 108.073L23.5985 122.89L38.4567 122.89Z"/>
<path d="M38.4567 95.8716L38.4567 81.055L23.5985 81.055L23.5985 95.8716L38.4567 95.8716Z"/>
<path d="M38.4567 68.8532L38.4568 54.0367L23.5985 54.0367L23.5985 68.8532L38.4567 68.8532Z"/>
<path d="M38.4568 41.8349L38.4568 27.0183L23.5985 27.0183L23.5985 41.8349L38.4568 41.8349Z"/>
<path d="M38.4568 14.8165L38.4568 -1.03152e-06L23.5985 -1.681e-06L23.5985 14.8165L38.4568 14.8165Z"/>
<path d="M14.8583 285L14.8583 270.183L4.54104e-05 270.183L4.47627e-05 285L14.8583 285Z"/>
<path d="M14.8583 257.982L14.8583 243.165L4.65914e-05 243.165L4.59437e-05 257.982L14.8583 257.982Z"/>
<path d="M14.8583 230.963L14.8583 216.147L4.77724e-05 216.147L4.71247e-05 230.963L14.8583 230.963Z"/>
<path d="M14.8583 203.945L14.8583 189.128L4.89534e-05 189.128L4.83057e-05 203.945L14.8583 203.945Z"/>
<path d="M14.8583 176.927L14.8583 162.11L5.01344e-05 162.11L4.94868e-05 176.927L14.8583 176.927Z"/>
<path d="M14.8583 149.908L14.8583 135.092L5.13154e-05 135.092L5.06678e-05 149.908L14.8583 149.908Z"/>
<path d="M14.8583 122.89L14.8583 108.073L5.24964e-05 108.073L5.18488e-05 122.89L14.8583 122.89Z"/>
<path d="M14.8583 95.8716L14.8583 81.055L5.36774e-05 81.055L5.30298e-05 95.8716L14.8583 95.8716Z"/>
<path d="M14.8583 68.8532L14.8583 54.0367L5.48584e-05 54.0367L5.42108e-05 68.8532L14.8583 68.8532Z"/>
<path d="M14.8583 41.8349L14.8583 27.0183L5.60394e-05 27.0183L5.53918e-05 41.8349L14.8583 41.8349Z"/>
<path d="M14.8583 14.8165L14.8583 -2.06304e-06L5.72205e-05 -2.71252e-06L5.65728e-05 14.8165L14.8583 14.8165Z"/>
</mask>
<path d="M62.0552 285L62.0552 270.183L47.1969 270.183L47.1969 285L62.0552 285Z" stroke="#4EABD9" stroke-width="2" mask="url(#path-1-inside-1)"/>
<path d="M62.0552 257.982L62.0552 243.165L47.1969 243.165L47.1969 257.982L62.0552 257.982Z" stroke="#4EABD9" stroke-width="2" mask="url(#path-1-inside-1)"/>
<path d="M62.0552 230.963L62.0552 216.147L47.1969 216.147L47.1969 230.963L62.0552 230.963Z" stroke="#4EABD9" stroke-width="2" mask="url(#path-1-inside-1)"/>
<path d="M62.0552 203.945L62.0552 189.128L47.1969 189.128L47.1969 203.945L62.0552 203.945Z" stroke="#4EABD9" stroke-width="2" mask="url(#path-1-inside-1)"/>
<path d="M62.0552 176.927L62.0552 162.11L47.1969 162.11L47.1969 176.927L62.0552 176.927Z" stroke="#4EABD9" stroke-width="2" mask="url(#path-1-inside-1)"/>
<path d="M62.0552 149.908L62.0552 135.092L47.1969 135.092L47.1969 149.908L62.0552 149.908Z" stroke="#4EABD9" stroke-width="2" mask="url(#path-1-inside-1)"/>
<path d="M62.0552 122.89L62.0552 108.073L47.1969 108.073L47.1969 122.89L62.0552 122.89Z" stroke="#4EABD9" stroke-width="2" mask="url(#path-1-inside-1)"/>
<path d="M62.0552 95.8716L62.0552 81.055L47.1969 81.055L47.1969 95.8716L62.0552 95.8716Z" stroke="#4EABD9" stroke-width="2" mask="url(#path-1-inside-1)"/>
<path d="M62.0552 68.8532L62.0552 54.0367L47.1969 54.0367L47.1969 68.8532L62.0552 68.8532Z" stroke="#4EABD9" stroke-width="2" mask="url(#path-1-inside-1)"/>
<path d="M62.0552 41.8349L62.0552 27.0183L47.1969 27.0183L47.1969 41.8349L62.0552 41.8349Z" stroke="#4EABD9" stroke-width="2" mask="url(#path-1-inside-1)"/>
<path d="M62.0552 14.8165L62.0552 0L47.1969 -6.49476e-07L47.1969 14.8165L62.0552 14.8165Z" stroke="#4EABD9" stroke-width="2" mask="url(#path-1-inside-1)"/>
<path d="M38.4567 285L38.4567 270.183L23.5985 270.183L23.5985 285L38.4567 285Z" stroke="#4EABD9" stroke-width="2" mask="url(#path-1-inside-1)"/>
<path d="M38.4567 257.982L38.4567 243.165L23.5985 243.165L23.5985 257.982L38.4567 257.982Z" stroke="#4EABD9" stroke-width="2" mask="url(#path-1-inside-1)"/>
<path d="M38.4567 230.963L38.4567 216.147L23.5985 216.147L23.5985 230.963L38.4567 230.963Z" stroke="#4EABD9" stroke-width="2" mask="url(#path-1-inside-1)"/>
<path d="M38.4567 203.945L38.4567 189.128L23.5985 189.128L23.5985 203.945L38.4567 203.945Z" stroke="#4EABD9" stroke-width="2" mask="url(#path-1-inside-1)"/>
<path d="M38.4567 176.927L38.4567 162.11L23.5985 162.11L23.5985 176.927L38.4567 176.927Z" stroke="#4EABD9" stroke-width="2" mask="url(#path-1-inside-1)"/>
<path d="M38.4567 149.908L38.4567 135.092L23.5985 135.092L23.5985 149.908L38.4567 149.908Z" stroke="#4EABD9" stroke-width="2" mask="url(#path-1-inside-1)"/>
<path d="M38.4567 122.89L38.4567 108.073L23.5985 108.073L23.5985 122.89L38.4567 122.89Z" stroke="#4EABD9" stroke-width="2" mask="url(#path-1-inside-1)"/>
<path d="M38.4567 95.8716L38.4567 81.055L23.5985 81.055L23.5985 95.8716L38.4567 95.8716Z" stroke="#4EABD9" stroke-width="2" mask="url(#path-1-inside-1)"/>
<path d="M38.4567 68.8532L38.4568 54.0367L23.5985 54.0367L23.5985 68.8532L38.4567 68.8532Z" stroke="#4EABD9" stroke-width="2" mask="url(#path-1-inside-1)"/>
<path d="M38.4568 41.8349L38.4568 27.0183L23.5985 27.0183L23.5985 41.8349L38.4568 41.8349Z" stroke="#4EABD9" stroke-width="2" mask="url(#path-1-inside-1)"/>
<path d="M38.4568 14.8165L38.4568 -1.03152e-06L23.5985 -1.681e-06L23.5985 14.8165L38.4568 14.8165Z" stroke="#4EABD9" stroke-width="2" mask="url(#path-1-inside-1)"/>
<path d="M14.8583 285L14.8583 270.183L4.54104e-05 270.183L4.47627e-05 285L14.8583 285Z" stroke="#4EABD9" stroke-width="2" mask="url(#path-1-inside-1)"/>
<path d="M14.8583 257.982L14.8583 243.165L4.65914e-05 243.165L4.59437e-05 257.982L14.8583 257.982Z" stroke="#4EABD9" stroke-width="2" mask="url(#path-1-inside-1)"/>
<path d="M14.8583 230.963L14.8583 216.147L4.77724e-05 216.147L4.71247e-05 230.963L14.8583 230.963Z" stroke="#4EABD9" stroke-width="2" mask="url(#path-1-inside-1)"/>
<path d="M14.8583 203.945L14.8583 189.128L4.89534e-05 189.128L4.83057e-05 203.945L14.8583 203.945Z" stroke="#4EABD9" stroke-width="2" mask="url(#path-1-inside-1)"/>
<path d="M14.8583 176.927L14.8583 162.11L5.01344e-05 162.11L4.94868e-05 176.927L14.8583 176.927Z" stroke="#4EABD9" stroke-width="2" mask="url(#path-1-inside-1)"/>
<path d="M14.8583 149.908L14.8583 135.092L5.13154e-05 135.092L5.06678e-05 149.908L14.8583 149.908Z" stroke="#4EABD9" stroke-width="2" mask="url(#path-1-inside-1)"/>
<path d="M14.8583 122.89L14.8583 108.073L5.24964e-05 108.073L5.18488e-05 122.89L14.8583 122.89Z" stroke="#4EABD9" stroke-width="2" mask="url(#path-1-inside-1)"/>
<path d="M14.8583 95.8716L14.8583 81.055L5.36774e-05 81.055L5.30298e-05 95.8716L14.8583 95.8716Z" stroke="#4EABD9" stroke-width="2" mask="url(#path-1-inside-1)"/>
<path d="M14.8583 68.8532L14.8583 54.0367L5.48584e-05 54.0367L5.42108e-05 68.8532L14.8583 68.8532Z" stroke="#4EABD9" stroke-width="2" mask="url(#path-1-inside-1)"/>
<path d="M14.8583 41.8349L14.8583 27.0183L5.60394e-05 27.0183L5.53918e-05 41.8349L14.8583 41.8349Z" stroke="#4EABD9" stroke-width="2" mask="url(#path-1-inside-1)"/>
<path d="M14.8583 14.8165L14.8583 -2.06304e-06L5.72205e-05 -2.71252e-06L5.65728e-05 14.8165L14.8583 14.8165Z" stroke="#4EABD9" stroke-width="2" mask="url(#path-1-inside-1)"/>
</svg>
