<svg width="327" height="98" viewBox="0 0 327 98" fill="none" xmlns="http://www.w3.org/2000/svg">
<g opacity="0.3">
<path d="M326.5 27.5H310.5V43.5H326.5V27.5Z" stroke="white"/>
<path d="M295.5 27.5H279.5V43.5H295.5V27.5Z" stroke="white"/>
<path d="M264.5 27.5H248.5V43.5H264.5V27.5Z" stroke="white"/>
<path d="M233.5 27.5H217.5V43.5H233.5V27.5Z" stroke="white"/>
<path d="M202.5 27.5H186.5V43.5H202.5V27.5Z" stroke="white"/>
<path d="M171.5 27.5H155.5V43.5H171.5V27.5Z" stroke="white"/>
<path d="M140.5 27.5H124.5V43.5H140.5V27.5Z" stroke="white"/>
<path d="M109.5 27.5H93.5V43.5H109.5V27.5Z" stroke="white"/>
<path d="M78.5 27.5H62.5V43.5H78.5V27.5Z" stroke="white"/>
<path d="M47.5 27.5H31.5V43.5H47.5V27.5Z" stroke="white"/>
<path d="M16.5 27.5H0.5V43.5H16.5V27.5Z" stroke="white"/>
<path d="M326.5 54.5H310.5V70.5H326.5V54.5Z" stroke="white"/>
<path d="M295.5 54.5H279.5V70.5H295.5V54.5Z" stroke="white"/>
<path d="M264.5 54.5H248.5V70.5H264.5V54.5Z" stroke="white"/>
<path d="M233.5 54.5H217.5V70.5H233.5V54.5Z" stroke="white"/>
<path d="M202.5 54.5H186.5V70.5H202.5V54.5Z" stroke="white"/>
<path d="M171.5 54.5H155.5V70.5H171.5V54.5Z" stroke="white"/>
<path d="M140.5 54.5H124.5V70.5H140.5V54.5Z" stroke="white"/>
<path d="M109.5 54.5H93.5V70.5H109.5V54.5Z" stroke="white"/>
<path d="M78.5 54.5H62.5V70.5H78.5V54.5Z" stroke="white"/>
<path d="M47.5 54.5H31.5V70.5H47.5V54.5Z" stroke="white"/>
<path d="M16.5 54.5H0.5V70.5H16.5V54.5Z" stroke="white"/>
<path d="M326.5 81.5H310.5V97.5H326.5V81.5Z" stroke="white"/>
<path d="M295.5 81.5H279.5V97.5H295.5V81.5Z" stroke="white"/>
<path d="M264.5 81.5H248.5V97.5H264.5V81.5Z" stroke="white"/>
<path d="M233.5 81.5H217.5V97.5H233.5V81.5Z" stroke="white"/>
<path d="M202.5 81.5H186.5V97.5H202.5V81.5Z" stroke="white"/>
<path d="M171.5 81.5H155.5V97.5H171.5V81.5Z" stroke="white"/>
<path d="M140.5 81.5H124.5V97.5H140.5V81.5Z" stroke="white"/>
<path d="M109.5 81.5H93.5V97.5H109.5V81.5Z" stroke="white"/>
<path d="M78.5 81.5H62.5V97.5H78.5V81.5Z" stroke="white"/>
<path d="M47.5 81.5H31.5V97.5H47.5V81.5Z" stroke="white"/>
<path d="M16.5 81.5H0.5V97.5H16.5V81.5Z" stroke="white"/>
</g>
</svg>
