<svg viewBox="0 0 761 391" fill="none" xmlns="http://www.w3.org/2000/svg">
<path d="M111.844 161.958L3.84375 282.567V391H754.634V2.97975L639.345 237.606L533.739 99.9035L427.476 301.025L321.976 237.606L216.923 331.575L111.844 161.958Z" fill="url(#paint0_linear)" fill-opacity="0.3"/>
<g filter="url(#filter0_d)">
<path d="M6.84375 279.567L111.844 161.958L216.923 331.575L321.976 237.606L427.476 301.025L533.739 99.9035L639.345 237.606L754.634 2.97975" stroke="#088CCE"/>
</g>
<circle cx="4" cy="281.135" r="3.5" fill="white" stroke="#088CCE"/>
<circle cx="112.049" cy="162.254" r="3.5" fill="white" stroke="#088CCE"/>
<circle cx="217.138" cy="330.731" r="3.5" fill="white" stroke="#088CCE"/>
<circle cx="322.214" cy="238.226" r="3.5" fill="white" stroke="#088CCE"/>
<circle cx="427.771" cy="300.563" r="3.5" fill="white" stroke="#088CCE"/>
<circle cx="534.067" cy="99.8655" r="3.5" fill="white" stroke="#088CCE"/>
<circle cx="639.676" cy="237.278" r="3.5" fill="white" stroke="#088CCE"/>
<circle cx="755.037" cy="4.46484" r="3.5" fill="white" stroke="#088CCE"/>
<defs>
<filter id="filter0_d" x="1.4707" y="2.75925" width="758.612" height="339.586" filterUnits="userSpaceOnUse" color-interpolation-filters="sRGB">
<feFlood flood-opacity="0" result="BackgroundImageFix"/>
<feColorMatrix in="SourceAlpha" type="matrix" values="0 0 0 0 0 0 0 0 0 0 0 0 0 0 0 0 0 0 127 0"/>
<feOffset dy="5"/>
<feGaussianBlur stdDeviation="2.5"/>
<feColorMatrix type="matrix" values="0 0 0 0 0.0313726 0 0 0 0 0.54902 0 0 0 0 0.807843 0 0 0 1 0"/>
<feBlend mode="normal" in2="BackgroundImageFix" result="effect1_dropShadow"/>
<feBlend mode="normal" in="SourceGraphic" in2="effect1_dropShadow" result="shape"/>
</filter>
<linearGradient id="paint0_linear" x1="1488.31" y1="-122.312" x2="1488.31" y2="503" gradientUnits="userSpaceOnUse">
<stop stop-color="#088CCE"/>
<stop offset="1" stop-color="#007AFF" stop-opacity="0"/>
</linearGradient>
</defs>
</svg>
