<svg width="838" height="535" viewBox="0 0 838 535" fill="none" xmlns="http://www.w3.org/2000/svg">
<mask id="mask0" mask-type="alpha" maskUnits="userSpaceOnUse" x="0" y="0" width="838" height="535">
<path d="M8 0.5H830C834.142 0.5 837.5 3.85786 837.5 8V534.5H0.5V7.99999C0.5 3.85786 3.85786 0.5 8 0.5Z" fill="white" stroke="#E4E4E4"/>
</mask>
<g mask="url(#mask0)">
<path d="M29.9586 487.129C29.0598 487.129 28.358 486.767 27.8531 486.044C27.3518 485.331 27.1012 484.357 27.1012 483.122C27.1012 481.897 27.3518 480.927 27.8531 480.211C28.3652 479.484 29.067 479.121 29.9586 479.121C30.8502 479.121 31.5502 479.482 32.0587 480.206C32.5564 480.918 32.8053 481.889 32.8053 483.117C32.8053 484.352 32.5564 485.326 32.0587 486.039C31.5538 486.765 30.8538 487.129 29.9586 487.129ZM29.9586 486.286C30.5566 486.286 31.0203 485.999 31.3497 485.426C31.672 484.871 31.8331 484.103 31.8331 483.122C31.8331 482.155 31.6702 481.391 31.3443 480.829C31.0113 480.256 30.5494 479.969 29.9586 479.969C29.3678 479.969 28.9041 480.257 28.5675 480.834C28.238 481.396 28.0733 482.157 28.0733 483.117C28.0733 484.098 28.2362 484.868 28.5621 485.426C28.8951 485.999 29.3606 486.286 29.9586 486.286Z" fill="#747D88"/>
<path d="M24.346 415.275H24.3245L22.2728 416.752V415.732L24.3353 414.25H25.2806V422H24.346V415.275ZM29.9588 422.129C29.0601 422.129 28.3582 421.767 27.8533 421.044C27.352 420.331 27.1014 419.357 27.1014 418.122C27.1014 416.897 27.352 415.927 27.8533 415.211C28.3654 414.484 29.0672 414.121 29.9588 414.121C30.8504 414.121 31.5505 414.482 32.0589 415.206C32.5566 415.918 32.8055 416.889 32.8055 418.117C32.8055 419.352 32.5566 420.326 32.0589 421.039C31.554 421.765 30.854 422.129 29.9588 422.129ZM29.9588 421.286C30.5568 421.286 31.0205 420.999 31.3499 420.426C31.6722 419.871 31.8333 419.103 31.8333 418.122C31.8333 417.155 31.6704 416.391 31.3446 415.829C31.0116 415.256 30.5496 414.969 29.9588 414.969C29.368 414.969 28.9043 415.257 28.5677 415.834C28.2383 416.396 28.0736 417.157 28.0736 418.117C28.0736 419.098 28.2365 419.868 28.5623 420.426C28.8953 420.999 29.3608 421.286 29.9588 421.286Z" fill="#747D88"/>
<path d="M20.9675 351.484C20.9675 350.807 21.2109 350.243 21.6979 349.792C22.1849 349.344 22.7936 349.121 23.5241 349.121C24.2152 349.121 24.8006 349.326 25.2804 349.738C25.7603 350.15 26.0002 350.653 26.0002 351.248C26.0002 351.677 25.8802 352.093 25.6403 352.494C25.4076 352.888 24.9653 353.421 24.3136 354.094L22.3532 356.119V356.141H26.1291V357H21.0158V356.334L23.7443 353.46C24.2635 352.913 24.6091 352.497 24.7809 352.214C24.9492 351.931 25.0334 351.629 25.0334 351.307C25.0334 350.934 24.8848 350.617 24.5876 350.356C24.2868 350.095 23.9233 349.964 23.4972 349.964C23.0425 349.964 22.6629 350.109 22.3586 350.399C22.0542 350.689 21.902 351.051 21.902 351.484V351.489H20.9675V351.484ZM29.9587 357.129C29.0599 357.129 28.3581 356.767 27.8532 356.044C27.3519 355.331 27.1012 354.357 27.1012 353.122C27.1012 351.897 27.3519 350.927 27.8532 350.211C28.3652 349.484 29.0671 349.121 29.9587 349.121C30.8503 349.121 31.5503 349.482 32.0588 350.206C32.5565 350.918 32.8053 351.889 32.8053 353.117C32.8053 354.352 32.5565 355.326 32.0588 356.039C31.5539 356.765 30.8538 357.129 29.9587 357.129ZM29.9587 356.286C30.5566 356.286 31.0204 355.999 31.3498 355.426C31.672 354.871 31.8332 354.103 31.8332 353.122C31.8332 352.155 31.6703 351.391 31.3444 350.829C31.0114 350.256 30.5495 349.969 29.9587 349.969C29.3678 349.969 28.9041 350.257 28.5676 350.834C28.2381 351.396 28.0734 352.157 28.0734 353.117C28.0734 354.098 28.2363 354.868 28.5622 355.426C28.8952 355.999 29.3607 356.286 29.9587 356.286Z" fill="#747D88"/>
<path d="M22.3156 287.606H23.2448C23.6888 287.606 24.0523 287.478 24.3351 287.22C24.618 286.965 24.7594 286.641 24.7594 286.248C24.7594 285.854 24.6323 285.542 24.3781 285.313C24.1095 285.077 23.7354 284.958 23.2555 284.958C22.8115 284.958 22.4499 285.077 22.1706 285.313C21.8913 285.549 21.7301 285.872 21.6872 286.28H20.758C20.8117 285.621 21.0659 285.096 21.5207 284.706C21.979 284.316 22.5716 284.121 23.2985 284.121C23.9967 284.121 24.575 284.309 25.0334 284.685C25.4989 285.061 25.7316 285.539 25.7316 286.119C25.7316 286.602 25.5884 287.008 25.3019 287.338C25.0155 287.667 24.6287 287.875 24.1418 287.961V287.982C24.729 288.018 25.1963 288.204 25.5436 288.541C25.891 288.881 26.0646 289.323 26.0646 289.868C26.0646 290.527 25.7996 291.069 25.2697 291.495C24.7469 291.918 24.1006 292.129 23.3307 292.129C22.5287 292.129 21.8805 291.927 21.3864 291.522C20.8994 291.125 20.638 290.6 20.6022 289.948H21.5314C21.5744 290.353 21.7534 290.675 22.0685 290.915C22.3908 291.166 22.8079 291.291 23.32 291.291C23.832 291.291 24.2546 291.16 24.5876 290.899C24.917 290.638 25.0817 290.305 25.0817 289.9C25.0817 289.445 24.9206 289.085 24.5983 288.82C24.2796 288.555 23.8428 288.423 23.2878 288.423H22.3156V287.606ZM29.9587 292.129C29.0599 292.129 28.3581 291.767 27.8532 291.044C27.3519 290.331 27.1012 289.357 27.1012 288.122C27.1012 286.897 27.3519 285.927 27.8532 285.211C28.3652 284.484 29.0671 284.121 29.9587 284.121C30.8503 284.121 31.5503 284.482 32.0588 285.206C32.5565 285.918 32.8053 286.889 32.8053 288.117C32.8053 289.352 32.5565 290.326 32.0588 291.039C31.5539 291.765 30.8538 292.129 29.9587 292.129ZM29.9587 291.286C30.5566 291.286 31.0204 290.999 31.3498 290.426C31.672 289.871 31.8332 289.103 31.8332 288.122C31.8332 287.155 31.6703 286.391 31.3444 285.829C31.0114 285.256 30.5495 284.969 29.9587 284.969C29.3678 284.969 28.9041 285.257 28.5676 285.834C28.2381 286.396 28.0734 287.157 28.0734 288.117C28.0734 289.098 28.2363 289.868 28.5622 290.426C28.8952 290.999 29.3607 291.286 29.9587 291.286Z" fill="#747D88"/>
<path d="M24.2708 225.389H20.3767V224.513C20.9926 223.371 22.1259 221.616 23.7766 219.25H25.2054V224.54H26.3011V225.389H25.2054V227H24.2708V225.389ZM21.3328 224.54H24.2708V220.055H24.2547C22.8976 221.992 21.9236 223.48 21.3328 224.519V224.54ZM29.9588 227.129C29.06 227.129 28.3582 226.767 27.8533 226.044C27.352 225.331 27.1014 224.357 27.1014 223.122C27.1014 221.897 27.352 220.927 27.8533 220.211C28.3654 219.484 29.0672 219.121 29.9588 219.121C30.8504 219.121 31.5504 219.482 32.0589 220.206C32.5566 220.918 32.8055 221.889 32.8055 223.117C32.8055 224.352 32.5566 225.326 32.0589 226.039C31.554 226.765 30.854 227.129 29.9588 227.129ZM29.9588 226.286C30.5568 226.286 31.0205 225.999 31.3499 225.426C31.6722 224.871 31.8333 224.103 31.8333 223.122C31.8333 222.155 31.6704 221.391 31.3445 220.829C31.0115 220.256 30.5496 219.969 29.9588 219.969C29.368 219.969 28.9043 220.257 28.5677 220.834C28.2382 221.396 28.0735 222.157 28.0735 223.117C28.0735 224.098 28.2364 224.868 28.5623 225.426C28.8953 225.999 29.3608 226.286 29.9588 226.286Z" fill="#747D88"/>
<path d="M23.4759 162.129C22.7347 162.129 22.117 161.919 21.6228 161.5C21.1251 161.082 20.8566 160.543 20.8172 159.884H21.7679C21.8108 160.296 21.9917 160.632 22.3103 160.894C22.629 161.151 23.0211 161.28 23.4866 161.28C24.013 161.28 24.4427 161.116 24.7757 160.786C25.1051 160.457 25.2698 160.031 25.2698 159.508C25.2698 158.985 25.1051 158.557 24.7757 158.224C24.4427 157.888 24.0183 157.719 23.5027 157.719C22.7364 157.719 22.1832 158.009 21.8431 158.589H20.9353L21.3597 154.25H25.7962V155.109H22.1546L21.9183 157.633H21.9397C22.3121 157.136 22.8904 156.887 23.6746 156.887C24.4194 156.887 25.0317 157.13 25.5115 157.617C25.9949 158.108 26.2366 158.729 26.2366 159.481C26.2366 160.258 25.9788 160.894 25.4632 161.388C24.9475 161.882 24.2851 162.129 23.4759 162.129ZM29.9588 162.129C29.06 162.129 28.3582 161.767 27.8533 161.044C27.352 160.331 27.1014 159.357 27.1014 158.122C27.1014 156.897 27.352 155.927 27.8533 155.211C28.3654 154.484 29.0672 154.121 29.9588 154.121C30.8504 154.121 31.5504 154.482 32.0589 155.206C32.5566 155.918 32.8055 156.889 32.8055 158.117C32.8055 159.352 32.5566 160.326 32.0589 161.039C31.554 161.765 30.854 162.129 29.9588 162.129ZM29.9588 161.286C30.5568 161.286 31.0205 160.999 31.3499 160.426C31.6722 159.871 31.8333 159.103 31.8333 158.122C31.8333 157.155 31.6704 156.391 31.3445 155.829C31.0115 155.256 30.5496 154.969 29.9588 154.969C29.368 154.969 28.9043 155.257 28.5677 155.834C28.2382 156.396 28.0735 157.157 28.0735 158.117C28.0735 159.098 28.2364 159.868 28.5623 160.426C28.8953 160.999 29.3608 161.286 29.9588 161.286Z" fill="#747D88"/>
<path d="M23.465 97.1343C22.8849 97.1343 22.3729 96.9821 21.9289 96.6777C21.4849 96.377 21.1429 95.9473 20.903 95.3887C20.6488 94.8014 20.5216 94.0907 20.5216 93.2563C20.5216 91.9494 20.7866 90.9325 21.3166 90.2056C21.8429 89.4787 22.5806 89.1152 23.5295 89.1152C24.1883 89.1152 24.7505 89.2979 25.216 89.6631C25.6815 90.0283 25.9769 90.5153 26.1022 91.124H25.1193C25.0155 90.7731 24.8185 90.492 24.5285 90.2808C24.2384 90.0731 23.9019 89.9692 23.5187 89.9692C22.8706 89.9692 22.3693 90.2467 22.0148 90.8018C21.6603 91.3568 21.4741 92.1499 21.4562 93.1812H21.4723C21.6478 92.8016 21.9325 92.4972 22.3263 92.2681C22.7202 92.0389 23.1571 91.9243 23.6369 91.9243C24.3745 91.9243 24.9886 92.1678 25.4792 92.6548C25.9661 93.1418 26.2096 93.7523 26.2096 94.4863C26.2096 95.2526 25.9518 95.8846 25.4362 96.3823C24.917 96.8836 24.2599 97.1343 23.465 97.1343ZM23.4543 96.2749C23.9484 96.2749 24.3673 96.1048 24.7111 95.7646C25.0548 95.4245 25.2267 95.0091 25.2267 94.5186C25.2267 94.0101 25.062 93.5929 24.7326 93.2671C24.4032 92.9377 23.9824 92.7729 23.4704 92.7729C22.9583 92.7729 22.5322 92.9359 22.1921 93.2617C21.8555 93.5876 21.6872 93.9976 21.6872 94.4917C21.6872 94.9894 21.8573 95.4102 22.1974 95.7539C22.5412 96.1012 22.9601 96.2749 23.4543 96.2749ZM29.9587 97.1289C29.0599 97.1289 28.3581 96.7673 27.8532 96.0439C27.3519 95.3314 27.1012 94.3574 27.1012 93.1221C27.1012 91.8975 27.3519 90.9271 27.8532 90.2109C28.3652 89.484 29.0671 89.1206 29.9587 89.1206C30.8503 89.1206 31.5503 89.4823 32.0588 90.2056C32.5565 90.9181 32.8053 91.8885 32.8053 93.1167C32.8053 94.3521 32.5565 95.326 32.0588 96.0386C31.5539 96.7655 30.8538 97.1289 29.9587 97.1289ZM29.9587 96.2856C30.5566 96.2856 31.0203 95.9992 31.3498 95.4263C31.672 94.8713 31.8332 94.1032 31.8332 93.1221C31.8332 92.1553 31.6702 91.3908 31.3444 90.8286C31.0114 90.2557 30.5495 89.9692 29.9587 89.9692C29.3678 89.9692 28.9041 90.2575 28.5675 90.834C28.2381 91.3962 28.0734 92.1571 28.0734 93.1167C28.0734 94.0978 28.2363 94.8677 28.5622 95.4263C28.8952 95.9992 29.3607 96.2856 29.9587 96.2856Z" fill="#747D88"/>
<path d="M80.8877 516.484C80.8877 515.807 81.1312 515.243 81.6182 514.792C82.1051 514.344 82.7139 514.121 83.4443 514.121C84.1354 514.121 84.7209 514.326 85.2007 514.738C85.6805 515.15 85.9204 515.653 85.9204 516.248C85.9204 516.677 85.8005 517.093 85.5605 517.494C85.3278 517.888 84.8856 518.421 84.2339 519.094L82.2734 521.119V521.141H86.0493V522H80.936V521.334L83.6646 518.46C84.1838 517.913 84.5293 517.497 84.7012 517.214C84.8695 516.931 84.9536 516.629 84.9536 516.307C84.9536 515.934 84.805 515.617 84.5078 515.356C84.207 515.095 83.8436 514.964 83.4175 514.964C82.9627 514.964 82.5832 515.109 82.2788 515.399C81.9744 515.689 81.8223 516.051 81.8223 516.484V516.489H80.8877V516.484ZM89.8789 522.129C88.9801 522.129 88.2783 521.767 87.7734 521.044C87.2721 520.331 87.0215 519.357 87.0215 518.122C87.0215 516.897 87.2721 515.927 87.7734 515.211C88.2855 514.484 88.9873 514.121 89.8789 514.121C90.7705 514.121 91.4705 514.482 91.979 515.206C92.4767 515.918 92.7256 516.889 92.7256 518.117C92.7256 519.352 92.4767 520.326 91.979 521.039C91.4741 521.765 90.7741 522.129 89.8789 522.129ZM89.8789 521.286C90.4769 521.286 90.9406 520.999 91.27 520.426C91.5923 519.871 91.7534 519.103 91.7534 518.122C91.7534 517.155 91.5905 516.391 91.2646 515.829C90.9316 515.256 90.4697 514.969 89.8789 514.969C89.2881 514.969 88.8244 515.257 88.4878 515.834C88.1584 516.396 87.9937 517.157 87.9937 518.117C87.9937 519.098 88.1566 519.868 88.4824 520.426C88.8154 520.999 89.2809 521.286 89.8789 521.286ZM95.7065 515.275H95.6851L93.6333 516.752V515.732L95.6958 514.25H96.6411V522H95.7065V515.275ZM101.072 522.129C100.413 522.129 99.8494 521.946 99.3804 521.581C98.9113 521.216 98.6177 520.729 98.4995 520.12H99.4824C99.5863 520.471 99.7832 520.754 100.073 520.969C100.363 521.18 100.7 521.286 101.083 521.286C101.728 521.286 102.229 521.005 102.587 520.442C102.941 519.884 103.126 519.089 103.14 518.058H103.124C102.959 518.441 102.682 518.749 102.292 518.981C101.898 519.211 101.454 519.325 100.959 519.325C100.222 519.325 99.6077 519.082 99.1172 518.595C98.6302 518.108 98.3867 517.497 98.3867 516.763C98.3867 515.997 98.6463 515.365 99.1655 514.867C99.6812 514.366 100.336 514.115 101.131 514.115C101.715 514.115 102.229 514.266 102.673 514.566C103.117 514.871 103.457 515.3 103.693 515.855C103.948 516.443 104.075 517.155 104.075 517.993C104.075 519.3 103.812 520.315 103.285 521.039C102.759 521.765 102.021 522.129 101.072 522.129ZM101.126 518.477C101.638 518.477 102.064 518.314 102.404 517.988C102.744 517.662 102.915 517.252 102.915 516.758C102.915 516.26 102.744 515.841 102.404 515.501C102.061 515.157 101.64 514.985 101.142 514.985C100.644 514.985 100.224 515.155 99.8799 515.496C99.5361 515.832 99.3643 516.244 99.3643 516.731C99.3643 517.236 99.5308 517.653 99.8638 517.982C100.197 518.312 100.618 518.477 101.126 518.477Z" fill="#747D88"/>
<path d="M185.668 516.484C185.668 515.807 185.911 515.243 186.398 514.792C186.885 514.344 187.494 514.121 188.225 514.121C188.916 514.121 189.501 514.326 189.981 514.738C190.461 515.15 190.701 515.653 190.701 516.248C190.701 516.677 190.581 517.093 190.341 517.494C190.108 517.888 189.666 518.421 189.014 519.094L187.054 521.119V521.141H190.83V522H185.716V521.334L188.445 518.46C188.964 517.913 189.31 517.497 189.481 517.214C189.65 516.931 189.734 516.629 189.734 516.307C189.734 515.934 189.585 515.617 189.288 515.356C188.987 515.095 188.624 514.964 188.198 514.964C187.743 514.964 187.363 515.109 187.059 515.399C186.755 515.689 186.603 516.051 186.603 516.484V516.489H185.668V516.484ZM194.659 522.129C193.76 522.129 193.059 521.767 192.554 521.044C192.052 520.331 191.802 519.357 191.802 518.122C191.802 516.897 192.052 515.927 192.554 515.211C193.066 514.484 193.768 514.121 194.659 514.121C195.551 514.121 196.251 514.482 196.759 515.206C197.257 515.918 197.506 516.889 197.506 518.117C197.506 519.352 197.257 520.326 196.759 521.039C196.254 521.765 195.554 522.129 194.659 522.129ZM194.659 521.286C195.257 521.286 195.721 520.999 196.05 520.426C196.373 519.871 196.534 519.103 196.534 518.122C196.534 517.155 196.371 516.391 196.045 515.829C195.712 515.256 195.25 514.969 194.659 514.969C194.068 514.969 193.605 515.257 193.268 515.834C192.939 516.396 192.774 517.157 192.774 518.117C192.774 519.098 192.937 519.868 193.263 520.426C193.596 520.999 194.061 521.286 194.659 521.286ZM198.462 516.484C198.462 515.807 198.705 515.243 199.192 514.792C199.679 514.344 200.288 514.121 201.019 514.121C201.71 514.121 202.295 514.326 202.775 514.738C203.255 515.15 203.495 515.653 203.495 516.248C203.495 516.677 203.375 517.093 203.135 517.494C202.902 517.888 202.46 518.421 201.808 519.094L199.848 521.119V521.141H203.624V522H198.51V521.334L201.239 518.46C201.758 517.913 202.104 517.497 202.275 517.214C202.444 516.931 202.528 516.629 202.528 516.307C202.528 515.934 202.379 515.617 202.082 515.356C201.781 515.095 201.418 514.964 200.992 514.964C200.537 514.964 200.157 515.109 199.853 515.399C199.549 515.689 199.396 516.051 199.396 516.484V516.489H198.462V516.484ZM207.453 522.129C206.554 522.129 205.853 521.767 205.348 521.044C204.846 520.331 204.596 519.357 204.596 518.122C204.596 516.897 204.846 515.927 205.348 515.211C205.86 514.484 206.562 514.121 207.453 514.121C208.345 514.121 209.045 514.482 209.553 515.206C210.051 515.918 210.3 516.889 210.3 518.117C210.3 519.352 210.051 520.326 209.553 521.039C209.048 521.765 208.348 522.129 207.453 522.129ZM207.453 521.286C208.051 521.286 208.515 520.999 208.844 520.426C209.167 519.871 209.328 519.103 209.328 518.122C209.328 517.155 209.165 516.391 208.839 515.829C208.506 515.256 208.044 514.969 207.453 514.969C206.862 514.969 206.399 515.257 206.062 515.834C205.733 516.396 205.568 517.157 205.568 518.117C205.568 519.098 205.731 519.868 206.057 520.426C206.39 520.999 206.855 521.286 207.453 521.286Z" fill="#747D88"/>
<path d="M291.565 516.484C291.565 515.807 291.808 515.243 292.295 514.792C292.782 514.344 293.391 514.121 294.122 514.121C294.813 514.121 295.398 514.326 295.878 514.738C296.358 515.15 296.598 515.653 296.598 516.248C296.598 516.677 296.478 517.093 296.238 517.494C296.005 517.888 295.563 518.421 294.911 519.094L292.951 521.119V521.141H296.727V522H291.613V521.334L294.342 518.46C294.861 517.913 295.207 517.497 295.378 517.214C295.547 516.931 295.631 516.629 295.631 516.307C295.631 515.934 295.482 515.617 295.185 515.356C294.884 515.095 294.521 514.964 294.095 514.964C293.64 514.964 293.26 515.109 292.956 515.399C292.652 515.689 292.5 516.051 292.5 516.484V516.489H291.565V516.484ZM300.556 522.129C299.657 522.129 298.956 521.767 298.451 521.044C297.949 520.331 297.699 519.357 297.699 518.122C297.699 516.897 297.949 515.927 298.451 515.211C298.963 514.484 299.665 514.121 300.556 514.121C301.448 514.121 302.148 514.482 302.656 515.206C303.154 515.918 303.403 516.889 303.403 518.117C303.403 519.352 303.154 520.326 302.656 521.039C302.151 521.765 301.451 522.129 300.556 522.129ZM300.556 521.286C301.154 521.286 301.618 520.999 301.947 520.426C302.27 519.871 302.431 519.103 302.431 518.122C302.431 517.155 302.268 516.391 301.942 515.829C301.609 515.256 301.147 514.969 300.556 514.969C299.965 514.969 299.502 515.257 299.165 515.834C298.836 516.396 298.671 517.157 298.671 518.117C298.671 519.098 298.834 519.868 299.16 520.426C299.493 520.999 299.958 521.286 300.556 521.286ZM304.359 516.484C304.359 515.807 304.602 515.243 305.089 514.792C305.576 514.344 306.185 514.121 306.916 514.121C307.607 514.121 308.192 514.326 308.672 514.738C309.152 515.15 309.392 515.653 309.392 516.248C309.392 516.677 309.272 517.093 309.032 517.494C308.799 517.888 308.357 518.421 307.705 519.094L305.745 521.119V521.141H309.521V522H304.407V521.334L307.136 518.46C307.655 517.913 308 517.497 308.172 517.214C308.341 516.931 308.425 516.629 308.425 516.307C308.425 515.934 308.276 515.617 307.979 515.356C307.678 515.095 307.315 514.964 306.889 514.964C306.434 514.964 306.054 515.109 305.75 515.399C305.446 515.689 305.293 516.051 305.293 516.484V516.489H304.359V516.484ZM312.614 515.275H312.593L310.541 516.752V515.732L312.604 514.25H313.549V522H312.614V515.275Z" fill="#747D88"/>
<path d="M395.888 516.484C395.888 515.807 396.132 515.243 396.619 514.792C397.106 514.344 397.714 514.121 398.445 514.121C399.136 514.121 399.721 514.326 400.201 514.738C400.681 515.15 400.921 515.653 400.921 516.248C400.921 516.677 400.801 517.093 400.561 517.494C400.328 517.888 399.886 518.421 399.234 519.094L397.274 521.119V521.141H401.05V522H395.937V521.334L398.665 518.46C399.184 517.913 399.53 517.497 399.702 517.214C399.87 516.931 399.954 516.629 399.954 516.307C399.954 515.934 399.806 515.617 399.508 515.356C399.208 515.095 398.844 514.964 398.418 514.964C397.963 514.964 397.584 515.109 397.279 515.399C396.975 515.689 396.823 516.051 396.823 516.484V516.489H395.888V516.484ZM404.879 522.129C403.981 522.129 403.279 521.767 402.774 521.044C402.273 520.331 402.022 519.357 402.022 518.122C402.022 516.897 402.273 515.927 402.774 515.211C403.286 514.484 403.988 514.121 404.879 514.121C405.771 514.121 406.471 514.482 406.979 515.206C407.477 515.918 407.726 516.889 407.726 518.117C407.726 519.352 407.477 520.326 406.979 521.039C406.475 521.765 405.775 522.129 404.879 522.129ZM404.879 521.286C405.477 521.286 405.941 520.999 406.271 520.426C406.593 519.871 406.754 519.103 406.754 518.122C406.754 517.155 406.591 516.391 406.265 515.829C405.932 515.256 405.47 514.969 404.879 514.969C404.289 514.969 403.825 515.257 403.488 515.834C403.159 516.396 402.994 517.157 402.994 518.117C402.994 519.098 403.157 519.868 403.483 520.426C403.816 520.999 404.281 521.286 404.879 521.286ZM408.682 516.484C408.682 515.807 408.926 515.243 409.413 514.792C409.9 514.344 410.508 514.121 411.239 514.121C411.93 514.121 412.515 514.326 412.995 514.738C413.475 515.15 413.715 515.653 413.715 516.248C413.715 516.677 413.595 517.093 413.355 517.494C413.122 517.888 412.68 518.421 412.028 519.094L410.068 521.119V521.141H413.844V522H408.73V521.334L411.459 518.46C411.978 517.913 412.324 517.497 412.496 517.214C412.664 516.931 412.748 516.629 412.748 516.307C412.748 515.934 412.599 515.617 412.302 515.356C412.001 515.095 411.638 514.964 411.212 514.964C410.757 514.964 410.378 515.109 410.073 515.399C409.769 515.689 409.617 516.051 409.617 516.484V516.489H408.682V516.484ZM414.913 516.484C414.913 515.807 415.156 515.243 415.643 514.792C416.13 514.344 416.739 514.121 417.469 514.121C418.16 514.121 418.746 514.326 419.226 514.738C419.705 515.15 419.945 515.653 419.945 516.248C419.945 516.677 419.825 517.093 419.585 517.494C419.353 517.888 418.91 518.421 418.259 519.094L416.298 521.119V521.141H420.074V522H414.961V521.334L417.689 518.46C418.209 517.913 418.554 517.497 418.726 517.214C418.894 516.931 418.979 516.629 418.979 516.307C418.979 515.934 418.83 515.617 418.533 515.356C418.232 515.095 417.868 514.964 417.442 514.964C416.988 514.964 416.608 515.109 416.304 515.399C415.999 515.689 415.847 516.051 415.847 516.484V516.489H414.913V516.484Z" fill="#747D88"/>
<path d="M501.749 516.484C501.749 515.807 501.992 515.243 502.479 514.792C502.966 514.344 503.575 514.121 504.305 514.121C504.996 514.121 505.582 514.326 506.062 514.738C506.541 515.15 506.781 515.653 506.781 516.248C506.781 516.677 506.661 517.093 506.421 517.494C506.189 517.888 505.746 518.421 505.095 519.094L503.134 521.119V521.141H506.91V522H501.797V521.334L504.525 518.46C505.045 517.913 505.39 517.497 505.562 517.214C505.73 516.931 505.814 516.629 505.814 516.307C505.814 515.934 505.666 515.617 505.369 515.356C505.068 515.095 504.704 514.964 504.278 514.964C503.824 514.964 503.444 515.109 503.14 515.399C502.835 515.689 502.683 516.051 502.683 516.484V516.489H501.749V516.484ZM510.74 522.129C509.841 522.129 509.139 521.767 508.634 521.044C508.133 520.331 507.882 519.357 507.882 518.122C507.882 516.897 508.133 515.927 508.634 515.211C509.146 514.484 509.848 514.121 510.74 514.121C511.631 514.121 512.331 514.482 512.84 515.206C513.338 515.918 513.586 516.889 513.586 518.117C513.586 519.352 513.338 520.326 512.84 521.039C512.335 521.765 511.635 522.129 510.74 522.129ZM510.74 521.286C511.338 521.286 511.801 520.999 512.131 520.426C512.453 519.871 512.614 519.103 512.614 518.122C512.614 517.155 512.451 516.391 512.125 515.829C511.792 515.256 511.331 514.969 510.74 514.969C510.149 514.969 509.685 515.257 509.349 515.834C509.019 516.396 508.854 517.157 508.854 518.117C508.854 519.098 509.017 519.868 509.343 520.426C509.676 520.999 510.142 521.286 510.74 521.286ZM514.542 516.484C514.542 515.807 514.786 515.243 515.273 514.792C515.76 514.344 516.369 514.121 517.099 514.121C517.79 514.121 518.376 514.326 518.855 514.738C519.335 515.15 519.575 515.653 519.575 516.248C519.575 516.677 519.455 517.093 519.215 517.494C518.983 517.888 518.54 518.421 517.889 519.094L515.928 521.119V521.141H519.704V522H514.591V521.334L517.319 518.46C517.839 517.913 518.184 517.497 518.356 517.214C518.524 516.931 518.608 516.629 518.608 516.307C518.608 515.934 518.46 515.617 518.163 515.356C517.862 515.095 517.498 514.964 517.072 514.964C516.618 514.964 516.238 515.109 515.934 515.399C515.629 515.689 515.477 516.051 515.477 516.484V516.489H514.542V516.484ZM522.4 517.606H523.33C523.774 517.606 524.137 517.478 524.42 517.22C524.703 516.965 524.844 516.641 524.844 516.248C524.844 515.854 524.717 515.542 524.463 515.313C524.194 515.077 523.82 514.958 523.34 514.958C522.896 514.958 522.535 515.077 522.255 515.313C521.976 515.549 521.815 515.872 521.772 516.28H520.843C520.896 515.621 521.151 515.096 521.605 514.706C522.064 514.316 522.656 514.121 523.383 514.121C524.082 514.121 524.66 514.309 525.118 514.685C525.584 515.061 525.816 515.539 525.816 516.119C525.816 516.602 525.673 517.008 525.387 517.338C525.1 517.667 524.714 517.875 524.227 517.961V517.982C524.814 518.018 525.281 518.204 525.628 518.541C525.976 518.881 526.149 519.323 526.149 519.868C526.149 520.527 525.884 521.069 525.354 521.495C524.832 521.918 524.185 522.129 523.416 522.129C522.613 522.129 521.965 521.927 521.471 521.522C520.984 521.125 520.723 520.6 520.687 519.948H521.616C521.659 520.353 521.838 520.675 522.153 520.915C522.476 521.166 522.893 521.291 523.405 521.291C523.917 521.291 524.339 521.16 524.672 520.899C525.002 520.638 525.167 520.305 525.167 519.9C525.167 519.445 525.005 519.085 524.683 518.82C524.364 518.555 523.928 518.423 523.373 518.423H522.4V517.606Z" fill="#747D88"/>
<path d="M607.808 516.484C607.808 515.807 608.051 515.243 608.538 514.792C609.025 514.344 609.634 514.121 610.364 514.121C611.055 514.121 611.641 514.326 612.121 514.738C612.6 515.15 612.84 515.653 612.84 516.248C612.84 516.677 612.72 517.093 612.48 517.494C612.248 517.888 611.806 518.421 611.154 519.094L609.193 521.119V521.141H612.969V522H607.856V521.334L610.584 518.46C611.104 517.913 611.449 517.497 611.621 517.214C611.789 516.931 611.874 516.629 611.874 516.307C611.874 515.934 611.725 515.617 611.428 515.356C611.127 515.095 610.764 514.964 610.337 514.964C609.883 514.964 609.503 515.109 609.199 515.399C608.894 515.689 608.742 516.051 608.742 516.484V516.489H607.808V516.484ZM616.799 522.129C615.9 522.129 615.198 521.767 614.693 521.044C614.192 520.331 613.941 519.357 613.941 518.122C613.941 516.897 614.192 515.927 614.693 515.211C615.205 514.484 615.907 514.121 616.799 514.121C617.69 514.121 618.39 514.482 618.899 515.206C619.397 515.918 619.646 516.889 619.646 518.117C619.646 519.352 619.397 520.326 618.899 521.039C618.394 521.765 617.694 522.129 616.799 522.129ZM616.799 521.286C617.397 521.286 617.861 520.999 618.19 520.426C618.512 519.871 618.673 519.103 618.673 518.122C618.673 517.155 618.51 516.391 618.185 515.829C617.852 515.256 617.39 514.969 616.799 514.969C616.208 514.969 615.744 515.257 615.408 515.834C615.078 516.396 614.914 517.157 614.914 518.117C614.914 519.098 615.076 519.868 615.402 520.426C615.735 520.999 616.201 521.286 616.799 521.286ZM620.602 516.484C620.602 515.807 620.845 515.243 621.332 514.792C621.819 514.344 622.428 514.121 623.158 514.121C623.849 514.121 624.435 514.326 624.915 514.738C625.394 515.15 625.634 515.653 625.634 516.248C625.634 516.677 625.514 517.093 625.274 517.494C625.042 517.888 624.599 518.421 623.948 519.094L621.987 521.119V521.141H625.763V522H620.65V521.334L623.378 518.46C623.898 517.913 624.243 517.497 624.415 517.214C624.583 516.931 624.667 516.629 624.667 516.307C624.667 515.934 624.519 515.617 624.222 515.356C623.921 515.095 623.557 514.964 623.131 514.964C622.677 514.964 622.297 515.109 621.993 515.399C621.688 515.689 621.536 516.051 621.536 516.484V516.489H620.602V516.484ZM630.296 520.389H626.402V519.513C627.018 518.371 628.152 516.616 629.802 514.25H631.231V519.54H632.327V520.389H631.231V522H630.296V520.389ZM627.358 519.54H630.296V515.055H630.28C628.923 516.992 627.949 518.48 627.358 519.519V519.54Z" fill="#747D88"/>
<path d="M713.786 516.484C713.786 515.807 714.03 515.243 714.517 514.792C715.004 514.344 715.612 514.121 716.343 514.121C717.034 514.121 717.619 514.326 718.099 514.738C718.579 515.15 718.819 515.653 718.819 516.248C718.819 516.677 718.699 517.093 718.459 517.494C718.226 517.888 717.784 518.421 717.132 519.094L715.172 521.119V521.141H718.948V522H713.834V521.334L716.563 518.46C717.082 517.913 717.428 517.497 717.6 517.214C717.768 516.931 717.852 516.629 717.852 516.307C717.852 515.934 717.703 515.617 717.406 515.356C717.105 515.095 716.742 514.964 716.316 514.964C715.861 514.964 715.482 515.109 715.177 515.399C714.873 515.689 714.721 516.051 714.721 516.484V516.489H713.786V516.484ZM722.777 522.129C721.879 522.129 721.177 521.767 720.672 521.044C720.171 520.331 719.92 519.357 719.92 518.122C719.92 516.897 720.171 515.927 720.672 515.211C721.184 514.484 721.886 514.121 722.777 514.121C723.669 514.121 724.369 514.482 724.877 515.206C725.375 515.918 725.624 516.889 725.624 518.117C725.624 519.352 725.375 520.326 724.877 521.039C724.373 521.765 723.673 522.129 722.777 522.129ZM722.777 521.286C723.375 521.286 723.839 520.999 724.168 520.426C724.491 519.871 724.652 519.103 724.652 518.122C724.652 517.155 724.489 516.391 724.163 515.829C723.83 515.256 723.368 514.969 722.777 514.969C722.187 514.969 721.723 515.257 721.386 515.834C721.057 516.396 720.892 517.157 720.892 518.117C720.892 519.098 721.055 519.868 721.381 520.426C721.714 520.999 722.179 521.286 722.777 521.286ZM726.58 516.484C726.58 515.807 726.824 515.243 727.311 514.792C727.798 514.344 728.406 514.121 729.137 514.121C729.828 514.121 730.413 514.326 730.893 514.738C731.373 515.15 731.613 515.653 731.613 516.248C731.613 516.677 731.493 517.093 731.253 517.494C731.02 517.888 730.578 518.421 729.926 519.094L727.966 521.119V521.141H731.742V522H726.628V521.334L729.357 518.46C729.876 517.913 730.222 517.497 730.394 517.214C730.562 516.931 730.646 516.629 730.646 516.307C730.646 515.934 730.497 515.617 730.2 515.356C729.899 515.095 729.536 514.964 729.11 514.964C728.655 514.964 728.276 515.109 727.971 515.399C727.667 515.689 727.515 516.051 727.515 516.484V516.489H726.58V516.484ZM735.523 522.129C734.782 522.129 734.164 521.919 733.67 521.5C733.172 521.082 732.904 520.543 732.864 519.884H733.815C733.858 520.296 734.039 520.632 734.357 520.894C734.676 521.151 735.068 521.28 735.534 521.28C736.06 521.28 736.49 521.116 736.823 520.786C737.152 520.457 737.317 520.031 737.317 519.508C737.317 518.985 737.152 518.557 736.823 518.224C736.49 517.888 736.065 517.719 735.55 517.719C734.784 517.719 734.23 518.009 733.89 518.589H732.982L733.407 514.25H737.843V515.109H734.202L733.965 517.633H733.987C734.359 517.136 734.938 516.887 735.722 516.887C736.466 516.887 737.079 517.13 737.559 517.617C738.042 518.108 738.284 518.729 738.284 519.481C738.284 520.258 738.026 520.894 737.51 521.388C736.995 521.882 736.332 522.129 735.523 522.129Z" fill="#747D88"/>
<path d="M81 484H831V485H81V484Z" fill="#525252"/>
<path d="M81 419H831V420H81V419Z" fill="#525252"/>
<path d="M81 354H831V355H81V354Z" fill="#525252"/>
<path d="M81 289H831V290H81V289Z" fill="#525252"/>
<path d="M81 224H831V225H81V224Z" fill="#525252"/>
<path d="M81 159H831V160H81V159Z" fill="#525252"/>
<path d="M81 94H831V95H81V94Z" fill="#525252"/>
</g>
</svg>
